<svg width="246" height="104" viewBox="0 0 246 104" fill="none" xmlns="http://www.w3.org/2000/svg">
<path d="M74.2 58.2897C74.6822 58.2897 75.0679 58.4825 75.3571 58.8682C75.7428 59.1575 75.9357 59.5432 75.9357 60.0254V74.6339C75.9357 75.1161 75.7428 75.55 75.3571 75.9357C75.0679 76.225 74.6822 76.3696 74.2 76.3696H67.9805C67.4984 76.3696 67.2573 76.6107 67.2573 77.0928V100.669C67.2573 101.151 67.0645 101.585 66.6788 101.971C66.3895 102.26 66.0038 102.405 65.5217 102.405H48.5988C48.1167 102.405 47.6828 102.26 47.2971 101.971C47.0078 101.585 46.8632 101.151 46.8632 100.669V77.0928C46.8632 76.6107 46.6221 76.3696 46.14 76.3696H1.73567C1.25354 76.3696 0.819624 76.225 0.433919 75.9357C0.14464 75.55 0 75.1161 0 74.6339V63.0628C0 62.4842 0.14464 61.761 0.433919 60.8932L26.469 2.45886C26.8547 1.59103 27.5297 1.15711 28.494 1.15711H46.5739C47.2489 1.15711 47.6828 1.34996 47.8756 1.73567C48.1649 2.02495 48.1649 2.50708 47.8756 3.18206L23.7209 57.4218C23.6244 57.6147 23.6244 57.8075 23.7209 58.0004C23.8173 58.1933 23.9619 58.2897 24.1548 58.2897H46.14C46.6221 58.2897 46.8632 58.0486 46.8632 57.5665V39.6312C46.8632 39.1491 47.0078 38.7634 47.2971 38.4741C47.6828 38.0884 48.1167 37.8955 48.5988 37.8955H65.5217C66.0038 37.8955 66.3895 38.0884 66.6788 38.4741C67.0645 38.7634 67.2573 39.1491 67.2573 39.6312V57.5665C67.2573 58.0486 67.4984 58.2897 67.9805 58.2897H74.2Z" fill="#295CA9"/>
<path d="M123.879 103.996C113.272 103.996 104.883 101.055 98.7119 95.1727C92.5406 89.1943 89.455 81.0945 89.455 70.8733V32.6885C89.455 22.6602 92.5406 14.705 98.7119 8.823C104.883 2.941 113.272 0 123.879 0C134.486 0 142.875 2.941 149.046 8.823C155.314 14.705 158.448 22.6602 158.448 32.6885V70.8733C158.448 81.0945 155.314 89.1943 149.046 95.1727C142.875 101.055 134.486 103.996 123.879 103.996ZM123.879 86.4944C128.218 86.4944 131.641 85.1926 134.149 82.5891C136.752 79.8892 138.054 76.3214 138.054 71.8858V32.1099C138.054 27.6743 136.752 24.1548 134.149 21.5513C131.641 18.8513 128.218 17.5014 123.879 17.5014C119.636 17.5014 116.213 18.8513 113.61 21.5513C111.103 24.1548 109.849 27.6743 109.849 32.1099V71.8858C109.849 76.3214 111.103 79.8892 113.61 82.5891C116.213 85.1926 119.636 86.4944 123.879 86.4944Z" fill="#295CA9"/>
<path d="M244.264 58.2897C244.746 58.2897 245.132 58.4825 245.421 58.8682C245.807 59.1575 246 59.5432 246 60.0254V74.6339C246 75.1161 245.807 75.55 245.421 75.9357C245.132 76.225 244.746 76.3696 244.264 76.3696H238.045C237.563 76.3696 237.322 76.6107 237.322 77.0928V100.669C237.322 101.151 237.129 101.585 236.743 101.971C236.454 102.26 236.068 102.405 235.586 102.405H218.663C218.181 102.405 217.747 102.26 217.361 101.971C217.072 101.585 216.927 101.151 216.927 100.669V77.0928C216.927 76.6107 216.686 76.3696 216.204 76.3696H171.8C171.318 76.3696 170.884 76.225 170.498 75.9357C170.209 75.55 170.064 75.1161 170.064 74.6339V63.0628C170.064 62.4842 170.209 61.761 170.498 60.8932L196.533 2.45886C196.919 1.59103 197.594 1.15711 198.558 1.15711H216.638C217.313 1.15711 217.747 1.34996 217.94 1.73567C218.229 2.02495 218.229 2.50708 217.94 3.18206L193.785 57.4218C193.689 57.6147 193.689 57.8075 193.785 58.0004C193.882 58.1933 194.026 58.2897 194.219 58.2897H216.204C216.686 58.2897 216.927 58.0486 216.927 57.5665V39.6312C216.927 39.1491 217.072 38.7634 217.361 38.4741C217.747 38.0884 218.181 37.8955 218.663 37.8955H235.586C236.068 37.8955 236.454 38.0884 236.743 38.4741C237.129 38.7634 237.322 39.1491 237.322 39.6312V57.5665C237.322 58.0486 237.563 58.2897 238.045 58.2897H244.264Z" fill="#295CA9"/>
</svg>
