<svg width="64" height="65" viewBox="0 0 64 65" fill="none" xmlns="http://www.w3.org/2000/svg">
<g filter="url(#filter0_d_9588_11789)">
<circle cx="31.9998" cy="30.4631" r="18.2029" transform="rotate(-90 31.9998 30.4631)" fill="white"/>
</g>
<path fill-rule="evenodd" clip-rule="evenodd" d="M24.377 31.4234L30.0654 37.1118C30.2702 37.328 30.5546 37.4531 30.8731 37.4531C31.4989 37.4531 32.0108 36.9412 32.0108 36.3154C32.0108 35.9969 31.8857 35.7125 31.6809 35.5077L27.9379 31.7647L38.8369 31.7647C39.4627 31.7647 39.9746 31.2528 39.9746 30.627C39.9746 30.0013 39.4627 29.4893 38.8369 29.4893L27.9265 29.4893L31.6695 25.7464C31.8743 25.5416 31.9995 25.2572 31.9995 24.9386C31.9995 24.3129 31.4875 23.8009 30.8618 23.8009C30.5432 23.8009 30.2588 23.9261 30.054 24.1309L24.3656 29.8193C24.1608 30.0241 24.0357 30.3085 24.0357 30.627C24.0357 30.9456 24.1722 31.2186 24.377 31.4234Z" fill="#235BA8"/>
<defs>
<filter id="filter0_d_9588_11789" x="0.144678" y="0.427862" width="63.7106" height="63.7106" filterUnits="userSpaceOnUse" color-interpolation-filters="sRGB">
<feFlood flood-opacity="0" result="BackgroundImageFix"/>
<feColorMatrix in="SourceAlpha" type="matrix" values="0 0 0 0 0 0 0 0 0 0 0 0 0 0 0 0 0 0 127 0" result="hardAlpha"/>
<feOffset dy="1.82029"/>
<feGaussianBlur stdDeviation="6.8261"/>
<feComposite in2="hardAlpha" operator="out"/>
<feColorMatrix type="matrix" values="0 0 0 0 0.164706 0 0 0 0 0.360784 0 0 0 0 0.666667 0 0 0 0.1 0"/>
<feBlend mode="normal" in2="BackgroundImageFix" result="effect1_dropShadow_9588_11789"/>
<feBlend mode="normal" in="SourceGraphic" in2="effect1_dropShadow_9588_11789" result="shape"/>
</filter>
</defs>
</svg>
