<svg width="16" height="18" viewBox="0 0 16 18" fill="none" xmlns="http://www.w3.org/2000/svg">
<path fill-rule="evenodd" clip-rule="evenodd" d="M6.94531 0.624223L0.695312 6.87422C0.457812 7.09922 0.320312 7.41172 0.320312 7.76172C0.320312 8.44922 0.882812 9.01172 1.57031 9.01172C1.92031 9.01172 2.23281 8.87422 2.45781 8.64922L6.57031 4.53672L6.57031 16.5117C6.57031 17.1992 7.13281 17.7617 7.82031 17.7617C8.50781 17.7617 9.07031 17.1992 9.07031 16.5117L9.07031 4.52422L13.1828 8.63672C13.4078 8.86172 13.7203 8.99922 14.0703 8.99922C14.7578 8.99922 15.3203 8.43672 15.3203 7.74922C15.3203 7.39922 15.1828 7.08672 14.9578 6.86172L8.70781 0.611723C8.48281 0.386722 8.17031 0.249223 7.82031 0.249223C7.47031 0.249223 7.17031 0.399223 6.94531 0.624223Z" fill="#235BA8"/>
</svg>
