<svg width="13" height="12" viewBox="0 0 13 12" fill="none"
					xmlns="http://www.w3.org/2000/svg">
					<path
						d="M6.5 11.9961C9.812 11.9961 12.5 9.30809 12.5 5.99609C12.5 2.68409 9.812 -0.00390648 6.5 -0.00390677C3.188 -0.00390706 0.500001 2.68409 0.500001 5.99609C0.5 9.30809 3.188 11.9961 6.5 11.9961ZM4.082 5.67809L5.882 3.87809C5.972 3.78809 6.086 3.74609 6.2 3.74609C6.314 3.74609 6.428 3.78809 6.518 3.87809C6.692 4.05209 6.692 4.34009 6.518 4.51409L5.486 5.54609L8.6 5.54609C8.846 5.54609 9.05 5.75009 9.05 5.99609C9.05 6.24209 8.846 6.44609 8.6 6.44609L5.486 6.44609L6.518 7.47809C6.692 7.65209 6.692 7.94009 6.518 8.11409C6.344 8.28809 6.056 8.28809 5.882 8.11409L4.082 6.31409C3.908 6.14009 3.908 5.85209 4.082 5.67809Z"
						fill="#009E87" />
				</svg>