<svg width="32" height="32" viewBox="0 0 32 32" fill="none" xmlns="http://www.w3.org/2000/svg">
<path fill-rule="evenodd" clip-rule="evenodd" d="M27.6667 9.33337C27.6667 9.88566 27.219 10.3334 26.6667 10.3334L5.33333 10.3334C4.78105 10.3334 4.33333 9.88566 4.33333 9.33337C4.33333 8.78109 4.78105 8.33337 5.33333 8.33337L26.6667 8.33337C27.219 8.33337 27.6667 8.78109 27.6667 9.33337Z" fill="#235BA8"/>
<path fill-rule="evenodd" clip-rule="evenodd" d="M27.6667 16C27.6667 16.5523 27.219 17 26.6667 17L5.33333 17C4.78105 17 4.33333 16.5523 4.33333 16C4.33333 15.4477 4.78105 15 5.33333 15L26.6667 15C27.219 15 27.6667 15.4477 27.6667 16Z" fill="#235BA8"/>
<path fill-rule="evenodd" clip-rule="evenodd" d="M27.6667 22.6666C27.6667 23.2189 27.219 23.6666 26.6667 23.6666L5.33333 23.6666C4.78105 23.6666 4.33333 23.2189 4.33333 22.6666C4.33333 22.1143 4.78105 21.6666 5.33333 21.6666L26.6667 21.6666C27.219 21.6666 27.6667 22.1143 27.6667 22.6666Z" fill="#235BA8"/>
</svg>
