<svg width="237" height="256" viewBox="0 0 237 256" fill="none" xmlns="http://www.w3.org/2000/svg">
<g opacity="0.5" clip-path="url(#clip0_10897_111966)">
<mask id="mask0_10897_111966" style="mask-type:luminance" maskUnits="userSpaceOnUse" x="74" y="41" width="117" height="117">
<path d="M124.257 41.6517L74.4668 91.1679H130.292C136.121 91.1679 140.858 95.8795 140.858 101.676V157.194L190.649 107.678V41.6517H124.257Z" fill="white"/>
</mask>
<g mask="url(#mask0_10897_111966)">
<path d="M16.3701 99.4167L132.552 -16.1252L248.734 99.4167L132.552 214.959L16.3701 99.4167Z" fill="url(#paint0_linear_10897_111966)"/>
</g>
<mask id="mask1_10897_111966" style="mask-type:luminance" maskUnits="userSpaceOnUse" x="0" y="-16" width="191" height="108">
<path d="M103.78 -15.9982C100.814 -15.9982 97.9765 -14.8235 95.858 -12.7422L1.82366 80.7103C-2.06662 84.5791 0.680962 91.1677 6.1633 91.1677H74.4422L124.233 41.6515H190.611V-6.84317C190.611 -11.8995 186.49 -15.9982 181.406 -15.9982H103.78Z" fill="white"/>
</mask>
<g mask="url(#mask1_10897_111966)">
<path d="M244.51 37.5786L94.2912 186.983L-55.9404 37.5786L94.2912 -111.813L244.51 37.5786Z" fill="url(#paint1_linear_10897_111966)"/>
</g>
<mask id="mask2_10897_111966" style="mask-type:luminance" maskUnits="userSpaceOnUse" x="140" y="41" width="118" height="216">
<path d="M190.638 41.6509V107.677L140.848 157.193V250.135C140.848 255.561 147.434 258.268 151.299 254.425L253.781 153.426C255.861 151.358 257.042 148.536 257.042 145.599V50.7293C257.042 45.7113 252.947 41.6509 247.901 41.6509H190.638Z" fill="white"/>
</mask>
<g mask="url(#mask2_10897_111966)">
<path d="M257.03 41.6509H140.848V258.268H257.03V41.6509Z" fill="url(#paint2_linear_10897_111966)"/>
</g>
</g>
<defs>
<linearGradient id="paint0_linear_10897_111966" x1="76.1828" y1="155.445" x2="231.628" y2="2.94602" gradientUnits="userSpaceOnUse">
<stop stop-color="#61DCE4"/>
<stop offset="1" stop-color="white" stop-opacity="0"/>
</linearGradient>
<linearGradient id="paint1_linear_10897_111966" x1="190.825" y1="-42.3447" x2="-1.69624" y2="111.93" gradientUnits="userSpaceOnUse">
<stop stop-color="#61DCE4"/>
<stop offset="1" stop-color="white" stop-opacity="0"/>
</linearGradient>
<linearGradient id="paint2_linear_10897_111966" x1="198.919" y1="243.071" x2="198.919" y2="-70.5798" gradientUnits="userSpaceOnUse">
<stop stop-color="white" stop-opacity="0"/>
<stop offset="1" stop-color="#61DCE4"/>
</linearGradient>
<clipPath id="clip0_10897_111966">
<rect width="237" height="256" fill="white"/>
</clipPath>
</defs>
</svg>
