<svg width="1600" height="362" viewBox="0 0 1600 362" fill="none" xmlns="http://www.w3.org/2000/svg">
<g clip-path="url(#clip0_4_1649)">
<rect x="-0.25" width="1600" height="361.75" fill="url(#paint0_linear_4_1649)"/>
<g opacity="0.22">
<path d="M1275.12 0.662109L1015.5 29.1688L953.422 0.662109H1275.12Z" fill="#A1F2FE"/>
<path d="M1280.98 0.00595423L1015.54 29.1662L1132.71 82.9658L1398.15 53.8055L1280.98 0.00595423Z" fill="#ADF2FE"/>
<path d="M1398.14 53.8075L1132.71 82.9678L1249.88 136.767L1515.32 107.607L1398.14 53.8075Z" fill="#BFF3FE"/>
<path d="M1599.75 146.397V165.002L1367.03 190.572L1249.87 136.771L1515.31 107.617L1599.75 146.397Z" fill="#CEF5FE"/>
<path d="M1599.75 165.002V231.677L1484.19 244.372L1367.03 190.572L1599.75 165.002Z" fill="#E7F9FE"/>
<path d="M732.598 43.0505L467.213 72.2046L350 18.4039L511.622 0.662109H640.258L732.598 43.0505Z" fill="#91F2FE"/>
<path d="M732.641 43.0429L467.203 72.2031L584.376 126.003L849.814 96.8424L732.641 43.0429Z" fill="#B2F4FE"/>
<path d="M849.813 96.8456L584.375 126.006L701.548 179.805L966.986 150.645L849.813 96.8456Z" fill="#BFF5FE"/>
<path d="M966.981 150.645L701.543 179.805L818.716 233.605L1084.15 204.445L966.981 150.645Z" fill="#BFF3FE"/>
<path d="M1084.14 204.447L818.703 233.607L935.876 287.407L1201.31 258.247L1084.14 204.447Z" fill="#CEF5FE"/>
<path d="M1201.31 258.249L935.875 287.409L1053.05 341.209L1318.49 312.049L1201.31 258.249Z" fill="#E7F9FE"/>
<path d="M244.959 152.57L-0.25 179.507V112.831L127.799 98.7695L244.959 152.57Z" fill="#B0F5FF"/>
<path d="M362.172 206.371L96.734 235.525L-0.25 190.991V179.507L244.959 152.57L362.172 206.371Z" fill="#C0F3FF"/>
<path d="M362.192 206.367L96.7539 235.527L213.927 289.327L479.365 260.167L362.192 206.367Z" fill="#BFF3FE"/>
<path d="M479.352 260.169L213.914 289.329L331.087 343.129L596.525 313.968L479.352 260.169Z" fill="#CEF5FE"/>
<path d="M696.778 360.005H367.823L331.047 343.126L596.485 313.96L696.778 360.005Z" fill="#E7F9FE"/>
<path d="M-0.25 0.661865L244.959 41.4919L-0.25 112.831V0.661865Z" fill="#ADF2FE"/>
<path d="M-0.25 0.661865L244.959 41.4919L362.172 17.073L511.625 0.661865H-0.25Z" fill="#91F2FE"/>
<path d="M127.799 98.7693L-0.25 112.831L244.959 41.4922L467.163 72.2046L127.799 98.7693Z" fill="#BFF3FE"/>
<path d="M244.961 41.4935L351.819 19.2324L467.165 72.206L244.961 41.4935Z" fill="#A1F2FE"/>
<path d="M321.822 83.5811L127.801 98.7694L244.961 152.57L321.822 83.5811Z" fill="#CEF5FE"/>
<path d="M321.82 83.5824L584.376 126.007L467.163 72.2061L321.82 83.5824Z" fill="#CEF5FE"/>
<path d="M244.961 152.57L584.378 126.005L321.822 83.5811L244.961 152.57Z" fill="#BFF3FE"/>
<path d="M640.258 0.661865H953.414L732.598 43.0503L640.258 0.661865Z" fill="#BFF3FE"/>
<path d="M720.801 43.0503L1132.7 82.9693L953.413 0.661865L720.801 43.0503Z" fill="#BFF3FE"/>
<path d="M732.602 43.0508L1132.71 82.9698L913.279 126.006L732.602 43.0508Z" fill="#CEF5FE"/>
<path d="M1280.93 0.0136719L1599.74 0.661007L1398.09 53.8144L1280.93 0.0136719Z" fill="#A1F2FE"/>
<path d="M1398.09 53.8155L1399.75 54.0672L1599.75 84.5279V0.662109L1398.09 53.8155Z" fill="#BFF3FE"/>
<path d="M1398.09 53.8164L1599.75 84.5288V146.397L1398.09 53.8164Z" fill="#B2F4FE"/>
<path d="M96.734 235.525L-0.25 274.965V190.991L96.734 235.525Z" fill="#C0F3FF"/>
<path d="M-0.25 274.965L96.734 235.525L213.894 289.326L-0.25 274.965Z" fill="#CEF5FE"/>
<path d="M-0.25 274.964L213.894 289.325L-0.25 336.988V274.964Z" fill="#ADF2FE"/>
<path d="M-0.25 336.988L331.054 343.126L213.894 289.325L-0.25 336.988Z" fill="#E7F9FE"/>
<path d="M-0.25 336.99L148.936 339.747L-0.25 360.007V336.99Z" fill="#CEF5FE"/>
<path d="M148.936 339.745L213.894 360.004H-0.25L148.936 339.745Z" fill="#E7F9FE"/>
<path d="M148.938 339.745L331.056 343.126L213.896 360.004L148.938 339.745Z" fill="#CEF5FE"/>
<path d="M213.895 360.006L331.055 343.127L367.831 360.006H213.895Z" fill="#BFF3FE"/>
</g>
</g>
<defs>
<linearGradient id="paint0_linear_4_1649" x1="1515.84" y1="336.639" x2="1081.63" y2="860.344" gradientUnits="userSpaceOnUse">
<stop stop-color="#F4FBFE"/>
<stop offset="1" stop-color="#E1F0FA"/>
</linearGradient>
<clipPath id="clip0_4_1649">
<rect width="1600" height="361.75" fill="white" transform="translate(-0.25)"/>
</clipPath>
</defs>
</svg>
