<svg xmlns="http://www.w3.org/2000/svg" width="25" height="25" viewBox="0 0 25 25" fill="none">
  <path fill-rule="evenodd" clip-rule="evenodd" d="M12.0469 16.957C15.9129 16.957 19.0469 13.823 19.0469 9.95703C19.0469 6.09104 15.9129 2.95703 12.0469 2.95703C8.18088 2.95703 5.04688 6.09104 5.04688 9.95703C5.04688 13.823 8.18088 16.957 12.0469 16.957ZM12.0469 6.95703C11.7628 6.95703 11.5728 7.29787 11.1928 7.97954L11.0945 8.1559C10.9865 8.34961 10.9325 8.44647 10.8484 8.51037C10.7642 8.57428 10.6593 8.598 10.4496 8.64545L10.2587 8.68864C9.52083 8.8556 9.15188 8.93908 9.0641 9.22135C8.97632 9.50362 9.22785 9.79775 9.7309 10.386L9.86105 10.5382C10.004 10.7054 10.0755 10.7889 10.1076 10.8923C10.1398 10.9957 10.129 11.1073 10.1074 11.3303L10.0877 11.5334C10.0116 12.3182 9.97361 12.7106 10.2034 12.8851C10.4332 13.0596 10.7787 12.9005 11.4696 12.5824L11.6483 12.5001C11.8447 12.4097 11.9428 12.3645 12.0469 12.3645C12.1509 12.3645 12.2491 12.4097 12.4454 12.5001L12.6242 12.5824C13.3151 12.9005 13.6605 13.0596 13.8903 12.8851C14.1201 12.7106 14.0821 12.3182 14.0061 11.5333L13.9864 11.3303C13.9648 11.1073 13.954 10.9957 13.9861 10.8923C14.0183 10.7889 14.0897 10.7054 14.2327 10.5382L14.3628 10.386C14.8659 9.79776 15.1174 9.50362 15.0296 9.22135C14.9419 8.93908 14.5729 8.8556 13.835 8.68864L13.6441 8.64545C13.4344 8.598 13.3296 8.57428 13.2454 8.51037C13.1612 8.44647 13.1072 8.34961 12.9992 8.1559L12.9009 7.97954C12.5209 7.29787 12.3309 6.95703 12.0469 6.95703Z" fill="#A87E5C"/>
  <path d="M7.13989 16.8984L6.76112 18.28C6.13277 20.5718 5.8186 21.7178 6.23785 22.3451C6.38478 22.5649 6.58188 22.7414 6.8106 22.8579C7.46322 23.1902 8.47088 22.6651 10.4862 21.615C11.1567 21.2656 11.492 21.0909 11.8483 21.0529C11.9804 21.0388 12.1134 21.0388 12.2454 21.0529C12.6017 21.0909 12.937 21.2656 13.6075 21.615C15.6229 22.6651 16.6305 23.1902 17.2832 22.8579C17.5119 22.7414 17.709 22.5649 17.8559 22.3451C18.2751 21.7178 17.961 20.5718 17.3326 18.28L16.9539 16.8984C15.5677 17.8801 13.8747 18.457 12.0469 18.457C10.2191 18.457 8.52603 17.8801 7.13989 16.8984Z" fill="#A87E5C"/>
</svg>