<svg width="25" height="24" viewBox="0 0 25 24" fill="none" xmlns="http://www.w3.org/2000/svg">
<path d="M18.12 10.7496C17.69 10.7496 17.35 10.3996 17.35 9.97961C17.35 9.60961 16.98 8.83961 16.36 8.16961C15.75 7.51961 15.08 7.13961 14.52 7.13961C14.09 7.13961 13.75 6.78961 13.75 6.36961C13.75 5.94961 14.1 5.59961 14.52 5.59961C15.52 5.59961 16.57 6.13961 17.49 7.10961C18.35 8.01961 18.9 9.14961 18.9 9.96961C18.9 10.3996 18.55 10.7496 18.12 10.7496Z" fill="#FFD572"/>
<path d="M21.7317 10.7505C21.3017 10.7505 20.9617 10.4005 20.9617 9.98049C20.9617 6.43049 18.0717 3.55049 14.5317 3.55049C14.1017 3.55049 13.7617 3.20049 13.7617 2.78049C13.7617 2.36049 14.1017 2.00049 14.5217 2.00049C18.9217 2.00049 22.5017 5.58049 22.5017 9.98049C22.5017 10.4005 22.1517 10.7505 21.7317 10.7505Z" fill="#FFD572"/>
<path d="M12.29 14.2105L9.02 17.4805C8.66 17.1605 8.31 16.8305 7.97 16.4905C6.94 15.4505 6.01 14.3605 5.18 13.2205C4.36 12.0805 3.7 10.9405 3.22 9.81049C2.74 8.67049 2.5 7.58049 2.5 6.54049C2.5 5.86049 2.62 5.21049 2.86 4.61049C3.1 4.00049 3.48 3.44049 4.01 2.94049C4.65 2.31049 5.35 2.00049 6.09 2.00049C6.37 2.00049 6.65 2.06049 6.9 2.18049C7.16 2.30049 7.39 2.48049 7.57 2.74049L9.89 6.01049C10.07 6.26049 10.2 6.49049 10.29 6.71049C10.38 6.92049 10.43 7.13049 10.43 7.32049C10.43 7.56049 10.36 7.80049 10.22 8.03049C10.09 8.26049 9.9 8.50049 9.66 8.74049L8.9 9.53049C8.79 9.64049 8.74 9.77049 8.74 9.93049C8.74 10.0105 8.75 10.0805 8.77 10.1605C8.8 10.2405 8.83 10.3005 8.85 10.3605C9.03 10.6905 9.34 11.1205 9.78 11.6405C10.23 12.1605 10.71 12.6905 11.23 13.2205C11.59 13.5705 11.94 13.9105 12.29 14.2105Z" fill="#507FC8"/>
<path d="M22.4716 18.3296C22.4716 18.6096 22.4216 18.8996 22.3216 19.1796C22.2916 19.2596 22.2616 19.3396 22.2216 19.4196C22.0516 19.7796 21.8316 20.1196 21.5416 20.4396C21.0516 20.9796 20.5116 21.3696 19.9016 21.6196C19.8916 21.6196 19.8816 21.6295 19.8716 21.6295C19.2816 21.8695 18.6416 21.9996 17.9516 21.9996C16.9316 21.9996 15.8416 21.7596 14.6916 21.2696C13.5416 20.7796 12.3916 20.1196 11.2516 19.2896C10.8616 18.9996 10.4716 18.7096 10.1016 18.3996L13.3716 15.1296C13.6516 15.3396 13.9016 15.4996 14.1116 15.6096C14.1616 15.6296 14.2216 15.6596 14.2916 15.6896C14.3716 15.7196 14.4516 15.7296 14.5416 15.7296C14.7116 15.7296 14.8416 15.6696 14.9516 15.5596L15.7116 14.8096C15.9616 14.5596 16.2016 14.3696 16.4316 14.2496C16.6616 14.1096 16.8916 14.0396 17.1416 14.0396C17.3316 14.0396 17.5316 14.0796 17.7516 14.1696C17.9716 14.2596 18.2016 14.3896 18.4516 14.5596L21.7616 16.9096C22.0216 17.0896 22.2016 17.2996 22.3116 17.5496C22.4116 17.7996 22.4716 18.0496 22.4716 18.3296Z" fill="#40EBD5"/>
</svg>
