<svg width="41" height="40" viewBox="0 0 41 40" fill="none" xmlns="http://www.w3.org/2000/svg">
<path d="M23.37 27.7301C23.37 24.6401 23.37 23.8201 24.37 22.8601C25.37 21.9001 26.87 21.8601 29.96 21.8601C33.05 21.8601 34.59 21.8601 35.55 22.8601C36.51 23.8601 36.55 24.6401 36.55 27.7301V29.0001C36.55 32.0901 36.55 33.6301 35.55 34.5901C34.55 35.5501 33.05 35.5901 29.96 35.5901C26.87 35.5901 25.33 35.5901 24.37 34.5901C23.41 33.5901 23.37 32.0901 23.37 29.0001V27.7301Z" stroke="#2B5EAA" stroke-width="2" stroke-linecap="round" stroke-linejoin="round"/>
<path d="M5.5 14.2699C5.5 17.3599 5.5 18.8999 6.5 19.8599C7.5 20.8199 9 20.8599 12.09 20.8599C15.18 20.8599 16.72 20.8599 17.68 19.8599C18.64 18.8599 18.68 17.3599 18.68 14.2699V10.9999C18.68 7.90991 18.68 6.36991 17.68 5.40991C16.68 4.44991 15.18 4.40991 12.09 4.40991C9 4.40991 7.5 4.43991 6.5 5.39991C5.5 6.35991 5.5 7.89991 5.5 10.9999V14.2699Z" stroke="#2B5EAA" stroke-width="2" stroke-linecap="round" stroke-linejoin="round"/>
<path d="M5.50003 29.6499C5.40923 30.6204 5.49391 31.5994 5.75003 32.5399C5.91437 32.9367 6.15526 33.2973 6.45896 33.601C6.76267 33.9047 7.12322 34.1456 7.52003 34.3099C8.46055 34.566 9.4395 34.6507 10.41 34.5599H13.69C14.6606 34.6501 15.6394 34.5654 16.58 34.3099C16.9768 34.1456 17.3374 33.9047 17.6411 33.601C17.9448 33.2973 18.1857 32.9367 18.35 32.5399C18.6062 31.5994 18.6908 30.6204 18.6 29.6499C18.6908 28.6794 18.6062 27.7004 18.35 26.7599C18.0221 25.9685 17.3976 25.3369 16.61 24.9999C15.6694 24.7444 14.6906 24.6598 13.72 24.7499H10.44C9.4695 24.6591 8.49055 24.7438 7.55003 24.9999C6.74735 25.3351 6.11067 25.9754 5.78003 26.7799C5.51622 27.7122 5.42139 28.6842 5.50003 29.6499Z" stroke="#129B86" stroke-width="2"/>
<path d="M24.7699 15.49L24.3199 15.53L24.7699 15.49Z" fill="#1C274C"/>
<path d="M27.96 6.54996C28.83 4.98996 29.27 4.20996 29.96 4.20996C30.65 4.20996 31.05 4.98996 31.96 6.54996L32.1 6.99996C32.2345 7.30501 32.4282 7.58033 32.67 7.80996C32.9477 7.97708 33.258 8.08278 33.58 8.11996L34.02 8.21996C35.71 8.59996 36.56 8.78996 36.76 9.43996C36.96 10.09 36.38 10.76 35.23 12.11L34.93 12.46C34.689 12.6903 34.4954 12.9654 34.36 13.27C34.2988 13.6005 34.2988 13.9394 34.36 14.27V14.74C34.53 16.54 34.62 17.44 34.1 17.84C33.58 18.24 32.78 17.84 31.19 17.14L30.78 16.95C30.5001 16.7875 30.1908 16.6822 29.87 16.64C29.5491 16.6822 29.2398 16.7875 28.96 16.95L28.55 17.14C26.96 17.87 26.17 18.24 25.64 17.84C25.11 17.44 25.21 16.54 25.38 14.74V14.27C25.4411 13.9394 25.4411 13.6005 25.38 13.27C25.2445 12.9654 25.0509 12.6903 24.81 12.46L24.51 12.11C23.36 10.76 22.78 10.11 22.98 9.43996C23.18 8.76996 24.03 8.59996 25.72 8.21996L26.16 8.11996C26.4819 8.08278 26.7922 7.97708 27.07 7.80996C27.3477 7.59006 27.576 7.31406 27.74 6.99996L27.96 6.54996Z" stroke="#F8BC29" stroke-width="2"/>
</svg>
