<svg width="25" height="24" viewBox="0 0 25 24" fill="none" xmlns="http://www.w3.org/2000/svg">
<path d="M10.74 22.78C10.14 22.78 9.56999 22.48 9.17999 21.95L7.98001 20.35C7.98001 20.36 7.93 20.33 7.91 20.33H7.54001C4.12001 20.33 2 19.4 2 14.79V10.79C2 6.58001 4.57001 5.48001 6.73001 5.29001C6.97001 5.26001 7.25001 5.25 7.54001 5.25H13.94C17.56 5.25 19.48 7.17001 19.48 10.79V14.79C19.48 15.08 19.47 15.36 19.43 15.63C19.25 17.76 18.15 20.33 13.94 20.33H13.54L12.3 21.95C11.91 22.48 11.34 22.78 10.74 22.78ZM7.54001 6.75C7.31001 6.75 7.09 6.76 6.88 6.78C4.56 6.98 3.5 8.25001 3.5 10.79V14.79C3.5 18.22 4.56001 18.83 7.54001 18.83H7.94C8.39 18.83 8.89999 19.08 9.17999 19.44L10.38 21.05C10.6 21.35 10.88 21.35 11.1 21.05L12.3 19.45C12.59 19.06 13.05 18.83 13.54 18.83H13.94C16.48 18.83 17.75 17.76 17.94 15.48C17.97 15.24 17.98 15.02 17.98 14.79V10.79C17.98 8.00001 16.73 6.75 13.94 6.75H7.54001Z" fill="white"/>
<path d="M10.7402 14.1899C10.1802 14.1899 9.74023 13.7399 9.74023 13.1899C9.74023 12.6399 10.1902 12.1899 10.7402 12.1899C11.2902 12.1899 11.7402 12.6399 11.7402 13.1899C11.7402 13.7399 11.3002 14.1899 10.7402 14.1899Z" fill="white"/>
<path d="M13.9399 14.1899C13.3799 14.1899 12.9399 13.7399 12.9399 13.1899C12.9399 12.6399 13.3899 12.1899 13.9399 12.1899C14.4899 12.1899 14.9399 12.6399 14.9399 13.1899C14.9399 13.7399 14.4899 14.1899 13.9399 14.1899Z" fill="white"/>
<path d="M7.5498 14.1899C6.9898 14.1899 6.5498 13.7399 6.5498 13.1899C6.5498 12.6399 6.9998 12.1899 7.5498 12.1899C8.0998 12.1899 8.5498 12.6399 8.5498 13.1899C8.5498 13.7399 8.0998 14.1899 7.5498 14.1899Z" fill="white"/>
<path d="M18.6901 16.29C18.4901 16.29 18.2901 16.21 18.1501 16.06C17.9901 15.9 17.9201 15.67 17.9501 15.45C17.9801 15.24 17.9901 15.02 17.9901 14.79V10.79C17.9901 8.00001 16.7401 6.75 13.9501 6.75H7.55012C7.32012 6.75 7.10015 6.76 6.89015 6.78C6.67015 6.81 6.44013 6.72999 6.28013 6.57999C6.12013 6.41999 6.03012 6.20001 6.05012 5.98001C6.23012 3.82001 7.34012 1.25 11.5501 1.25H17.9501C21.5701 1.25 23.4901 3.17001 23.4901 6.79001V10.79C23.4901 15 20.9201 16.1 18.7601 16.29C18.7301 16.29 18.7101 16.29 18.6901 16.29ZM7.67015 5.25H13.9401C17.5601 5.25 19.4801 7.17001 19.4801 10.79V14.66C21.1801 14.24 21.9801 12.99 21.9801 10.79V6.79001C21.9801 4.00001 20.7301 2.75 17.9401 2.75H11.5401C9.34014 2.75 8.10015 3.55 7.67015 5.25Z" fill="white"/>
</svg>
