<svg width="25" height="24" viewBox="0 0 25 24" fill="none" xmlns="http://www.w3.org/2000/svg">
<path d="M20.5 6.75C22.0188 6.75 23.25 5.51878 23.25 4C23.25 2.48122 22.0188 1.25 20.5 1.25C18.9812 1.25 17.75 2.48122 17.75 4C17.75 5.51878 18.9812 6.75 20.5 6.75Z" fill="white"/>
<path d="M20.5 8C18.29 8 16.5 6.21 16.5 4C16.5 3.27 16.71 2.59 17.06 2H7.5C4.74 2 2.5 4.23 2.5 6.98V12.96V13.96C2.5 16.71 4.74 18.94 7.5 18.94H9C9.27 18.94 9.63 19.12 9.8 19.34L11.3 21.33C11.96 22.21 13.04 22.21 13.7 21.33L15.2 19.34C15.39 19.09 15.69 18.94 16 18.94H17.5C20.26 18.94 22.5 16.71 22.5 13.96V7.44C21.91 7.79 21.23 8 20.5 8Z" fill="#507FC8"/>
<path d="M12.5 12C11.94 12 11.5 11.55 11.5 11C11.5 10.45 11.95 10 12.5 10C13.05 10 13.5 10.45 13.5 11C13.5 11.55 13.06 12 12.5 12Z" fill="#FFD572"/>
<path d="M16.5 12C15.94 12 15.5 11.55 15.5 11C15.5 10.45 15.95 10 16.5 10C17.05 10 17.5 10.45 17.5 11C17.5 11.55 17.06 12 16.5 12Z" fill="#FFD572"/>
<path d="M8.5 12C7.94 12 7.5 11.55 7.5 11C7.5 10.45 7.95 10 8.5 10C9.05 10 9.5 10.45 9.5 11C9.5 11.55 9.06 12 8.5 12Z" fill="#FFD572"/>
</svg>
