<svg width="20" height="20" viewBox="0 0 20 20" fill="none" xmlns="http://www.w3.org/2000/svg">
<path fill-rule="evenodd" clip-rule="evenodd" d="M18.3333 10.0001C18.3333 14.6025 14.6023 18.3334 9.99996 18.3334C5.39759 18.3334 1.66663 14.6025 1.66663 10.0001C1.66663 5.39771 5.39759 1.66675 9.99996 1.66675C14.6023 1.66675 18.3333 5.39771 18.3333 10.0001ZM7.47465 7.47479C7.71873 7.23071 8.11446 7.23071 8.35853 7.47479L9.99993 9.11619L11.6413 7.47481C11.8854 7.23073 12.2811 7.23073 12.5252 7.47481C12.7693 7.71888 12.7693 8.11461 12.5252 8.35869L10.8838 10.0001L12.5252 11.6414C12.7693 11.8855 12.7693 12.2812 12.5252 12.5253C12.2811 12.7694 11.8854 12.7694 11.6413 12.5253L9.99993 10.884L8.35855 12.5253C8.11447 12.7694 7.71875 12.7694 7.47467 12.5253C7.23059 12.2813 7.23059 11.8855 7.47467 11.6415L9.11605 10.0001L7.47465 8.35867C7.23057 8.1146 7.23057 7.71887 7.47465 7.47479Z" fill="#1B468D"/>
</svg>
