<svg width="79" height="79" viewBox="0 0 79 79" fill="none" xmlns="http://www.w3.org/2000/svg">
<path d="M48.2281 10.3847C48.8209 10.5173 49.4293 10.6109 50.0143 10.7825C51.9039 11.2767 53.6182 12.2883 54.9645 13.7034C56.3107 15.1185 57.2355 16.8812 57.6348 18.7931C58.5084 22.3109 57.6349 25.6103 55.9111 28.7459C53.5789 32.6608 50.4352 36.0306 46.6915 38.6285C44.5621 40.1885 42.3001 41.6081 40.0927 43.0901C39.6203 43.4344 39.0509 43.6199 38.4664 43.6199C37.8818 43.6199 37.3124 43.4344 36.8401 43.0901C32.0821 40.1417 27.4801 37.0061 23.8999 32.8019C21.6535 30.1889 19.8595 27.3419 19.2199 24.0113C18.4399 19.9085 19.3525 16.2113 22.5427 13.1771C24.1389 11.6705 26.175 10.714 28.3537 10.4471C28.4676 10.4243 28.5797 10.393 28.6891 10.3535H30.8341L30.8965 10.4471C32.3521 10.6436 33.7522 11.136 35.0105 11.8939C36.2687 12.6518 37.3586 13.6592 38.2129 14.8541C38.2922 14.9342 38.3783 15.0073 38.4703 15.0725C39.6173 13.4265 41.1887 12.1219 43.0177 11.2973C44.0402 10.9342 45.0817 10.6269 46.1377 10.3769L48.2281 10.3847ZM22.4881 22.0145C22.6435 22.9807 22.8571 23.9366 23.1277 24.8771C24.1421 27.5903 25.7582 30.0384 27.8545 32.0375C30.7202 34.8545 33.9 37.3329 37.3315 39.4241C38.4469 40.1417 38.4391 40.1495 39.5779 39.4241L40.2565 38.9717C43.6866 36.8596 46.8322 34.3169 49.6165 31.4057C51.6404 29.3695 53.1394 26.8721 53.9844 24.1283C54.3981 22.828 54.49 21.4467 54.2522 20.1031C54.0145 18.7594 53.4542 17.4935 52.6194 16.4141C52.0452 15.6364 51.3086 14.9928 50.4609 14.5279C49.6132 14.0631 48.6745 13.7881 47.71 13.7221C46.7454 13.6561 45.7781 13.8005 44.8749 14.1455C43.9717 14.4905 43.1544 15.0277 42.4795 15.7199C41.547 16.599 40.8061 17.6612 40.3033 18.8399C39.9367 19.6979 39.5233 20.4545 38.3689 20.4467C37.2145 20.4389 36.8089 19.6667 36.4579 18.8165C35.9068 17.5156 35.0728 16.3539 34.0165 15.4157C32.8064 14.3277 31.2367 13.7257 29.6095 13.7257C27.9822 13.7257 26.4125 14.3277 25.2025 15.4157C23.3227 17.0381 22.6207 19.1597 22.5115 22.0145H22.4881Z" fill="#FFB81C"/>
<path d="M58.415 43.0978C58.89 42.548 59.47 42.0986 60.1209 41.7758C60.7719 41.453 61.4807 41.2634 62.2058 41.218C63.2747 41.1267 64.3456 41.3705 65.2695 41.9157C66.1935 42.4608 66.9247 43.2802 67.3616 44.26C67.8356 45.2308 68.0001 46.3236 67.8327 47.3908C67.6652 48.4581 67.1741 49.4481 66.4256 50.227C65.1854 51.592 63.9296 52.9414 62.6816 54.3064C60.3962 56.7868 58.0874 59.2516 55.8254 61.7554C51.8936 66.1283 46.4679 68.8717 40.6154 69.4462C34.947 70.1705 29.1921 69.1588 24.1106 66.5446C21.9134 65.4139 19.4673 64.8534 16.997 64.9144C15.6476 64.9144 14.2982 64.9144 12.9488 64.9144C12.6799 64.9447 12.4076 64.9146 12.1518 64.8262C11.896 64.7378 11.6632 64.5934 11.4703 64.4036C11.2775 64.2137 11.1295 63.9832 11.0371 63.7288C10.9447 63.4744 10.9103 63.2026 10.9364 62.9332V50.7808C10.9096 50.5171 10.9418 50.2507 11.0307 50.001C11.1196 49.7513 11.263 49.5245 11.4504 49.337C11.6379 49.1496 11.8647 49.0062 12.1144 48.9173C12.3641 48.8284 12.6305 48.7962 12.8942 48.823C15.0392 48.823 17.1842 48.823 19.3292 48.823C19.6095 48.8128 19.8807 48.7206 20.1092 48.5578C22.5181 46.7147 25.4649 45.7121 28.498 45.7036C31.5312 45.6951 34.4835 46.6813 36.9026 48.511C37.1689 48.698 37.4825 48.8061 37.8074 48.823C39.0554 48.823 40.3112 48.823 41.5592 48.823C41.8823 48.8004 42.1904 48.6777 42.4406 48.472C44.9678 46.132 47.456 43.792 50.0066 41.452C50.5826 40.9301 51.2661 40.5408 52.0089 40.3119C52.7517 40.0829 53.5357 40.0197 54.3056 40.1268C55.0755 40.234 55.8125 40.5087 56.4646 40.9318C57.1167 41.3548 57.668 41.9159 58.0796 42.5752L58.415 43.0978ZM14.5166 61.342C15.2576 61.342 15.9284 61.342 16.5992 61.342C19.8492 61.238 23.0717 61.9685 25.9592 63.4636C30.4732 65.7513 35.5873 66.5773 40.592 65.827C45.4517 65.2902 49.9426 62.9795 53.2046 59.3374C54.281 58.1128 55.4042 56.935 56.5118 55.7416C58.9298 53.1052 61.3556 50.4844 63.7658 47.848C63.9499 47.6857 64.0985 47.4873 64.2025 47.265C64.3065 47.0427 64.3635 46.8013 64.3701 46.556C64.3767 46.3107 64.3326 46.0667 64.2407 45.8391C64.1487 45.6116 64.0109 45.4054 63.8358 45.2335C63.6607 45.0616 63.452 44.9276 63.2228 44.84C62.9936 44.7523 62.7487 44.7128 62.5036 44.7239C62.2584 44.735 62.0182 44.7965 61.7979 44.9046C61.5776 45.0127 61.3819 45.165 61.223 45.352C57.063 49.512 52.903 53.672 48.743 57.832C48.0564 58.5862 47.146 59.1001 46.1456 59.2984C45.3468 59.4334 44.5377 59.4986 43.7276 59.4934C40.2332 59.4934 36.7076 59.4934 33.2444 59.4934H32.7686C32.2967 59.4834 31.847 59.291 31.5139 58.9565C31.1809 58.6219 30.9904 58.1714 30.9824 57.6994C30.9822 57.4602 31.0304 57.2234 31.1243 57.0034C31.2181 56.7833 31.3555 56.5845 31.5283 56.419C31.701 56.2536 31.9056 56.1248 32.1295 56.0406C32.3534 55.9563 32.592 55.9183 32.831 55.9288C36.8012 55.9288 40.7792 55.9288 44.7494 55.9288C44.9934 55.945 45.2381 55.9109 45.4683 55.8286C45.6986 55.7464 45.9095 55.6177 46.088 55.4506C46.2665 55.2835 46.4088 55.0816 46.5061 54.8573C46.6034 54.6329 46.6536 54.391 46.6536 54.1465C46.6536 53.902 46.6034 53.6601 46.5061 53.4358C46.4088 53.2115 46.2665 53.0095 46.088 52.8425C45.9095 52.6754 45.6986 52.5467 45.4683 52.4645C45.2381 52.3822 44.9934 52.3481 44.7494 52.3642C42.6434 52.3642 40.5374 52.3018 38.4392 52.3642C36.9494 52.4266 35.5922 52.2862 34.5392 51.1084C34.5073 51.0824 34.4734 51.0589 34.4378 51.0382C32.6053 49.7682 30.4078 49.1319 28.1802 49.2262C25.9526 49.3205 23.8168 50.1404 22.0982 51.5608C21.4847 52.0963 20.6888 52.3756 19.8752 52.3408C18.3152 52.294 16.7552 52.3408 15.1952 52.3408H14.5166V61.342ZM49.679 51.8494L54.788 46.7326C54.9621 46.5701 55.1016 46.3741 55.1981 46.1564C55.2947 45.9387 55.3463 45.7038 55.3499 45.4656C55.3536 45.2275 55.3091 44.9911 55.2193 44.7705C55.1294 44.55 54.996 44.3498 54.827 44.182C54.4903 43.8528 54.0382 43.6685 53.5673 43.6685C53.0964 43.6685 52.6443 43.8528 52.3076 44.182L47.4326 48.706C47.227 48.8676 47.0077 49.0111 46.7774 49.135C48.0354 49.6679 49.0635 50.6298 49.679 51.8494Z" fill="#235BA8"/>
</svg>
