<svg width="79" height="79" viewBox="0 0 79 79" fill="none" xmlns="http://www.w3.org/2000/svg">
<path d="M41.1336 37.6504C41.235 37.8298 41.352 38.017 41.4768 38.1964C38.5409 41.855 37.0776 46.4784 37.374 51.16C36.1182 49.912 34.917 48.7654 33.7002 47.572C33.5208 47.4082 33.4272 47.2678 33.4506 47.0884C32.7797 48.2841 31.8196 49.2925 30.6582 50.0212C31.6254 50.9884 32.8812 52.1662 33.9498 53.2972C36.141 55.6163 37.3607 58.6866 37.3584 61.8772C37.3584 64.0612 37.3584 66.253 37.3584 68.4448V69.139H41.1882V68.359C41.1882 62.2386 41.1882 56.113 41.1882 49.9822C41.1514 47.953 41.5504 45.9395 42.3582 44.0776C42.8574 42.97 43.5828 41.8156 44.1756 40.747H44.2224C43.0142 39.9098 41.9677 38.8607 41.1336 37.6504Z" fill="#235BA8"/>
<path d="M71.2182 10.2654C69.6582 10.3278 68.0124 10.359 66.4134 10.4994C61.6285 10.849 56.9306 11.9629 52.4982 13.7988C47.982 15.7254 44.2068 18.5568 41.7186 22.878C39.6443 26.1981 38.9005 30.1791 39.636 34.0242C39.7 34.348 39.7807 34.6682 39.8778 34.9836C40.1549 35.8773 40.5399 36.7338 41.0244 37.5342L41.0946 37.6434C41.9357 38.8649 42.9931 39.9223 44.2146 40.7634C44.2356 40.7861 44.2627 40.8023 44.2926 40.8102L44.4096 40.896H44.4564L44.6046 40.9974C47.35 42.7175 50.6645 43.2812 53.8242 42.5652C59.331 41.4498 63.4182 38.283 66.3822 33.603C69.5022 28.6812 70.836 23.1744 71.5692 17.4804C71.8266 15.4758 71.9748 13.4556 72.3024 11.4588C72.323 11.3066 72.31 11.1517 72.2644 11.005C72.2187 10.8582 72.1416 10.7233 72.0383 10.6096C71.9349 10.4959 71.808 10.4061 71.6663 10.3467C71.5247 10.2872 71.3717 10.2595 71.2182 10.2654ZM67.7394 17.1528C67.2829 21.4489 66.1179 25.6396 64.2918 29.5548C62.5994 33.3157 59.5771 36.3186 55.8054 37.9866C54.57 38.5857 53.2284 38.9348 51.8577 39.0138C50.487 39.0928 49.1142 38.9001 47.8182 38.4468L47.3346 38.2128L46.929 37.971L57.4044 27.519C57.7587 27.1625 57.9576 26.6802 57.9576 26.1774C57.9576 25.6747 57.7587 25.1924 57.4044 24.8358C57.0438 24.48 56.5576 24.2805 56.0511 24.2805C55.5445 24.2805 55.0583 24.48 54.6978 24.8358L44.2614 35.3424C43.6485 34.3348 43.2972 33.1899 43.2396 32.0118C43.0789 28.6378 44.2274 25.3321 46.4454 22.7844C48.7854 19.8204 51.999 18.0264 55.5012 16.7316C59.4117 15.3572 63.488 14.5099 67.6224 14.2122C67.7238 14.2122 67.833 14.2122 68.0436 14.2122C67.9422 15.2184 67.8642 16.1856 67.7394 17.1528Z" fill="#FFB81C"/>
<path d="M39.917 34.9912C40.1941 35.8848 40.5792 36.7413 41.0636 37.5418C40.5262 36.7664 40.135 35.8994 39.9092 34.9834L39.917 34.9912Z" fill="black"/>
<path d="M33.591 35.3576C31.4928 30.9116 27.9204 28.0724 23.451 26.1926C19.5039 24.5867 15.3245 23.6255 11.0724 23.3456C10.8462 23.3456 10.6044 23.2988 10.3626 23.291H9.85562H9.46562C9.26282 23.291 9.05222 23.291 8.84942 23.291H7.37521C7.16835 23.291 6.96995 23.3732 6.82367 23.5195C6.67739 23.6658 6.59521 23.8641 6.59521 24.071C6.59521 24.4298 6.59521 24.851 6.59521 25.202C6.59521 25.982 6.64982 26.6606 6.64982 26.6606C6.82931 31.0386 7.71701 35.3586 9.27842 39.4526C10.6189 43.2744 13.1161 46.584 16.4232 48.9218C19.5432 51.0122 22.8738 52.1198 26.61 51.4802C27.7286 51.2272 28.8223 50.8748 29.8782 50.4272L30.0888 50.3258C30.2756 50.239 30.4579 50.1427 30.6348 50.0372C31.7895 49.3162 32.7465 48.319 33.4194 47.1356C33.4311 47.0196 33.4743 46.9091 33.5442 46.8158L33.7548 46.4726C33.7579 46.4519 33.7579 46.4309 33.7548 46.4102C33.9767 46.0351 34.1646 45.6409 34.3164 45.2324C34.8701 43.623 35.0913 41.918 34.9667 40.2206C34.842 38.5232 34.374 36.8688 33.591 35.3576ZM30.549 44.2964L21.813 35.5604C21.6324 35.3779 21.4174 35.233 21.1804 35.1341C20.9434 35.0352 20.6892 34.9843 20.4324 34.9843C20.1756 34.9843 19.9214 35.0352 19.6844 35.1341C19.4474 35.233 19.2324 35.3779 19.0518 35.5604C18.8709 35.7396 18.7273 35.9528 18.6294 36.1877C18.5314 36.4227 18.4809 36.6747 18.4809 36.9293C18.4809 37.1839 18.5314 37.4359 18.6294 37.6709C18.7273 37.9059 18.8709 38.1191 19.0518 38.2982C21.9118 41.1686 24.8472 44.1014 27.858 47.0966C26.1034 47.8801 24.1232 47.9965 22.2888 47.4242C19.0818 46.5059 16.3471 44.3963 14.6448 41.5274C12.8144 38.4262 11.6062 34.9978 11.088 31.4342C10.8852 30.272 10.7526 29.0942 10.6044 27.9008C10.6044 27.6824 10.6044 27.4484 10.6044 27.1208C12.1644 27.3314 13.623 27.4952 15.105 27.7526C18.2803 28.2446 21.3466 29.2817 24.1686 30.818C25.8268 31.6765 27.285 32.8756 28.4477 34.3367C29.6104 35.7978 30.4514 37.488 30.9156 39.2966C31.3747 40.9555 31.2452 42.7222 30.549 44.2964Z" fill="#009E87"/>
<path d="M33.7783 46.457C33.7315 46.5662 33.6145 46.808 33.4429 47.12C33.4546 47.004 33.4977 46.8935 33.5677 46.8002L33.7783 46.457Z" fill="black"/>
</svg>
