<svg width="71" height="71" viewBox="0 0 71 71" fill="none" xmlns="http://www.w3.org/2000/svg">
<path d="M44.6881 41.3349C44.7272 41.5767 44.6869 41.8246 44.5734 42.0417C44.4598 42.2587 44.279 42.4331 44.0581 42.5389C43.8809 42.6404 43.6812 42.6957 43.4771 42.6999C43.1894 42.6856 42.9132 42.5829 42.6861 42.4059L41.9861 41.9089L35.2381 36.8479L34.6081 37.2679L34.3421 37.4429L32.2911 38.9829L27.7271 42.4129C27.5008 42.5924 27.2245 42.6975 26.9361 42.7139C26.7335 42.7076 26.536 42.6498 26.3621 42.5459C26.14 42.4391 25.9581 42.2637 25.8434 42.0456C25.7287 41.8276 25.6872 41.5784 25.7251 41.3349C25.7251 40.8869 25.8021 40.4319 25.8441 39.9839L25.9071 39.2839L26.5371 32.3959L26.7611 29.9739L27.6781 20.0899V19.9639H30.0931V19.9989L28.3921 38.8079L30.1841 37.5759C30.3343 37.4838 30.4792 37.3833 30.6181 37.2749L34.1181 34.6359C34.4274 34.3482 34.8191 34.1646 35.2381 34.1109C35.6555 34.179 36.0444 34.3662 36.3581 34.6499L42.0841 38.9479L40.3341 19.9989V19.9639H42.7561L43.6381 29.8199V29.9809L43.8621 32.4309L44.1421 35.5389L44.3381 37.0719C44.4291 38.4859 44.5621 39.9069 44.6881 41.3349Z" fill="#FFB81C" stroke="#FFB81C"/>
<path d="M55.0343 6.5512C54.9862 9.8895 53.7075 13.0926 51.4433 15.5462L49.6443 17.5692H41.4823C43.2125 17.5709 44.9188 17.1664 46.4641 16.3883C48.0094 15.6102 49.3505 14.4802 50.3793 13.0892C51.4089 11.7779 52.1033 10.2354 52.4023 8.5952L52.5983 7.55919H50.2533C49.8263 7.55919 49.4133 7.55919 48.9863 7.55919C48.5593 7.55919 47.9713 7.55919 47.4673 7.55919C45.4063 7.5684 43.3893 8.15586 41.6457 9.25476C39.902 10.3536 38.5018 11.9199 37.6043 13.7752C37.3221 14.3498 37.0879 14.9469 36.9043 15.5602C36.8133 15.8332 36.7153 16.1062 36.6173 16.3932L36.1693 17.5692H31.4933L32.7253 17.5342L33.6493 17.4992L33.7333 16.7572C33.7558 16.6346 33.7558 16.5088 33.7333 16.3862C33.7208 16.2584 33.6974 16.132 33.6633 16.0082C33.242 14.369 32.4568 12.8457 31.3662 11.5515C30.2755 10.2573 28.9074 9.22529 27.3633 8.5322C25.5955 7.78339 23.6807 7.4459 21.7633 7.5452H18.9563H17.9693L18.0603 8.5252V8.6582C18.0678 8.80177 18.0866 8.94454 18.1163 9.0852C18.7439 11.5143 20.1503 13.6707 22.1203 15.2242C24.1294 16.7623 26.5901 17.594 29.1203 17.5902H20.7763L19.1873 15.7842C18.9983 15.5742 18.8303 15.3922 18.6763 15.1962C16.5714 12.7612 15.4112 9.65094 15.4073 6.4322C15.3968 6.07483 15.5276 5.72773 15.7713 5.4662C15.8567 5.37926 15.9594 5.31127 16.0728 5.26665C16.1861 5.22203 16.3076 5.20177 16.4293 5.2072H18.0673H20.2933C21.9033 5.2072 23.1423 5.2492 24.2903 5.3612C28.3713 5.7252 31.6893 7.74819 34.1533 11.3672L35.1473 12.8162L35.9943 11.7522C36.0853 11.6402 36.1623 11.5282 36.2393 11.4232C37.4499 9.4986 39.1307 7.91411 41.1234 6.8192C43.116 5.72429 45.3547 5.15506 47.6283 5.1652C48.4193 5.1652 49.2103 5.1652 50.0083 5.1652H53.6763C54.0499 5.15056 54.4151 5.27814 54.6983 5.5222C54.8198 5.66283 54.9121 5.82624 54.9698 6.00291C55.0275 6.17958 55.0494 6.36596 55.0343 6.5512Z" fill="#009E87" stroke="#009E87"/>
<path d="M65.3945 24.3531C65.3945 23.9471 65.3945 23.5411 65.3945 23.1351C65.4272 22.3968 65.306 21.6597 65.0388 20.9707C64.7716 20.2817 64.3641 19.6557 63.8422 19.1325C63.3203 18.6092 62.6953 18.2002 62.007 17.9312C61.3186 17.6623 60.5819 17.5393 59.8435 17.5701H31.4935C31.0875 17.5701 30.6745 17.5701 30.2685 17.5701C29.8625 17.5701 29.5125 17.5701 29.1205 17.5701H13.4615C12.3905 17.5701 11.3195 17.5701 10.2415 17.5701C9.01386 17.5712 7.82776 18.0149 6.90075 18.8198C5.97375 19.6246 5.36797 20.7367 5.19451 21.9521C5.06751 23.3131 5.03243 24.6813 5.08951 26.0471C5.08951 26.6351 5.08951 27.2091 5.08951 27.7901C5.09977 27.9307 5.128 28.0695 5.17351 28.2031V28.3291C5.78251 30.7091 7.60251 32.1231 10.4305 32.4031L11.2145 32.4801V59.9481C11.1826 60.683 11.3042 61.4166 11.5713 62.102C11.8385 62.7875 12.2455 63.4098 12.7663 63.9293C13.2872 64.4489 13.9105 64.8543 14.5966 65.1197C15.2827 65.3851 16.0166 65.5048 16.7515 65.4711H53.6485C54.1744 65.4751 54.6987 65.4139 55.2095 65.2891C56.3823 64.9857 57.4154 64.2892 58.1365 63.3159C58.8576 62.3426 59.2229 61.1513 59.1715 59.9411C59.1715 53.7017 59.1715 47.4624 59.1715 41.2231V32.4451L60.0045 32.4031C61.3238 32.4061 62.5978 31.9219 63.5821 31.0435C64.5665 30.1651 65.1919 28.9542 65.3385 27.6431C65.4173 26.5482 65.436 25.4499 65.3945 24.3531ZM62.9935 24.1081C62.9935 25.0741 62.9935 26.0331 62.9935 26.9921C63.001 27.3809 62.9305 27.7674 62.7862 28.1285C62.6419 28.4897 62.4267 28.8183 62.1533 29.095C61.8799 29.3716 61.5539 29.5907 61.1945 29.7393C60.835 29.8879 60.4494 29.9629 60.0605 29.9601H44.8077L45.0317 32.4101H56.7775V59.8081C56.7775 61.9081 55.6085 63.0771 53.4735 63.0771H16.9475C14.8475 63.0771 13.6575 61.8871 13.6575 59.7941V32.4031L25.3935 32.3821L25.6175 29.9601L10.7385 29.9811C8.63851 29.9811 7.46951 28.7771 7.46251 26.6771V25.6691C7.46251 24.7521 7.46251 23.8351 7.46251 22.9111C7.45487 22.5214 7.52611 22.1341 7.67194 21.7727C7.81778 21.4112 8.0352 21.083 8.31114 20.8077C8.58708 20.5324 8.91583 20.3158 9.27764 20.1708C9.63945 20.0258 10.0268 19.9555 10.4165 19.9641H59.7385C61.8385 19.9641 63.0145 21.1611 63.0285 23.2471L62.9935 24.1081Z" fill="#235BA8" stroke="#235BA8"/>
</svg>
