<svg width="79" height="79" viewBox="0 0 79 79" fill="none" xmlns="http://www.w3.org/2000/svg">
<path d="M5.41742 52.1506C5.21875 46.4388 6.50614 40.7732 9.15362 35.7082C14.0676 26.395 21.6336 20.3032 31.9452 18.127C45.2442 15.3268 56.4918 19.297 65.3916 29.5384C69.6747 34.46 72.3071 40.6005 72.9186 47.0962C73.215 49.9666 73.1604 52.876 73.1916 55.762C73.1856 56.0519 73.1221 56.3376 73.0048 56.6028C72.8875 56.868 72.7188 57.1072 72.5084 57.3067C72.2981 57.5062 72.0502 57.662 71.7792 57.7651C71.5082 57.8681 71.2194 57.9163 70.9296 57.907C70.3466 57.903 69.7882 57.6718 69.373 57.2625C68.9579 56.8532 68.7188 56.2981 68.7066 55.7152C68.7066 54.0694 68.7066 52.4158 68.7066 50.77C68.6315 43.7339 66.0332 36.9586 61.3844 31.6765C56.7356 26.3944 50.3451 22.9565 43.3756 21.9882C36.4061 21.02 29.3205 22.5857 23.4079 26.4005C17.4953 30.2153 13.1485 36.0258 11.1582 42.775C10.2959 45.7359 9.88305 48.8096 9.93362 51.8932C9.93362 53.1178 9.93362 54.3424 9.93362 55.5592C9.93362 56.157 9.69612 56.7304 9.27338 57.1531C8.85063 57.5759 8.27727 57.8134 7.67942 57.8134C7.08157 57.8134 6.5082 57.5759 6.08546 57.1531C5.66271 56.7304 5.42522 56.157 5.42522 55.5592C5.40962 54.5452 5.41742 53.539 5.41742 52.1506Z" fill="#009E87"/>
<path d="M64.1984 52.7513C64.1984 53.6873 64.1984 54.6311 64.1984 55.5749C64.2165 55.8826 64.1715 56.1907 64.0662 56.4804C63.9609 56.7701 63.7975 57.0352 63.586 57.2595C63.3746 57.4837 63.1195 57.6624 62.8365 57.7845C62.5535 57.9067 62.2485 57.9697 61.9403 57.9697C61.632 57.9697 61.3271 57.9067 61.0441 57.7845C60.761 57.6624 60.506 57.4837 60.2945 57.2595C60.0831 57.0352 59.9197 56.7701 59.8144 56.4804C59.7091 56.1907 59.6641 55.8826 59.6822 55.5749C59.6354 53.3909 59.6822 51.1913 59.534 49.0229C59.0844 44.6079 57.199 40.4623 54.167 37.2218C51.135 33.9812 47.1237 31.8247 42.7484 31.0829C31.61 29.3513 21.5012 36.3401 19.403 47.3849C18.9662 49.6469 19.1144 52.0181 19.0052 54.3425C19.0052 54.8339 19.0052 55.3331 19.0052 55.8245C18.9598 56.3934 18.7003 56.924 18.279 57.309C17.8577 57.6941 17.3061 57.905 16.7354 57.8993C16.1741 57.9045 15.6321 57.695 15.2202 57.3137C14.8084 56.9323 14.558 56.4079 14.5202 55.8479C14.4734 51.9479 14.2628 48.0479 15.4718 44.3039C18.5918 34.6241 25.0502 28.5479 35.0498 26.7149C41.4389 25.5345 48.0355 26.9312 53.398 30.5997C58.7604 34.2683 62.4527 39.9103 63.668 46.2929C64.0015 48.425 64.2254 50.5728 64.3388 52.7279L64.1984 52.7513Z" fill="#FFB81C"/>
<path d="M23.498 52.8923C23.2673 49.8301 23.8541 46.7615 25.1984 44.0003C26.6986 41.049 29.0845 38.641 32.0218 37.1136C34.9591 35.5862 38.3007 35.0159 41.5784 35.4827C44.8714 35.9354 47.9338 37.4281 50.319 39.7432C52.7042 42.0582 54.2876 45.0747 54.8384 48.3527C55.113 50.8517 55.2043 53.3675 55.1114 55.8798C55.0916 56.1665 55.0153 56.4465 54.8867 56.7036C54.7582 56.9607 54.58 57.1897 54.3624 57.3776C54.1449 57.5654 53.8922 57.7083 53.6192 57.7979C53.3461 57.8876 53.0579 57.9223 52.7714 57.8999C52.2004 57.8805 51.6581 57.645 51.2541 57.241C50.8501 56.837 50.6146 56.2947 50.5952 55.7237C50.5952 54.2183 50.5952 52.713 50.5952 51.2076C50.6572 48.208 49.5252 45.3066 47.448 43.1416C45.3709 40.9767 42.5188 39.7256 39.5192 39.6636C36.5196 39.6015 33.6182 40.7336 31.4533 42.8107C29.2883 44.8879 28.0372 47.7399 27.9752 50.7395C27.9752 52.2995 27.9752 53.8595 27.9752 55.4195C28.0074 55.7354 27.9729 56.0545 27.8741 56.3562C27.7753 56.6579 27.6143 56.9356 27.4015 57.1712C27.1887 57.4068 26.9288 57.5951 26.6386 57.724C26.3485 57.8529 26.0346 57.9195 25.7171 57.9195C25.3996 57.9195 25.0856 57.8529 24.7955 57.724C24.5053 57.5951 24.2455 57.4068 24.0327 57.1712C23.8199 56.9356 23.6588 56.6579 23.56 56.3562C23.4612 56.0545 23.4268 55.7354 23.459 55.4195L23.498 52.8923Z" fill="#235BA8"/>
</svg>
