<svg width="61" height="61" viewBox="0 0 61 61" fill="none" xmlns="http://www.w3.org/2000/svg">
<g clip-path="url(#clip0_100_602)">
<path d="M39.8549 33.2676L40.1214 33.174C40.6904 32.9723 41.2666 32.7635 41.8355 32.5474C42.2247 32.4529 42.5708 32.2305 42.8183 31.9157C43.0658 31.6009 43.2004 31.2121 43.2004 30.8116C43.2004 30.4112 43.0658 30.0224 42.8183 29.7076C42.5708 29.3928 42.2247 29.1703 41.8355 29.0759L37.6654 27.5706C35.3558 26.7723 33.2529 25.4701 31.5089 23.7585C29.7648 22.0469 28.4235 19.9687 27.5821 17.6745C27.2219 16.7382 26.8618 15.8019 26.5521 14.8512L25.9759 13.2451C25.8272 12.7759 25.5381 12.3636 25.1477 12.0639C24.8605 11.8866 24.527 11.7989 24.1898 11.8118C23.6568 11.8118 22.9005 11.9775 22.4468 13.2523C22.3099 13.6124 22.1875 13.9725 22.0579 14.3398L21.6329 15.5138C21.3952 16.1764 21.1576 16.839 20.9127 17.4945C20.101 19.7691 18.7989 21.8373 17.0987 23.5525C15.3985 25.2677 13.3417 26.5878 11.0742 27.4193C10.2604 27.7362 9.4321 28.0315 8.60383 28.3268L8.22211 28.4637C7.63871 28.6653 7.06253 28.8742 6.48634 29.0903C6.11114 29.197 5.78096 29.4231 5.54587 29.7344C5.31078 30.0457 5.18359 30.4252 5.18359 30.8152C5.18359 31.2053 5.31078 31.5848 5.54587 31.8961C5.78096 32.2073 6.11114 32.4335 6.48634 32.5402L10.2028 33.8726L10.4116 33.9519C12.8881 34.7665 15.1385 36.1517 16.9813 37.9958C18.8241 39.8398 20.2078 42.0911 21.0207 44.5682C21.4889 45.8862 21.957 47.1898 22.4612 48.4934C22.5636 48.8787 22.7895 49.2198 23.1043 49.4644C23.4192 49.709 23.8055 49.8435 24.2042 49.8475C24.5991 49.8469 24.9826 49.715 25.2942 49.4724C25.6059 49.2299 25.828 48.8905 25.9255 48.5079C26.1416 47.9173 26.3577 47.3339 26.5665 46.7433L27.4308 44.3449C28.1143 42.28 29.2098 40.3753 30.6508 38.7462C32.0918 37.117 33.8484 35.7971 35.8144 34.8666C37.1319 34.2622 38.4806 33.7285 39.8549 33.2676ZM38.7889 30.8116L36.9812 31.4887C34.166 32.4492 31.6086 34.0427 29.5059 36.1467C27.4032 38.2506 25.8112 40.8089 24.8524 43.6246L24.1825 45.4613L23.5055 43.6246C22.5412 40.8116 20.9463 38.2562 18.8429 36.1541C16.7395 34.0519 14.1832 32.4586 11.3695 31.4959L9.55454 30.8188L11.3695 30.1634C14.1891 29.2009 16.7498 27.6034 18.854 25.4942C20.9583 23.385 22.5497 20.8205 23.5055 17.9986L24.1753 16.162L24.8524 17.9986C25.8123 20.8171 27.4043 23.3786 29.5065 25.4871C31.6088 27.5956 34.1656 29.1952 36.9812 30.1634L38.7889 30.8116Z" fill="#235BA8" stroke="#235BA8" stroke-width="0.5"/>
<path d="M53.9004 49.1774L52.748 48.7597C52.3158 48.6012 51.8837 48.45 51.4588 48.2843C50.3746 47.8771 49.3919 47.2391 48.5786 46.4146C47.7653 45.5901 47.1408 44.5988 46.7484 43.5091C46.6116 43.1418 46.4747 42.7889 46.3451 42.4C46.2154 42.0111 46.0714 41.6293 45.9273 41.2476C45.8555 40.9984 45.7046 40.7794 45.4974 40.6235C45.2901 40.4676 45.0379 40.3833 44.7786 40.3833C44.5192 40.3833 44.267 40.4676 44.0598 40.6235C43.8525 40.7794 43.7016 40.9984 43.6298 41.2476C43.4929 41.6149 43.3633 41.9678 43.2337 42.3424C43.104 42.7169 42.9528 43.1202 42.8015 43.5091C42.3942 44.6316 41.7411 45.6487 40.8899 46.4862C40.0388 47.3236 39.0112 47.9601 37.8823 48.3491L37.0396 48.6516L35.8152 49.1126C35.5544 49.1806 35.3225 49.3308 35.1539 49.5409C34.9852 49.7511 34.8888 50.0101 34.8789 50.2794C34.8789 50.481 34.8789 51.1004 35.808 51.4606L36.9388 51.8711C37.2917 51.9935 37.659 52.1232 38.0047 52.26C39.1067 52.6549 40.1083 53.2874 40.9385 54.1126C41.7687 54.9379 42.4072 55.9356 42.8087 57.0352C42.9528 57.4169 43.0896 57.7554 43.2192 58.1732C43.3489 58.5909 43.5001 58.9582 43.6514 59.3471C43.7243 59.5903 43.8722 59.8041 44.074 59.9581C44.2758 60.112 44.5212 60.1982 44.775 60.2042C45.029 60.1956 45.274 60.1075 45.4755 59.9525C45.677 59.7975 45.825 59.5833 45.8985 59.34C46.0786 58.8862 46.237 58.4325 46.4027 57.9787L46.698 57.1576C47.0906 56.0289 47.7311 55.0025 48.5724 54.1538C49.4137 53.305 50.4344 52.6555 51.5596 52.2528L52.5607 51.8855C53.0145 51.727 53.4682 51.5686 53.9148 51.3885C54.1582 51.291 54.3616 51.1143 54.4923 50.8869C54.623 50.6595 54.6732 50.3948 54.635 50.1353C54.6199 49.9212 54.5423 49.7163 54.4116 49.546C54.281 49.3756 54.1032 49.2475 53.9004 49.1774ZM49.3196 51.1941C47.8429 52.082 46.6063 53.3185 45.7185 54.7953L44.811 56.3294L43.8747 54.8169C42.9898 53.3377 41.7527 52.1005 40.2735 51.2157L38.7394 50.3298L40.2519 49.4007C41.7299 48.5144 42.9668 47.2776 43.8531 45.7995L44.7678 44.2726L45.6969 45.7923C46.581 47.272 47.8183 48.5094 49.298 49.3935L50.8177 50.301L49.3196 51.1941Z" fill="#009E87" stroke="#009E87" stroke-width="0.25"/>
<path d="M35.8144 12.5104L37.0676 12.9642L37.9463 13.2811C39.0643 13.6683 40.082 14.2997 40.9254 15.1295C41.7688 15.9592 42.4168 16.9664 42.8223 18.0778C42.9808 18.4884 43.1248 18.8917 43.2689 19.3022C43.4129 19.7128 43.521 20.0225 43.6506 20.3466C43.7088 20.6049 43.8547 20.835 44.0635 20.9979C44.2723 21.1607 44.5311 21.2462 44.7958 21.2397C45.0654 21.2484 45.3297 21.1635 45.5437 20.9994C45.7577 20.8352 45.9083 20.602 45.9698 20.3394C46.1066 19.9793 46.2363 19.6191 46.3587 19.2446C46.4811 18.8701 46.6252 18.5244 46.762 18.1355C47.1535 17.0433 47.7783 16.0496 48.5931 15.2237C49.4078 14.3978 50.3929 13.7594 51.4796 13.3531C51.8901 13.1874 52.315 13.0362 52.7328 12.8921C53.1505 12.7481 53.489 12.6256 53.8636 12.4816C54.1129 12.408 54.3305 12.2532 54.4819 12.0418C54.6332 11.8305 54.7097 11.5746 54.699 11.3148C54.6955 11.0589 54.6074 10.8113 54.4485 10.6107C54.2895 10.41 54.0687 10.2676 53.8203 10.2057C53.453 10.0616 53.1001 9.93196 52.7184 9.80232C52.3367 9.67268 51.8973 9.50702 51.494 9.34857C50.396 8.94161 49.4003 8.29945 48.5767 7.46711C47.753 6.63477 47.1214 5.63238 46.726 4.53019C46.6108 4.22049 46.4955 3.90358 46.3875 3.58668C46.2146 3.11132 46.049 2.64317 45.8617 2.14621C45.7915 1.94609 45.6638 1.77108 45.4948 1.643C45.3257 1.51492 45.1227 1.43944 44.911 1.42597C44.6421 1.40127 44.3726 1.46727 44.1455 1.61345C43.9184 1.75964 43.7467 1.9776 43.6578 2.23263C43.5066 2.62876 43.3625 3.02489 43.2185 3.42823C43.0744 3.83156 42.9376 4.22049 42.7863 4.60941C42.3853 5.69696 41.7524 6.68419 40.9315 7.50257C40.1107 8.32094 39.1215 8.95086 38.0328 9.34857L36.8948 9.76631C36.5203 9.90315 36.1745 10.0328 35.7712 10.1768C35.5073 10.2396 35.2731 10.3913 35.1078 10.6064C34.9425 10.8215 34.8564 11.0869 34.8637 11.358C34.8786 11.6264 34.9789 11.8829 35.1499 12.0903C35.321 12.2976 35.5538 12.4448 35.8144 12.5104ZM40.2871 10.4217C41.761 9.53016 42.9967 8.29445 43.8883 6.82054L44.803 5.30804L45.7249 6.81334C46.6083 8.29363 47.8458 9.53113 49.3261 10.4145L50.853 11.3292L49.3405 12.2583C47.8649 13.1478 46.6288 14.384 45.7393 15.8595L44.8174 17.372L43.8955 15.8595C43.0039 14.3856 41.7682 13.1499 40.2943 12.2583L38.7962 11.3436L40.2871 10.4217Z" fill="#FFB81C" stroke="#FFB81C" stroke-width="0.5"/>
</g>
<defs>
<clipPath id="clip0_100_602">
<rect width="60" height="60" fill="white" transform="translate(0.0332031 0.871582)"/>
</clipPath>
</defs>
</svg>
