<svg width="20" height="20" viewBox="0 0 20 20" fill="none" xmlns="http://www.w3.org/2000/svg">
<path d="M14.167 11.6666C14.6272 11.6666 15.0003 11.2935 15.0003 10.8333C15.0003 10.373 14.6272 9.99992 14.167 9.99992C13.7068 9.99992 13.3337 10.373 13.3337 10.8333C13.3337 11.2935 13.7068 11.6666 14.167 11.6666Z" fill="currentColor"/>
<path d="M14.167 14.9999C14.6272 14.9999 15.0003 14.6268 15.0003 14.1666C15.0003 13.7063 14.6272 13.3333 14.167 13.3333C13.7068 13.3333 13.3337 13.7063 13.3337 14.1666C13.3337 14.6268 13.7068 14.9999 14.167 14.9999Z" fill="currentColor"/>
<path d="M10.8337 10.8333C10.8337 11.2935 10.4606 11.6666 10.0003 11.6666C9.54009 11.6666 9.16699 11.2935 9.16699 10.8333C9.16699 10.373 9.54009 9.99992 10.0003 9.99992C10.4606 9.99992 10.8337 10.373 10.8337 10.8333Z" fill="currentColor"/>
<path d="M10.8337 14.1666C10.8337 14.6268 10.4606 14.9999 10.0003 14.9999C9.54009 14.9999 9.16699 14.6268 9.16699 14.1666C9.16699 13.7063 9.54009 13.3333 10.0003 13.3333C10.4606 13.3333 10.8337 13.7063 10.8337 14.1666Z" fill="currentColor"/>
<path d="M5.83366 11.6666C6.2939 11.6666 6.66699 11.2935 6.66699 10.8333C6.66699 10.373 6.2939 9.99992 5.83366 9.99992C5.37342 9.99992 5.00033 10.373 5.00033 10.8333C5.00033 11.2935 5.37342 11.6666 5.83366 11.6666Z" fill="currentColor"/>
<path d="M5.83366 14.9999C6.2939 14.9999 6.66699 14.6268 6.66699 14.1666C6.66699 13.7063 6.2939 13.3333 5.83366 13.3333C5.37342 13.3333 5.00033 13.7063 5.00033 14.1666C5.00033 14.6268 5.37342 14.9999 5.83366 14.9999Z" fill="currentColor"/>
<path fill-rule="evenodd" clip-rule="evenodd" d="M5.83366 1.45825C6.17884 1.45825 6.45866 1.73807 6.45866 2.08325V2.71885C7.01032 2.70824 7.6181 2.70825 8.28654 2.70825H11.714C12.3825 2.70825 12.9903 2.70824 13.542 2.71885V2.08325C13.542 1.73807 13.8218 1.45825 14.167 1.45825C14.5122 1.45825 14.792 1.73807 14.792 2.08325V2.77249C15.0086 2.78901 15.2137 2.80977 15.4078 2.83586C16.3849 2.96722 17.1757 3.24398 17.7993 3.86762C18.4229 4.49126 18.6997 5.28205 18.831 6.25907C18.9587 7.2084 18.9587 8.42142 18.9587 9.95287V11.7136C18.9587 13.245 18.9587 14.4581 18.831 15.4074C18.6997 16.3845 18.4229 17.1752 17.7993 17.7989C17.1757 18.4225 16.3849 18.6993 15.4078 18.8306C14.4585 18.9583 13.2455 18.9583 11.714 18.9583H8.28665C6.7552 18.9583 5.54215 18.9583 4.59281 18.8306C3.61579 18.6993 2.825 18.4225 2.20136 17.7989C1.57773 17.1752 1.30096 16.3845 1.1696 15.4074C1.04197 14.4581 1.04198 13.2451 1.04199 11.7136V9.9529C1.04198 8.42144 1.04197 7.20841 1.1696 6.25907C1.30096 5.28205 1.57773 4.49126 2.20136 3.86762C2.825 3.24398 3.61579 2.96722 4.59281 2.83586C4.78691 2.80977 4.99204 2.78901 5.20866 2.77249V2.08325C5.20866 1.73807 5.48848 1.45825 5.83366 1.45825ZM4.75937 4.07472C3.92096 4.18744 3.43792 4.39883 3.08525 4.7515C2.73257 5.10418 2.52118 5.58722 2.40846 6.42562C2.38937 6.56761 2.37341 6.71709 2.36006 6.87492H17.6406C17.6272 6.71709 17.6113 6.56761 17.5922 6.42563C17.4795 5.58722 17.2681 5.10418 16.9154 4.7515C16.5627 4.39883 16.0797 4.18744 15.2413 4.07472C14.3849 3.95958 13.256 3.95825 11.667 3.95825H8.33366C6.74464 3.95825 5.61575 3.95958 4.75937 4.07472ZM2.29199 9.99992C2.29199 9.28824 2.29226 8.66886 2.3029 8.12492H17.6978C17.7084 8.66886 17.7087 9.28824 17.7087 9.99992V11.6666C17.7087 13.2556 17.7073 14.3845 17.5922 15.2409C17.4795 16.0793 17.2681 16.5623 16.9154 16.915C16.5627 17.2677 16.0797 17.4791 15.2413 17.5918C14.3849 17.7069 13.256 17.7083 11.667 17.7083H8.33366C6.74464 17.7083 5.61575 17.7069 4.75937 17.5918C3.92096 17.4791 3.43792 17.2677 3.08525 16.915C2.73257 16.5623 2.52118 16.0793 2.40846 15.2409C2.29332 14.3845 2.29199 13.2556 2.29199 11.6666V9.99992Z" fill="currentColor"/>
</svg>
