<svg width="20" height="20" viewBox="0 0 20 20" fill="none" xmlns="http://www.w3.org/2000/svg">
<path fill-rule="evenodd" clip-rule="evenodd" d="M5.83268 1.45801C6.17786 1.45801 6.45768 1.73783 6.45768 2.08301V2.71861C7.00937 2.708 7.61719 2.708 8.28567 2.70801H11.713C12.3815 2.708 12.9893 2.708 13.541 2.71861V2.08301C13.541 1.73783 13.8208 1.45801 14.166 1.45801C14.5112 1.45801 14.791 1.73783 14.791 2.08301V2.77225C15.0076 2.78876 15.2128 2.80952 15.4069 2.83562C16.3839 2.96698 17.1747 3.24374 17.7983 3.86738C18.4219 4.49101 18.6987 5.2818 18.8301 6.25882C18.872 6.57106 18.9002 6.91183 18.9191 7.28307C18.9441 7.35056 18.9577 7.42352 18.9577 7.49967C18.9577 7.55744 18.9498 7.61338 18.9352 7.66648C18.9577 8.33479 18.9577 9.09363 18.9577 9.95267V11.7134C18.9577 13.2448 18.9577 14.4578 18.8301 15.4072C18.6987 16.3842 18.4219 17.175 17.7983 17.7986C17.1747 18.4223 16.3839 18.699 15.4069 18.8304C14.4575 18.958 13.2445 18.958 11.713 18.958H8.28567C6.75421 18.958 5.54118 18.958 4.59183 18.8304C3.61481 18.699 2.82402 18.4223 2.20039 17.7986C1.57675 17.175 1.29999 16.3842 1.16863 15.4072C1.04099 14.4578 1.041 13.2448 1.04102 11.7134V9.95266C1.04101 9.09363 1.041 8.33479 1.06352 7.66648C1.04885 7.61338 1.04102 7.55744 1.04102 7.49967C1.04102 7.42352 1.05464 7.35055 1.07957 7.28306C1.09848 6.91182 1.12665 6.57106 1.16863 6.25882C1.29999 5.2818 1.57675 4.49101 2.20039 3.86738C2.82402 3.24374 3.61481 2.96698 4.59183 2.83562C4.78594 2.80952 4.99106 2.78876 5.20768 2.77225V2.08301C5.20768 1.73783 5.4875 1.45801 5.83268 1.45801ZM2.30192 8.12467C2.29128 8.66861 2.29102 9.288 2.29102 9.99967V11.6663C2.29102 13.2554 2.29234 14.3842 2.40748 15.2406C2.5202 16.079 2.73159 16.5621 3.08427 16.9148C3.43694 17.2674 3.91998 17.4788 4.75839 17.5915C5.61478 17.7067 6.74367 17.708 8.33268 17.708H11.666C13.255 17.708 14.3839 17.7067 15.2403 17.5915C16.0787 17.4788 16.5618 17.2674 16.9144 16.9148C17.2671 16.5621 17.4785 16.079 17.5912 15.2406C17.7064 14.3842 17.7077 13.2554 17.7077 11.6663V9.99967C17.7077 9.288 17.7074 8.66861 17.6968 8.12467H2.30192ZM17.6396 6.87467H2.35909C2.37243 6.71685 2.38839 6.56737 2.40748 6.42538C2.5202 5.58697 2.73159 5.10394 3.08427 4.75126C3.43694 4.39859 3.91998 4.18719 4.75839 4.07447C5.61478 3.95934 6.74367 3.95801 8.33268 3.95801H11.666C13.255 3.95801 14.3839 3.95934 15.2403 4.07447C16.0787 4.18719 16.5618 4.39859 16.9144 4.75126C17.2671 5.10394 17.4785 5.58697 17.5912 6.42538C17.6103 6.56737 17.6263 6.71685 17.6396 6.87467ZM13.7493 13.1247C13.4042 13.1247 13.1243 13.4045 13.1243 13.7497C13.1243 14.0949 13.4042 14.3747 13.7493 14.3747C14.0945 14.3747 14.3743 14.0949 14.3743 13.7497C14.3743 13.4045 14.0945 13.1247 13.7493 13.1247ZM11.8743 13.7497C11.8743 12.7141 12.7138 11.8747 13.7493 11.8747C14.7849 11.8747 15.6243 12.7141 15.6243 13.7497C15.6243 14.7852 14.7849 15.6247 13.7493 15.6247C12.7138 15.6247 11.8743 14.7852 11.8743 13.7497Z" fill="#1C274C"/>
</svg>
