<svg xmlns="http://www.w3.org/2000/svg" width="20" height="21" viewBox="0 0 20 21" fill="none">
  <path fill-rule="evenodd" clip-rule="evenodd" d="M9.99967 2.25476C6.31778 2.25476 3.33301 5.59025 3.33301 9.33809C3.33301 13.0566 5.46078 17.0984 8.78056 18.6501C9.55446 19.0119 10.4449 19.0119 11.2188 18.6501C14.5386 17.0984 16.6663 13.0566 16.6663 9.33809C16.6663 5.59025 13.6816 2.25476 9.99967 2.25476ZM9.99967 10.5881C10.9201 10.5881 11.6663 9.8419 11.6663 8.92143C11.6663 8.00095 10.9201 7.25476 9.99967 7.25476C9.0792 7.25476 8.33301 8.00095 8.33301 8.92143C8.33301 9.8419 9.0792 10.5881 9.99967 10.5881Z" fill="#235BA8"/>
</svg>