<svg width="41" height="40" viewBox="0 0 41 40" fill="none" xmlns="http://www.w3.org/2000/svg">
<path d="M16.8101 6.50005C17.3754 5.94063 18.0106 5.45662 18.7001 5.06005C19.2626 4.79321 19.8774 4.65479 20.5001 4.65479C21.1227 4.65479 21.7375 4.79321 22.3001 5.06005C22.9895 5.45662 23.6247 5.94063 24.1901 6.50005C24.5701 6.81005 24.7601 6.97005 24.9601 7.11005C25.4256 7.41982 25.9497 7.63083 26.5001 7.73005C26.8307 7.78823 27.1647 7.82497 27.5001 7.84005C28.2937 7.85639 29.0826 7.96717 29.8501 8.17005C30.4367 8.37612 30.9695 8.71136 31.4091 9.151C31.8487 9.59064 32.184 10.1234 32.3901 10.7101C32.5982 11.4764 32.709 12.266 32.7201 13.0601C32.7351 13.3954 32.7719 13.7294 32.8301 14.0601C32.9332 14.5999 33.144 15.1135 33.4501 15.5701C33.5901 15.7701 33.7501 15.9601 34.0701 16.3401C34.6241 16.9076 35.1045 17.5426 35.5001 18.2301C35.7669 18.7926 35.9053 19.4074 35.9053 20.0301C35.9053 20.6527 35.7669 21.2675 35.5001 21.8301C35.1045 22.5175 34.6241 23.1525 34.0701 23.7201C33.7501 24.1001 33.5901 24.2901 33.4501 24.4901C33.1228 24.9417 32.8914 25.4556 32.7701 26.0001C32.7119 26.3307 32.6751 26.6647 32.6601 27.0001C32.649 27.7941 32.5382 28.5837 32.3301 29.3501C32.124 29.9367 31.7887 30.4695 31.3491 30.9091C30.9095 31.3487 30.3767 31.684 29.7901 31.8901C29.0237 32.0982 28.2341 32.209 27.4401 32.2201C27.1047 32.2351 26.7707 32.2719 26.4401 32.3301C25.9002 32.4332 25.3866 32.644 24.9301 32.9501C24.7301 33.0901 24.5401 33.2501 24.1601 33.5701C23.5925 34.1241 22.9575 34.6045 22.2701 35.0001C21.7075 35.2669 21.0927 35.4053 20.4701 35.4053C19.8474 35.4053 19.2326 35.2669 18.6701 35.0001C17.9826 34.6045 17.3476 34.1241 16.7801 33.5701C16.4001 33.2501 16.2101 33.0901 16.0101 32.9501C15.5584 32.6228 15.0445 32.3914 14.5001 32.2701C14.1694 32.2119 13.8354 32.1751 13.5001 32.1601C12.706 32.149 11.9164 32.0382 11.1501 31.8301C10.5634 31.624 10.0306 31.2887 9.591 30.8491C9.15136 30.4095 8.81612 29.8767 8.61005 29.2901C8.40717 28.5226 8.29639 27.7337 8.28005 26.9401C8.26497 26.6047 8.22823 26.2707 8.17005 25.9401C8.06695 25.4002 7.85608 24.8866 7.55005 24.4301C7.41005 24.2301 7.25005 24.0401 6.94005 23.6601C6.40378 23.1005 5.94013 22.4755 5.56005 21.8001C5.29321 21.2375 5.15479 20.6227 5.15479 20.0001C5.15479 19.3774 5.29321 18.7626 5.56005 18.2001C5.95662 17.5106 6.44063 16.8754 7.00005 16.3101C7.31005 15.9301 7.47005 15.7401 7.61005 15.5401C7.91982 15.0745 8.13083 14.5504 8.23005 14.0001C8.28823 13.6694 8.32497 13.3354 8.34005 13.0001C8.35639 12.2064 8.46717 11.4175 8.67005 10.6501C8.87612 10.0634 9.21136 9.53064 9.651 9.091C10.0906 8.65136 10.6234 8.31612 11.2101 8.11005C11.9775 7.90717 12.7664 7.79639 13.5601 7.78005C13.8954 7.76497 14.2294 7.72823 14.5601 7.67005C15.0999 7.56695 15.6135 7.35608 16.0701 7.05005C16.2401 7.00005 16.4301 6.81005 16.8101 6.50005Z" stroke="#2B5EAA" stroke-width="2" stroke-miterlimit="10"/>
<path d="M14.67 25.8299L26.33 14.1699" stroke="#129B86" stroke-width="2" stroke-linecap="round" stroke-linejoin="round"/>
<path d="M26.41 24.1599C26.41 24.506 26.3074 24.8444 26.1151 25.1322C25.9228 25.4199 25.6495 25.6442 25.3297 25.7767C25.01 25.9092 24.6581 25.9438 24.3186 25.8763C23.9792 25.8088 23.6673 25.6421 23.4226 25.3973C23.1779 25.1526 23.0112 24.8408 22.9437 24.5013C22.8761 24.1619 22.9108 23.81 23.0432 23.4902C23.1757 23.1704 23.4 22.8971 23.6878 22.7048C23.9756 22.5125 24.3139 22.4099 24.66 22.4099C25.1242 22.4099 25.5693 22.5943 25.8975 22.9225C26.2257 23.2507 26.41 23.6958 26.41 24.1599Z" fill="#F8BC29"/>
<path d="M18.09 15.8401C18.09 16.1862 17.9873 16.5245 17.795 16.8123C17.6027 17.1001 17.3294 17.3244 17.0097 17.4569C16.6899 17.5893 16.338 17.624 15.9986 17.5565C15.6591 17.4889 15.3473 17.3223 15.1025 17.0775C14.8578 16.8328 14.6911 16.521 14.6236 16.1815C14.5561 15.842 14.5907 15.4902 14.7232 15.1704C14.8556 14.8506 15.0799 14.5773 15.3677 14.385C15.6555 14.1927 15.9938 14.0901 16.34 14.0901C16.8033 14.0927 17.2469 14.2779 17.5745 14.6056C17.9021 14.9332 18.0873 15.3768 18.09 15.8401Z" fill="#F8BC29"/>
</svg>
