<svg width="20" height="24" viewBox="0 0 20 24" fill="none" xmlns="http://www.w3.org/2000/svg">
<path d="M15.5 5.99999H19.4C19.4495 6.00008 19.4979 5.98546 19.5391 5.958C19.5803 5.93053 19.6124 5.89146 19.6314 5.84572C19.6503 5.79998 19.6553 5.74965 19.6456 5.70109C19.6359 5.65254 19.6121 5.60795 19.577 5.57299L14.427 0.426988C14.3923 0.392167 14.3481 0.36836 14.2999 0.358545C14.2517 0.348731 14.2017 0.353345 14.1561 0.37181C14.1105 0.390276 14.0714 0.421772 14.0436 0.462358C14.0159 0.502944 14.0007 0.550818 14 0.599988V4.49999C14 4.89781 14.158 5.27934 14.4393 5.56065C14.7206 5.84195 15.1022 5.99999 15.5 5.99999Z" fill="#1A99F4"/>
<path d="M19.9268 7.07322C19.9737 7.12011 20 7.1837 20 7.25V22C20 22.5304 19.7893 23.0391 19.4142 23.4142C19.0391 23.7893 18.5304 24 18 24H2C1.46957 24 0.960859 23.7893 0.585786 23.4142C0.210714 23.0391 0 22.5304 0 22V2C0 1.46957 0.210714 0.960859 0.585786 0.585786C0.960859 0.210714 1.46957 0 2 0H12.75C12.8163 0 12.8799 0.0263392 12.9268 0.0732233C12.9737 0.120107 13 0.183696 13 0.25V4.5C13 5.16304 13.2634 5.79893 13.7322 6.26777C14.2011 6.73661 14.837 7 15.5 7H19.75C19.8163 7 19.8799 7.02634 19.9268 7.07322Z" fill="#1A99F4"/>
<path d="M6.61875 18.6H8.31094L9.37969 14.5406H9.4125L10.4859 18.6H12.1781L13.9453 11.8359H12.1688L11.25 16.3078H11.2172L10.1203 11.8359H8.67656L7.57969 16.3078H7.54688L6.62813 11.8359H4.85156L6.61875 18.6Z" fill="white"/>
</svg>
