<svg width="16" height="16" viewBox="0 0 16 16" fill="none" xmlns="http://www.w3.org/2000/svg">
<path d="M8.44204 11.6051C8.32837 11.7294 8.16768 11.8002 7.99922 11.8002C7.83077 11.8002 7.67007 11.7294 7.5564 11.6051L4.3564 8.10506C4.1328 7.8605 4.1498 7.48098 4.39436 7.25738C4.63892 7.03378 5.01844 7.05077 5.24204 7.29533L7.39922 9.65475V0.800195C7.39922 0.468825 7.66785 0.200195 7.99922 0.200195C8.33059 0.200195 8.59922 0.468825 8.59922 0.800195V9.65475L10.7564 7.29533C10.98 7.05077 11.3595 7.03378 11.6041 7.25738C11.8486 7.48098 11.8656 7.8605 11.642 8.10506L8.44204 11.6051Z" fill="#414141"/>
<path d="M1.39922 10.4002C1.39922 10.0688 1.13059 9.8002 0.79922 9.8002C0.467849 9.8002 0.199219 10.0688 0.199219 10.4002V10.4441C0.199203 11.5382 0.19919 12.42 0.292438 13.1136C0.389251 13.8337 0.596366 14.44 1.0779 14.9215C1.55943 15.403 2.16573 15.6102 2.88582 15.707C3.57939 15.8002 4.46125 15.8002 5.55532 15.8002H10.4431C11.5372 15.8002 12.419 15.8002 13.1126 15.707C13.8327 15.6102 14.439 15.403 14.9205 14.9215C15.4021 14.44 15.6092 13.8337 15.706 13.1136C15.7993 12.42 15.7992 11.5382 15.7992 10.4441V10.4002C15.7992 10.0688 15.5306 9.8002 15.1992 9.8002C14.8679 9.8002 14.5992 10.0688 14.5992 10.4002C14.5992 11.5485 14.5979 12.3494 14.5167 12.9537C14.4378 13.5407 14.2934 13.8516 14.072 14.073C13.8506 14.2944 13.5397 14.4388 12.9527 14.5177C12.3484 14.5989 11.5476 14.6002 10.3992 14.6002H5.59922C4.45089 14.6002 3.65 14.5989 3.04572 14.5177C2.4587 14.4388 2.14784 14.2944 1.92643 14.073C1.70502 13.8516 1.56066 13.5407 1.48174 12.9537C1.40049 12.3494 1.39922 11.5485 1.39922 10.4002Z" fill="#414141"/>
</svg>
