<svg width="21" height="21" viewBox="0 0 21 21" fill="none" xmlns="http://www.w3.org/2000/svg">
<path d="M13.0763 3.27474C13.2346 3.27474 13.393 3.33307 13.518 3.45807C13.7596 3.69974 13.7596 4.09974 13.518 4.34141L8.08463 9.77474C7.68463 10.1747 7.68463 10.8247 8.08463 11.2247L13.518 16.6581C13.7596 16.8997 13.7596 17.2997 13.518 17.5414C13.2763 17.7831 12.8763 17.7831 12.6346 17.5414L7.2013 12.1081C6.7763 11.6831 6.53463 11.1081 6.53463 10.4997C6.53463 9.89141 6.76797 9.31641 7.2013 8.89141L12.6346 3.45807C12.7596 3.3414 12.918 3.27474 13.0763 3.27474Z" fill="white"/>
</svg>
