<svg width="21" height="20" viewBox="0 0 21 20" fill="none" xmlns="http://www.w3.org/2000/svg">
<path fill-rule="evenodd" clip-rule="evenodd" d="M10.1622 1C15.1294 1 19.1621 5.03275 19.1621 9.99994C19.1621 14.9673 15.1294 19 10.1622 19C5.19499 19 1.16211 14.9673 1.16211 9.99994C1.16211 5.03275 5.19499 1 10.1622 1ZM10.1622 1.7803C14.6988 1.7803 18.3818 5.46335 18.3818 9.99994C18.3818 14.5365 14.6988 18.2197 10.1622 18.2197C5.6256 18.2197 1.94241 14.5365 1.94241 9.99994C1.94241 5.46335 5.6256 1.7803 10.1622 1.7803Z" fill="#909090"/>
<path fill-rule="evenodd" clip-rule="evenodd" d="M10.4167 14.3565C10.3569 14.4375 10.2622 14.4854 10.1615 14.4854C10.0609 14.4854 9.96616 14.4375 9.90632 14.3565C9.18318 13.3764 7.11736 10.5765 6.26682 9.42373C6.19578 9.32744 6.18499 9.19937 6.23886 9.09257C6.2928 8.98571 6.40227 8.91839 6.52195 8.91839C8.10085 8.91839 12.2222 8.91839 13.801 8.91839C13.9207 8.91839 14.0302 8.98571 14.0841 9.09257C14.1381 9.19937 14.1273 9.32744 14.0562 9.42373C13.2056 10.5765 11.1399 13.3764 10.4167 14.3565Z" fill="#909090"/>
<path fill-rule="evenodd" clip-rule="evenodd" d="M14.1184 7.2242C14.1184 7.59131 13.8203 7.88931 13.4533 7.88931H6.87022C6.50314 7.88931 6.20508 7.59131 6.20508 7.2242C6.20508 6.85714 6.50314 6.55908 6.87022 6.55908H13.4533C13.8203 6.55908 14.1184 6.85714 14.1184 7.2242Z" fill="#909090"/>
</svg>
