<svg width="19" height="19" viewBox="0 0 19 19" fill="none" xmlns="http://www.w3.org/2000/svg">
<path fill-rule="evenodd" clip-rule="evenodd" d="M2.47243 4.02907C1.59375 4.90775 1.59375 6.32196 1.59375 9.15039C1.59375 11.9788 1.59375 13.393 2.47243 14.2717C3.35111 15.1504 4.76532 15.1504 7.59375 15.1504H10.5938C13.4222 15.1504 14.8364 15.1504 15.7151 14.2717C16.5937 13.393 16.5938 11.9788 16.5938 9.15039C16.5938 6.32196 16.5937 4.90775 15.7151 4.02907C14.8364 3.15039 13.4222 3.15039 10.5938 3.15039H7.59375C4.76532 3.15039 3.35111 3.15039 2.47243 4.02907ZM14.0259 5.79029C14.2248 6.02894 14.1925 6.38364 13.9539 6.58251L12.3065 7.95532C11.6417 8.50931 11.1029 8.95833 10.6274 9.26418C10.132 9.58279 9.64956 9.78405 9.09375 9.78405C8.53794 9.78405 8.05551 9.58279 7.56013 9.26418C7.08459 8.95833 6.54578 8.50931 5.88102 7.95532L4.23365 6.58251C3.99499 6.38364 3.96275 6.02894 4.16163 5.79029C4.36051 5.55163 4.7152 5.51939 4.95385 5.71827L6.57303 7.06758C7.27275 7.65068 7.75855 8.0542 8.16869 8.31799C8.56571 8.57333 8.83495 8.65905 9.09375 8.65905C9.35255 8.65905 9.62179 8.57333 10.0188 8.31799C10.429 8.0542 10.9148 7.65068 11.6145 7.06757L13.2336 5.71827C13.4723 5.51939 13.827 5.55163 14.0259 5.79029Z" fill="#235BA8"/>
</svg>
