<svg width="25" height="25" viewBox="0 0 25 25" fill="none" xmlns="http://www.w3.org/2000/svg">
<path d="M21.875 4.1084H3.125C2.7106 4.1084 2.31317 4.27302 2.02015 4.56604C1.72712 4.85907 1.5625 5.2565 1.5625 5.6709V18.1709C1.5625 18.5853 1.72712 18.9827 2.02015 19.2758C2.31317 19.5688 2.7106 19.7334 3.125 19.7334H21.875C22.2894 19.7334 22.6868 19.5688 22.9799 19.2758C23.2729 18.9827 23.4375 18.5853 23.4375 18.1709V5.6709C23.4375 5.2565 23.2729 4.85907 22.9799 4.56604C22.6868 4.27302 22.2894 4.1084 21.875 4.1084ZM20.1562 5.6709L12.5 10.9678L4.84375 5.6709H20.1562ZM3.125 18.1709V6.38184L12.0547 12.5615C12.1855 12.6522 12.3408 12.7009 12.5 12.7009C12.6592 12.7009 12.8145 12.6522 12.9453 12.5615L21.875 6.38184V18.1709H3.125Z" fill="currentColor"/>
</svg>
