<svg width="20" height="20" viewBox="0 0 20 20" fill="none" xmlns="http://www.w3.org/2000/svg">
<path fill-rule="evenodd" clip-rule="evenodd" d="M5.64629 4.37533H14.3539C15.0342 4.37532 15.5829 4.37531 16.0272 4.41176C16.4846 4.4493 16.8863 4.52859 17.2577 4.71878C17.8413 5.01761 18.3162 5.49243 18.615 6.07603C18.8052 6.44745 18.8845 6.84917 18.922 7.30661C18.9585 7.75087 18.9585 8.29957 18.9585 8.97987V9.0067C18.9585 9.03054 18.9585 9.05455 18.9586 9.07868C18.9594 9.36041 18.9603 9.66039 18.8515 9.92858C18.758 10.1589 18.6073 10.3614 18.4136 10.5171C18.3252 10.5881 18.2273 10.6444 18.1247 10.6914C18.1223 12.035 18.1051 13.3926 17.9845 14.5557C17.9137 15.2384 17.8051 15.8793 17.6328 16.4258C17.4634 16.9634 17.2131 17.4724 16.817 17.8245C16.1308 18.4344 15.2672 18.7034 14.1891 18.8322C13.1308 18.9587 11.7744 18.9587 10.0428 18.9587H9.95745C8.22584 18.9587 6.86944 18.9587 5.81118 18.8322C4.73308 18.7034 3.86944 18.4344 3.18324 17.8245C2.78712 17.4724 2.53687 16.9634 2.3674 16.4258C2.19513 15.8793 2.08651 15.2384 2.01574 14.5557C1.89517 13.3926 1.87798 12.035 1.87552 10.6914C1.77291 10.6444 1.67503 10.5881 1.58666 10.5171C1.39294 10.3614 1.24221 10.1589 1.14877 9.92858C1.03996 9.66039 1.04083 9.36041 1.04165 9.07868C1.04172 9.05454 1.04178 9.03054 1.04178 9.0067L1.04178 8.97983C1.04178 8.29956 1.04177 7.75087 1.07822 7.30661C1.11575 6.84917 1.19505 6.44745 1.38524 6.07603C1.68407 5.49243 2.15889 5.01761 2.74249 4.71878C3.11391 4.52859 3.51562 4.4493 3.97306 4.41176C4.41733 4.37531 4.96602 4.37532 5.64629 4.37533ZM3.12686 11.0909C3.13253 12.2882 3.15663 13.4385 3.25908 14.4268C3.3256 15.0685 3.42293 15.6165 3.55957 16.05C3.69901 16.4923 3.86064 16.7542 4.0137 16.8902C4.42585 17.2566 4.99526 17.4758 5.95951 17.591C6.93493 17.7076 8.2166 17.7087 10.0001 17.7087C11.7836 17.7087 13.0653 17.7076 14.0407 17.591C15.005 17.4758 15.5744 17.2566 15.9865 16.8902C16.1396 16.7542 16.3012 16.4923 16.4407 16.05C16.5773 15.6165 16.6746 15.0685 16.7412 14.4268C16.8436 13.4385 16.8677 12.2882 16.8734 11.0909L12.7085 12.3403V12.6349C12.7085 13.0608 12.4491 13.4439 12.0537 13.6021L11.4702 13.8354C10.5265 14.2129 9.47374 14.2129 8.53003 13.8354L7.94659 13.6021C7.55111 13.4439 7.29178 13.0608 7.29178 12.6349V12.3403L3.12686 11.0909ZM7.29178 11.0353L2.79809 9.6872C2.61858 9.63335 2.51483 9.60185 2.43878 9.57305C2.39216 9.55539 2.3736 9.54502 2.36877 9.54201C2.34179 9.5201 2.32072 9.49178 2.30748 9.45964C2.30599 9.45415 2.30139 9.43339 2.29787 9.38367C2.29214 9.30254 2.29178 9.19412 2.29178 9.0067C2.29178 8.29327 2.29227 7.79595 2.32404 7.40882C2.3552 7.02904 2.41328 6.81092 2.49786 6.64575C2.67716 6.29559 2.96205 6.0107 3.31221 5.8314C3.47738 5.74682 3.69549 5.68874 4.07528 5.65758C4.4624 5.62582 4.95973 5.62533 5.67316 5.62533H14.3271C15.0405 5.62533 15.5378 5.62582 15.925 5.65758C16.3047 5.68874 16.5229 5.74682 16.688 5.8314C17.0382 6.0107 17.3231 6.29559 17.5024 6.64575C17.587 6.81092 17.645 7.02904 17.6762 7.40882C17.708 7.79595 17.7085 8.29327 17.7085 9.0067C17.7085 9.19412 17.7081 9.30254 17.7024 9.38367C17.6989 9.43338 17.6943 9.45414 17.6928 9.45964C17.6795 9.49178 17.6584 9.5201 17.6315 9.54201C17.6266 9.54502 17.6081 9.55539 17.5615 9.57305C17.4854 9.60185 17.3817 9.63335 17.2021 9.6872L12.7085 11.0353V10.8337C12.7085 10.2584 12.2421 9.79199 11.6668 9.79199H8.33345C7.75815 9.79199 7.29178 10.2584 7.29178 10.8337V11.0353ZM17.6328 9.54109L17.6315 9.54201L17.6328 9.54109ZM17.6923 9.46121L17.6928 9.45964L17.6923 9.46121ZM2.30797 9.46121L2.30748 9.45964L2.30797 9.46121ZM2.36741 9.54109L2.36877 9.54201L2.36741 9.54109ZM8.54178 11.042V12.4938L8.99427 12.6748C9.63997 12.9331 10.3603 12.9331 11.006 12.6748L11.4585 12.4938V11.042H8.54178Z" fill="#898A8D"/>
<path fill-rule="evenodd" clip-rule="evenodd" d="M10.0003 2.29199C9.18487 2.29199 8.4895 2.81285 8.23181 3.54194C8.11678 3.86739 7.7597 4.03796 7.43426 3.92293C7.10881 3.8079 6.93823 3.45083 7.05326 3.12538C7.48196 1.91248 8.63866 1.04199 10.0003 1.04199C11.3619 1.04199 12.5186 1.91248 12.9473 3.12538C13.0623 3.45083 12.8918 3.8079 12.5663 3.92293C12.2409 4.03796 11.8838 3.86739 11.7687 3.54194C11.5111 2.81285 10.8157 2.29199 10.0003 2.29199Z" fill="#898A8D"/>
</svg>
