<svg width="40" height="40" viewBox="0 0 40 40" fill="none" xmlns="http://www.w3.org/2000/svg">
<path d="M35 20.0912C35.0006 17.2077 34.1798 14.3844 32.6346 11.9556C31.0895 9.52677 28.8847 7.59419 26.2815 6.38668C23.6782 5.17916 20.7855 4.74727 17.9458 5.14216C15.1061 5.53705 12.4384 6.74217 10.2585 8.61484C8.07856 10.4875 6.47781 12.9493 5.64574 15.7087C4.81368 18.468 4.78514 21.4095 5.56352 24.1847C6.3419 26.9599 7.89459 29.4526 10.0377 31.3677C12.1809 33.2828 14.8247 34.54 17.6562 34.9906V24.4516H13.8481V20.0912H17.6562V16.7662C17.5743 15.99 17.663 15.2052 17.9162 14.4674C18.1694 13.7295 18.5808 13.0567 19.1213 12.4967C19.6618 11.9366 20.3182 11.503 21.0439 11.2266C21.7696 10.9501 22.5469 10.8376 23.3206 10.897C24.4457 10.9119 25.5681 11.0102 26.6788 11.1912V14.9085H24.7887C24.4668 14.8662 24.1395 14.8972 23.8311 14.9993C23.5226 15.1013 23.241 15.2719 23.0069 15.4982C22.7729 15.7246 22.5924 16.001 22.4789 16.307C22.3654 16.613 22.3218 16.9408 22.3512 17.266V20.095H26.5119L25.8463 24.4554H22.3438V35C25.8729 34.4384 29.0869 32.6281 31.4072 29.8949C33.7274 27.1618 35.0015 23.6853 35 20.0912Z" fill="white"/>
</svg>
