<svg width="61" height="61" viewBox="0 0 61 61" fill="none" xmlns="http://www.w3.org/2000/svg">
<path d="M49.0653 21.4696C49.0653 19.8016 49.0653 18.1096 49.0653 16.4176C49.0864 15.6416 48.801 14.8886 48.271 14.3215C47.741 13.7544 47.0089 13.4188 46.2332 13.3876C41.1234 12.8946 36.2567 10.9687 32.1932 7.83158C31.598 7.28339 30.839 6.94608 30.0333 6.87158C29.2308 6.9436 28.4721 7.26935 27.8673 7.80158C23.8564 10.9228 19.046 12.8486 13.9893 13.3576C12.0813 13.5736 11.0312 14.7196 11.0312 16.5976V24.9976H11.1033V25.5976C11.1033 26.6236 11.1033 27.6736 11.1033 28.7236C11.0553 30.9856 11.0132 33.3016 11.1752 35.5636C11.6552 41.9056 14.6553 46.7956 20.0913 50.1316C22.1913 51.3976 24.4593 52.4656 26.6253 53.5396C27.4113 53.8996 28.1973 54.2776 28.9653 54.6616C29.296 54.8311 29.6616 54.9215 30.0333 54.9256C30.5449 54.908 31.0448 54.7681 31.4912 54.5176C32.2773 54.1396 33.0392 53.7556 33.8252 53.3716C35.5173 52.5616 37.2332 51.7276 38.8772 50.8216C45.3692 47.2156 48.7772 41.6716 48.9932 34.3456C49.1372 30.0496 49.0893 25.6876 49.0653 21.4696ZM46.7073 22.1356C46.7073 26.0476 46.7073 29.9356 46.7073 33.8416C46.6353 40.6396 43.5093 45.6916 37.4793 48.9076C35.6193 49.8856 33.7113 50.8156 31.8033 51.7456L30.6873 52.2976C30.4885 52.4125 30.2628 52.4725 30.0333 52.4716C29.811 52.4738 29.5913 52.4245 29.3913 52.3276L27.6333 51.4396C25.8333 50.5816 23.9852 49.6756 22.1972 48.6976C16.4492 45.4996 13.4732 40.5916 13.3772 34.0816C13.3052 30.1216 13.3293 26.1436 13.3293 22.1836V15.7936L13.8513 15.7216C19.6168 15.1997 25.1 12.9872 29.6133 9.36158L29.9913 9.07358L30.3512 9.36158C34.8892 12.9566 40.3686 15.1651 46.1313 15.7216L46.6833 15.7936L46.7073 22.1356Z" fill="black"/>
<path d="M49.0653 21.4696C49.0653 19.8016 49.0653 18.1096 49.0653 16.4176C49.0864 15.6416 48.801 14.8886 48.271 14.3215C47.741 13.7544 47.0089 13.4188 46.2332 13.3876C41.1234 12.8946 36.2567 10.9687 32.1932 7.83158C31.598 7.28339 30.839 6.94608 30.0333 6.87158C29.2308 6.9436 28.4721 7.26935 27.8673 7.80158C23.8564 10.9228 19.046 12.8486 13.9893 13.3576C12.0813 13.5736 11.0312 14.7196 11.0312 16.5976V24.9976H11.1033V25.5976C11.1033 26.6236 11.1033 27.6736 11.1033 28.7236C11.0553 30.9856 11.0132 33.3016 11.1752 35.5636C11.6552 41.9056 14.6553 46.7956 20.0913 50.1316C22.1913 51.3976 24.4593 52.4656 26.6253 53.5396C27.4113 53.8996 28.1973 54.2776 28.9653 54.6616C29.296 54.8311 29.6616 54.9215 30.0333 54.9256C30.5449 54.908 31.0448 54.7681 31.4912 54.5176C32.2773 54.1396 33.0392 53.7556 33.8252 53.3716C35.5173 52.5616 37.2332 51.7276 38.8772 50.8216C45.3692 47.2156 48.7772 41.6716 48.9932 34.3456C49.1372 30.0496 49.0893 25.6876 49.0653 21.4696ZM46.7073 22.1356C46.7073 26.0476 46.7073 29.9356 46.7073 33.8416C46.6353 40.6396 43.5093 45.6916 37.4793 48.9076C35.6193 49.8856 33.7113 50.8156 31.8033 51.7456L30.6873 52.2976C30.4885 52.4125 30.2628 52.4725 30.0333 52.4716C29.811 52.4738 29.5913 52.4245 29.3913 52.3276L27.6333 51.4396C25.8333 50.5816 23.9852 49.6756 22.1972 48.6976C16.4492 45.4996 13.4732 40.5916 13.3772 34.0816C13.3052 30.1216 13.3293 26.1436 13.3293 22.1836V15.7936L13.8513 15.7216C19.6168 15.1997 25.1 12.9872 29.6133 9.36158L29.9913 9.07358L30.3512 9.36158C34.8892 12.9566 40.3686 15.1651 46.1313 15.7216L46.6833 15.7936L46.7073 22.1356Z" fill="#235BA8" stroke="#235BA8"/>
<g opacity="0.78">
<path d="M39.8723 25.7417C39.8715 25.9454 39.8291 26.1469 39.7476 26.3337C39.666 26.5204 39.5472 26.6885 39.3983 26.8276L29.1983 37.0276C28.9029 37.3037 28.5165 37.4617 28.1123 37.4717C27.9099 37.4677 27.7103 37.4238 27.525 37.3424C27.3396 37.2611 27.1722 37.1439 27.0323 36.9977L20.6783 30.6197C20.4635 30.4048 20.3173 30.1312 20.258 29.8332C20.1988 29.5353 20.2292 29.2265 20.3454 28.9459C20.4617 28.6652 20.6585 28.4254 20.911 28.2566C21.1636 28.0878 21.4605 27.9977 21.7643 27.9976C21.9655 27.998 22.1644 28.0404 22.3483 28.122C22.5322 28.2036 22.697 28.3227 22.8323 28.4717L28.1003 33.7396L37.2323 24.6556C37.372 24.5096 37.5409 24.3945 37.728 24.318C37.9151 24.2415 38.1162 24.2053 38.3183 24.2117C38.7225 24.2216 39.1089 24.3796 39.4043 24.6556C39.5499 24.797 39.6662 24.9656 39.7465 25.152C39.8268 25.3384 39.8696 25.5387 39.8723 25.7417Z" fill="black"/>
<path d="M39.8723 25.7417C39.8715 25.9454 39.8291 26.1469 39.7476 26.3337C39.666 26.5204 39.5472 26.6885 39.3983 26.8276L29.1983 37.0276C28.9029 37.3037 28.5165 37.4617 28.1123 37.4717C27.9099 37.4677 27.7103 37.4238 27.525 37.3424C27.3396 37.2611 27.1722 37.1439 27.0323 36.9977L20.6783 30.6197C20.4635 30.4048 20.3173 30.1312 20.258 29.8332C20.1988 29.5353 20.2292 29.2265 20.3454 28.9459C20.4617 28.6652 20.6585 28.4254 20.911 28.2566C21.1636 28.0878 21.4605 27.9977 21.7643 27.9976C21.9655 27.998 22.1644 28.0404 22.3483 28.122C22.5322 28.2036 22.697 28.3227 22.8323 28.4717L28.1003 33.7396L37.2323 24.6556C37.372 24.5096 37.5409 24.3945 37.728 24.318C37.9151 24.2415 38.1162 24.2053 38.3183 24.2117C38.7225 24.2216 39.1089 24.3796 39.4043 24.6556C39.5499 24.797 39.6662 24.9656 39.7465 25.152C39.8268 25.3384 39.8696 25.5387 39.8723 25.7417Z" fill="#FFB81C" stroke="#FFB81C"/>
</g>
</svg>
