<svg width="41" height="40" viewBox="0 0 41 40" fill="none" xmlns="http://www.w3.org/2000/svg">
<path d="M19.35 8.00007C21.136 6.82723 23.214 6.17614 25.35 6.12007C27.3812 6.05888 29.3935 6.52646 31.1897 7.47698C32.9859 8.42751 34.5043 9.82837 35.5962 11.5423C36.6881 13.2562 37.3159 15.2244 37.4183 17.254C37.5206 19.2836 37.0939 21.305 36.18 23.1201C35.9714 23.5344 35.9181 24.0098 36.03 24.4601L37.14 28.6401C37.1693 28.74 37.1713 28.846 37.1455 28.947C37.1198 29.0479 37.0673 29.1401 36.9936 29.2137C36.92 29.2874 36.8278 29.3398 36.7269 29.3656C36.6259 29.3913 36.5199 29.3894 36.42 29.3601L32.22 28.2001C31.7672 28.0781 31.285 28.1317 30.87 28.3501C29.9364 28.8152 28.944 29.1516 27.92 29.3501C27.1761 29.4999 26.4188 29.5736 25.66 29.5701C24.9349 29.5696 24.2116 29.4993 23.5 29.3601" stroke="#2B5EAA" stroke-width="2" stroke-miterlimit="10" stroke-linecap="round"/>
<path d="M14.37 33.8799C16.7013 33.8802 18.9693 33.1212 20.8308 31.7177C22.6923 30.3143 24.0461 28.3427 24.6874 26.1014C25.3286 23.86 25.2224 21.4708 24.3849 19.2951C23.5474 17.1195 22.024 15.2758 20.0454 14.043C18.0667 12.8101 15.7404 12.2553 13.4183 12.4623C11.0962 12.6694 8.90474 13.6271 7.17541 15.1905C5.44607 16.7539 4.27296 18.838 3.83356 21.1275C3.39416 23.417 3.71237 25.7874 4.74005 27.8799C4.93838 28.2579 4.99173 28.6954 4.89005 29.1099L3.86005 32.9999C3.83592 33.0913 3.83618 33.1873 3.86079 33.2785C3.8854 33.3697 3.93351 33.4529 4.0003 33.5197C4.0671 33.5865 4.15025 33.6346 4.24145 33.6592C4.33265 33.6838 4.42872 33.6841 4.52005 33.6599L8.35005 32.6599C8.7664 32.5507 9.20852 32.6006 9.59005 32.7999C11.0776 33.5269 12.7144 33.8968 14.37 33.8799Z" stroke="#2B5EAA" stroke-width="2" stroke-miterlimit="10" stroke-linecap="round"/>
<path d="M10.0699 20.75H18.6699" stroke="#129B86" stroke-width="1.75" stroke-miterlimit="10" stroke-linecap="round"/>
<path d="M10.0699 25.51H15.9899" stroke="#129B86" stroke-width="1.75" stroke-miterlimit="10" stroke-linecap="round"/>
<path d="M26.77 14.6501C26.7716 14.2843 26.869 13.9254 27.0528 13.6091C27.2365 13.2928 27.5 13.0303 27.8169 12.8477C28.1339 12.6652 28.4932 12.569 28.859 12.5688C29.2247 12.5687 29.5841 12.6645 29.9013 12.8467C30.2184 13.0289 30.4822 13.2912 30.6662 13.6073C30.8502 13.9234 30.9481 14.2822 30.95 14.648C30.9519 15.0138 30.8577 15.3736 30.677 15.6916C30.4963 16.0096 30.2352 16.2746 29.92 16.4601C29.639 16.5843 29.3943 16.778 29.2089 17.0229C29.0234 17.2679 28.9034 17.556 28.86 17.8601V18.6501" stroke="#F8BC29" stroke-width="1.75" stroke-linecap="round"/>
<path d="M28.86 23.5601C29.4785 23.5601 29.98 23.0586 29.98 22.4401C29.98 21.8215 29.4785 21.3201 28.86 21.3201C28.2414 21.3201 27.74 21.8215 27.74 22.4401C27.74 23.0586 28.2414 23.5601 28.86 23.5601Z" fill="#F8BC29"/>
</svg>
