<svg width="41" height="40" viewBox="0 0 41 40" fill="none" xmlns="http://www.w3.org/2000/svg">
<path opacity="0.2" d="M35.5001 20.8401V26.4001L25.5001 36.5001H19.6801V28.6701C19.6801 23.4501 22.3167 20.8401 27.5901 20.8401H35.5001Z" fill="#129B86"/>
<path d="M12.17 3.50002H8.83C7.9512 3.49735 7.1072 3.84322 6.48299 4.46181C5.85878 5.08039 5.50529 5.92123 5.5 6.80002V10.1" stroke="#F8BC29" stroke-width="2" stroke-linecap="round" stroke-linejoin="round"/>
<path d="M12.17 17.6499H20.5" stroke="#129B86" stroke-width="2" stroke-linecap="round" stroke-linejoin="round"/>
<path d="M12.17 11.05H25.5" stroke="#129B86" stroke-width="2" stroke-linecap="round" stroke-linejoin="round"/>
<path d="M12.17 24.25H20.5" stroke="#129B86" stroke-width="2" stroke-linecap="round" stroke-linejoin="round"/>
<path d="M17.17 3.5H27.17C32.72 3.8 35.5 5.83 35.5 13.38V26.6" stroke="#2B5EAA" stroke-width="2" stroke-miterlimit="10" stroke-linecap="round"/>
<path d="M5.5 15.0701V26.5701C5.5 33.1801 7.17 36.5001 15.5 36.5001H25.5" stroke="#2B5EAA" stroke-width="2" stroke-miterlimit="10" stroke-linecap="round"/>
<path d="M35.5 26.6001L25.5 36.5001V31.5501C25.5 28.2501 27.1667 26.6001 30.5 26.6001H35.5Z" stroke="#2B5EAA" stroke-width="2" stroke-linecap="round" stroke-linejoin="round"/>
</svg>
