<svg width="20" height="20" viewBox="0 0 20 20" fill="none" xmlns="http://www.w3.org/2000/svg">
<path d="M11.8747 14.132C11.8747 13.7868 12.1545 13.507 12.4997 13.507L18.333 13.507C18.6782 13.507 18.958 13.7868 18.958 14.132C18.958 14.4772 18.6782 14.757 18.333 14.757L12.4997 14.757C12.1545 14.757 11.8747 14.4772 11.8747 14.132Z" fill="#31333F"/>
<path fill-rule="evenodd" clip-rule="evenodd" d="M15.208 5.83325C15.208 7.55914 13.8089 8.95825 12.083 8.95825C10.3571 8.95825 8.95801 7.55914 8.95801 5.83325C8.95801 4.10736 10.3571 2.70825 12.083 2.70825C13.8089 2.70825 15.208 4.10736 15.208 5.83325ZM12.083 7.70825C13.1185 7.70825 13.958 6.86879 13.958 5.83325C13.958 4.79772 13.1185 3.95825 12.083 3.95825C11.0475 3.95825 10.208 4.79772 10.208 5.83325C10.208 6.86879 11.0475 7.70825 12.083 7.70825Z" fill="#31333F"/>
<path fill-rule="evenodd" clip-rule="evenodd" d="M4.79134 14.1666C4.79134 15.8925 6.19045 17.2916 7.91634 17.2916C9.64223 17.2916 11.0413 15.8925 11.0413 14.1666C11.0413 12.4407 9.64223 11.0416 7.91634 11.0416C6.19045 11.0416 4.79134 12.4407 4.79134 14.1666ZM7.91634 16.0416C6.88081 16.0416 6.04134 15.2021 6.04134 14.1666C6.04134 13.1311 6.88081 12.2916 7.91634 12.2916C8.95187 12.2916 9.79134 13.1311 9.79134 14.1666C9.79134 15.2021 8.95187 16.0416 7.91634 16.0416Z" fill="#31333F"/>
<path d="M7.49967 5.17369C7.84485 5.17369 8.12467 5.45351 8.12467 5.79869C8.12467 6.14386 7.84485 6.42369 7.49967 6.42369L1.66634 6.42369C1.32116 6.42369 1.04134 6.14386 1.04134 5.79868C1.04134 5.45351 1.32116 5.17368 1.66634 5.17368L7.49967 5.17369Z" fill="#31333F"/>
<path d="M1.04134 14.132C1.04134 13.7868 1.32116 13.507 1.66634 13.507L3.33301 13.507C3.67819 13.507 3.95801 13.7868 3.95801 14.132C3.95801 14.4772 3.67819 14.757 3.33301 14.757L1.66634 14.757C1.32116 14.757 1.04134 14.4772 1.04134 14.132Z" fill="#31333F"/>
<path d="M18.333 5.17369C18.6782 5.17369 18.958 5.45351 18.958 5.79869C18.958 6.14386 18.6782 6.42369 18.333 6.42369L16.6663 6.42369C16.3212 6.42369 16.0413 6.14386 16.0413 5.79869C16.0413 5.45351 16.3212 5.17369 16.6663 5.17369L18.333 5.17369Z" fill="#31333F"/>
</svg>
