<svg width="20" height="21" viewBox="0 0 20 21" fill="none" xmlns="http://www.w3.org/2000/svg">
<path fill-rule="evenodd" clip-rule="evenodd" d="M13.332 4.875C13.5011 4.875 13.663 4.94352 13.7807 5.06491L17.1141 8.50241C17.3543 8.75021 17.3483 9.14589 17.1005 9.38619C16.8527 9.62648 16.457 9.62039 16.2167 9.37259L13.957 7.04233L13.957 15.5C13.957 15.8452 13.6772 16.125 13.332 16.125C12.9869 16.125 12.707 15.8452 12.707 15.5L12.707 7.04233L10.4474 9.37259C10.2071 9.62039 9.81141 9.62648 9.56361 9.38619C9.3158 9.14589 9.30972 8.75021 9.55001 8.50241L12.8833 5.06491C13.0011 4.94352 13.1629 4.875 13.332 4.875ZM6.66536 4.875C7.01054 4.875 7.29036 5.15482 7.29036 5.5L7.29036 13.9577L9.55001 11.6274C9.7903 11.3796 10.186 11.3735 10.4338 11.6138C10.6816 11.8541 10.6877 12.2498 10.4474 12.4976L7.11405 15.9351C6.99634 16.0565 6.83446 16.125 6.66536 16.125C6.49627 16.125 6.33439 16.0565 6.21668 15.9351L2.88334 12.4976C2.64305 12.2498 2.64914 11.8541 2.89694 11.6138C3.14474 11.3735 3.54043 11.3796 3.78072 11.6274L6.04036 13.9577L6.04036 5.5C6.04036 5.15482 6.32019 4.875 6.66536 4.875Z" fill="white"/>
</svg>
