<svg width="19" height="19" viewBox="0 0 19 19" fill="none" xmlns="http://www.w3.org/2000/svg">
<path d="M12.5109 9.83001L12.1693 10.1697C12.1693 10.1697 11.3573 10.977 9.14109 8.77332C6.92484 6.56965 7.73678 5.76232 7.73678 5.76232L7.95189 5.54843C8.4818 5.02152 8.53176 4.17557 8.06943 3.558L7.12369 2.2947C6.55146 1.53033 5.44572 1.42935 4.78984 2.08151L3.61264 3.25203C3.28742 3.5754 3.06949 3.99458 3.09592 4.4596C3.16353 5.64926 3.70179 8.20888 6.70527 11.1953C9.89036 14.3623 12.8789 14.4882 14.101 14.3742C14.4875 14.3382 14.8237 14.1413 15.0946 13.872L16.16 12.8126C16.8792 12.0975 16.6764 10.8716 15.7562 10.3714L14.3234 9.59245C13.7192 9.26401 12.9831 9.36049 12.5109 9.83001Z" fill="#235BA8"/>
</svg>
