<svg width="25" height="25" viewBox="0 0 25 25" fill="none" xmlns="http://www.w3.org/2000/svg">
<path fill-rule="evenodd" clip-rule="evenodd" d="M15.4883 2.45996H17.4883C19.3739 2.45996 20.3167 2.45996 20.9025 3.04575C21.4883 3.63153 21.4883 4.57434 21.4883 6.45996V21.71H22.4883C22.9025 21.71 23.2383 22.0457 23.2383 22.46C23.2383 22.8742 22.9025 23.21 22.4883 23.21H2.48828C2.07407 23.21 1.73828 22.8742 1.73828 22.46C1.73828 22.0457 2.07407 21.71 2.48828 21.71H3.48828V9.45996C3.48828 7.57434 3.48828 6.63153 4.07407 6.04575C4.65985 5.45996 5.60266 5.45996 7.48828 5.45996H11.4883C13.3739 5.45996 14.3167 5.45996 14.9025 6.04575C15.4883 6.63153 15.4883 7.57434 15.4883 9.45996V21.71H16.9883V9.45996L16.9883 9.37047C16.9884 8.50484 16.9885 7.71117 16.9017 7.06555C16.8061 6.35459 16.5812 5.60313 15.9632 4.98509C15.3451 4.36704 14.5937 4.14215 13.8827 4.04656C13.2462 3.96098 12.4657 3.95987 11.6143 3.95995C11.6986 3.57271 11.8393 3.28055 12.0741 3.04575C12.6599 2.45996 13.6027 2.45996 15.4883 2.45996ZM5.73828 8.45996C5.73828 8.04575 6.07407 7.70996 6.48828 7.70996H12.4883C12.9025 7.70996 13.2383 8.04575 13.2383 8.45996C13.2383 8.87417 12.9025 9.20996 12.4883 9.20996H6.48828C6.07407 9.20996 5.73828 8.87417 5.73828 8.45996ZM5.73828 11.46C5.73828 11.0457 6.07407 10.71 6.48828 10.71H12.4883C12.9025 10.71 13.2383 11.0457 13.2383 11.46C13.2383 11.8742 12.9025 12.21 12.4883 12.21H6.48828C6.07407 12.21 5.73828 11.8742 5.73828 11.46ZM5.73828 14.46C5.73828 14.0457 6.07407 13.71 6.48828 13.71H12.4883C12.9025 13.71 13.2383 14.0457 13.2383 14.46C13.2383 14.8742 12.9025 15.21 12.4883 15.21H6.48828C6.07407 15.21 5.73828 14.8742 5.73828 14.46ZM9.48828 18.71C9.90249 18.71 10.2383 19.0457 10.2383 19.46V21.71H8.73828V19.46C8.73828 19.0457 9.07407 18.71 9.48828 18.71Z" fill="#235BA8"/>
</svg>
