<svg width="19" height="20" viewBox="0 0 19 20" fill="none" xmlns="http://www.w3.org/2000/svg">
<path fill-rule="evenodd" clip-rule="evenodd" d="M18.8065 8.15033V15.9668C18.8065 18.1943 17.0156 20 14.8065 20H4.80646C2.59732 20 0.806458 18.1943 0.806458 15.9668V8.15033C0.806458 6.93937 1.3461 5.7925 2.27632 5.02652L7.27632 0.909348C8.74876 -0.303114 10.8642 -0.303117 12.3366 0.909345L17.3366 5.02652C18.2668 5.7925 18.8065 6.93937 18.8065 8.15033ZM13.0565 15.25V17.5C13.0565 18.0523 12.6087 18.5 12.0565 18.5H7.55646C7.00417 18.5 6.55646 18.0523 6.55646 17.5V15.25C6.55646 13.4551 8.01153 12 9.80646 12C11.6014 12 13.0565 13.4551 13.0565 15.25Z" fill="#235BA8"/>
</svg>
