<svg width="13" height="13" viewBox="0 0 13 13" fill="none" xmlns="http://www.w3.org/2000/svg">
<path d="M7.60274 2.24067C6.89224 1.90757 6.096 1.90757 5.3855 2.24067L2.03994 3.80914C1.50194 4.06137 1.36167 4.7726 1.61914 5.26418L1.61914 7.74084C1.61914 7.94795 1.78703 8.11584 1.99414 8.11584C2.20125 8.11584 2.36914 7.94795 2.36914 7.74084V5.82686L5.38554 7.24102C6.09605 7.57412 6.89228 7.57412 7.60278 7.24102L10.9483 5.67255C11.6761 5.33137 11.6761 4.15034 10.9483 3.80916L7.60274 2.24067Z" fill="#235BA8"/>
<path d="M2.99414 6.94821V8.80356C2.99414 9.30757 3.24589 9.77945 3.68681 10.0236C4.42099 10.4302 5.59614 10.9908 6.49414 10.9908C7.39214 10.9908 8.56729 10.4302 9.30147 10.0236C9.74239 9.77945 9.99414 9.30757 9.99414 8.80356V6.94823L7.92115 7.9201C7.00894 8.34776 5.97939 8.34776 5.06718 7.92009L2.99414 6.94821Z" fill="#235BA8"/>
</svg>
