<svg width="33" height="33" viewBox="0 0 33 33" fill="none" xmlns="http://www.w3.org/2000/svg">
<path opacity="0.2" d="M18.0384 32.6084C20.5535 32.6084 22.5924 30.5655 22.5924 28.0454C22.5924 25.5253 20.5535 23.4824 18.0384 23.4824C15.5233 23.4824 13.4844 25.5253 13.4844 28.0454C13.4844 30.5655 15.5233 32.6084 18.0384 32.6084Z" fill="#009E87"/>
<path d="M20.0977 14.0244H29.1787C29.7539 14.0244 30.3056 13.7959 30.7124 13.3891C31.1192 12.9823 31.3477 12.4306 31.3477 11.8554V3.27837C31.3477 2.70312 31.1192 2.15143 30.7124 1.74466C30.3056 1.33789 29.7539 1.10938 29.1787 1.10938H14.5987C14.0234 1.10938 13.4717 1.33789 13.065 1.74466C12.6582 2.15143 12.4297 2.70312 12.4297 3.27837V3.45838" stroke="#235BA8" stroke-width="1.75" stroke-miterlimit="10" stroke-linecap="round"/>
<path d="M20.3672 6.55485L23.2652 4.01685C23.2762 4.00363 23.2899 3.99299 23.3055 3.98569C23.321 3.97839 23.338 3.97461 23.3552 3.97461C23.3724 3.97461 23.3893 3.97839 23.4049 3.98569C23.4205 3.99299 23.4342 4.00363 23.4452 4.01685L25.0472 6.50085C25.0589 6.51282 25.0729 6.52234 25.0884 6.52883C25.1038 6.53532 25.1204 6.53867 25.1372 6.53867C25.154 6.53867 25.1705 6.53532 25.186 6.52883C25.2015 6.52234 25.2155 6.51282 25.2272 6.50085L28.1972 4.07085" stroke="#009E87" stroke-width="1.5" stroke-miterlimit="10" stroke-linecap="round"/>
<path d="M21.2969 9.10156V11.4146" stroke="#FFB81C" stroke-width="1.5" stroke-miterlimit="10" stroke-linecap="round"/>
<path d="M24.5469 10.3066V11.4136" stroke="#FFB81C" stroke-width="1.5" stroke-miterlimit="10" stroke-linecap="round"/>
<path d="M27.8047 8.12891V11.4139" stroke="#FFB81C" stroke-width="1.5" stroke-miterlimit="10" stroke-linecap="round"/>
<path d="M12.1256 16.8512C15.0383 16.8512 17.3996 14.4859 17.3996 11.5682C17.3996 8.65044 15.0383 6.28516 12.1256 6.28516C9.21281 6.28516 6.85156 8.65044 6.85156 11.5682C6.85156 14.4859 9.21281 16.8512 12.1256 16.8512Z" stroke="#235BA8" stroke-width="1.75" stroke-miterlimit="10"/>
<path d="M9.77544 18.7578H14.5364C16.6847 18.7578 18.745 19.6112 20.264 21.1302C21.783 22.6493 22.6364 24.7096 22.6364 26.8578C22.6364 28.1205 22.1348 29.3315 21.242 30.2243C20.3491 31.1172 19.1381 31.6188 17.8754 31.6188H6.40944C5.15141 31.6188 3.9445 31.1209 3.05241 30.2339C2.16032 29.3469 1.65557 28.1428 1.64844 26.8848C1.64844 24.7366 2.50183 22.6763 4.02087 21.1572C5.53992 19.6382 7.60018 18.7848 9.74844 18.7848L9.77544 18.7578Z" stroke="#235BA8" stroke-width="1.75" stroke-miterlimit="10"/>
<path d="M13.7028 20.459C13.7028 20.459 13.7028 24.887 14.5038 26.804C14.5542 26.9224 14.5666 27.0536 14.5392 27.1794C14.5117 27.3051 14.4459 27.4193 14.3508 27.506L12.7398 28.964C12.5734 29.1183 12.3548 29.2041 12.1278 29.2041C11.9008 29.2041 11.6823 29.1183 11.5158 28.964L9.89583 27.506C9.80441 27.4168 9.74183 27.3022 9.71616 27.1771C9.69049 27.0519 9.70292 26.922 9.75183 26.804C10.5168 24.887 10.5528 20.504 10.5528 20.504" stroke="#009E87" stroke-width="1.5" stroke-miterlimit="10" stroke-linecap="round"/>
<path d="M10.5469 22.3223H13.7599" stroke="#009E87" stroke-width="1.5" stroke-miterlimit="10" stroke-linecap="round"/>
</svg>
