<svg width="31" height="31" viewBox="0 0 31 31" fill="none" xmlns="http://www.w3.org/2000/svg">
<path d="M23.5429 25.8594L22.6429 27.1554C22.31 27.626 21.8689 28.0098 21.3568 28.2745C20.8446 28.5392 20.2764 28.677 19.6999 28.6764H16.5859" stroke="#FFB81C" stroke-width="2" stroke-linecap="round" stroke-linejoin="round"/>
<path d="M5.76569 25.3553C3.40554 23.0408 1.95547 19.9554 1.67969 16.6613C1.67969 16.2653 1.67969 15.8783 1.67969 15.4823C1.67969 11.804 3.14088 8.27636 5.74182 5.67542C8.34277 3.07448 11.8704 1.61328 15.5487 1.61328C19.227 1.61328 22.7546 3.07448 25.3556 5.67542C27.9565 8.27636 29.4177 11.804 29.4177 15.4823C29.4177 15.8783 29.4177 16.2653 29.4177 16.6613C29.1385 19.9813 27.668 23.0884 25.2777 25.4093" stroke="#235BA8" stroke-width="2"/>
<path d="M8.46569 25.0952C8.02271 25.4472 7.47449 25.6405 6.90869 25.6442C6.50992 25.6427 6.11754 25.5438 5.76569 25.3562C3.40554 23.0417 1.95547 19.9563 1.67969 16.6622H3.80369C4.41938 16.6588 5.02564 16.8134 5.56453 17.1112C6.10341 17.409 6.55691 17.8401 6.88169 18.3632L9.03269 21.7832C9.36013 22.3089 9.48326 22.9365 9.37876 23.5469C9.27425 24.1574 8.94936 24.7083 8.46569 25.0952Z" stroke="#235BA8" stroke-width="2" stroke-linejoin="round"/>
<path d="M22.5869 25.0951C23.0339 25.446 23.5846 25.639 24.1529 25.6441C24.5488 25.6426 24.9382 25.5437 25.2869 25.3561C27.6503 23.044 29.101 19.9573 29.3729 16.6621H27.2489C26.6347 16.6603 26.0303 16.8157 25.4931 17.1134C24.9559 17.4111 24.5038 17.8413 24.1799 18.3631L22.0289 21.7831C21.6985 22.3072 21.5727 22.9347 21.6757 23.5456C21.7786 24.1566 22.103 24.7082 22.5869 25.0951Z" stroke="#235BA8" stroke-width="2" stroke-linecap="round" stroke-linejoin="round"/>
<path d="M11.6406 20.0625C12.2619 20.0625 12.7656 19.5588 12.7656 18.9375C12.7656 18.3162 12.2619 17.8125 11.6406 17.8125C11.0193 17.8125 10.5156 18.3162 10.5156 18.9375C10.5156 19.5588 11.0193 20.0625 11.6406 20.0625Z" fill="#009E87"/>
<path d="M15.5 20.0625C16.1213 20.0625 16.625 19.5588 16.625 18.9375C16.625 18.3162 16.1213 17.8125 15.5 17.8125C14.8787 17.8125 14.375 18.3162 14.375 18.9375C14.375 19.5588 14.8787 20.0625 15.5 20.0625Z" fill="#009E87"/>
<path d="M15.5004 30.3134C16.3852 30.3134 17.1024 29.5961 17.1024 28.7114C17.1024 27.8266 16.3852 27.1094 15.5004 27.1094C14.6157 27.1094 13.8984 27.8266 13.8984 28.7114C13.8984 29.5961 14.6157 30.3134 15.5004 30.3134Z" fill="#FFB81C"/>
<path d="M19.3672 20.0625C19.9885 20.0625 20.4922 19.5588 20.4922 18.9375C20.4922 18.3162 19.9885 17.8125 19.3672 17.8125C18.7459 17.8125 18.2422 18.3162 18.2422 18.9375C18.2422 19.5588 18.7459 20.0625 19.3672 20.0625Z" fill="#009E87"/>
</svg>
