<svg width="31" height="32" viewBox="0 0 31 32" fill="none" xmlns="http://www.w3.org/2000/svg">
<path opacity="0.2" d="M13.7814 8.20898H14.6814V15.715H7.14844V14.815C7.15558 13.0605 7.85756 11.3803 9.10072 10.1422C10.3439 8.90409 12.0269 8.20897 13.7814 8.20898Z" fill="#009E87"/>
<path d="M19.1328 19.0898V26.2988" stroke="#009E87" stroke-width="2" stroke-miterlimit="10" stroke-linecap="round"/>
<path d="M23.0625 23.3125V27.9205" stroke="#009E87" stroke-width="2" stroke-miterlimit="10" stroke-linecap="round"/>
<path d="M26.9844 22.0156V29.2426" stroke="#009E87" stroke-width="2" stroke-miterlimit="10" stroke-linecap="round"/>
<path d="M3.84351 16.373C3.84351 16.76 3.78951 17.156 3.78951 17.543C3.77527 19.2639 4.10013 20.9707 4.74555 22.566C5.39096 24.1613 6.34428 25.6139 7.55109 26.8407C8.75789 28.0676 10.1945 29.0447 11.779 29.7164C13.3634 30.388 15.0647 30.7409 16.7855 30.755C18.0198 30.7547 19.2475 30.5759 20.4305 30.224" stroke="#235BA8" stroke-width="2" stroke-miterlimit="10" stroke-linecap="round"/>
<path d="M15.1875 4.43808C15.7185 4.36599 16.2537 4.32991 16.7895 4.33008C20.2657 4.35861 23.5884 5.76635 26.0271 8.24384C28.4658 10.7213 29.8209 14.0658 29.7945 17.5421C29.7976 18.3115 29.7313 19.0796 29.5965 19.8371" stroke="#235BA8" stroke-width="2" stroke-miterlimit="10" stroke-linecap="round"/>
<path d="M12.455 15.9316L0.988981 15.9316V15.0316C0.993751 11.5546 2.37835 8.22158 4.83868 5.76462C7.29902 3.30766 10.6339 1.92764 14.111 1.92764H14.75L14.75 13.6276C14.7512 13.9298 14.6927 14.2292 14.5779 14.5087C14.4631 14.7881 14.2942 15.0422 14.081 15.2563C13.8678 15.4703 13.6144 15.6402 13.3353 15.7561C13.0563 15.872 12.7571 15.9316 12.455 15.9316Z" stroke="#FFB81C" stroke-width="2" stroke-linejoin="round"/>
</svg>
