<svg xmlns="http://www.w3.org/2000/svg" width="121" height="112" viewBox="0 0 121 112" fill="none">
  <g opacity="0.2" clip-path="url(#clip0_13492_1404)">
    <path d="M72.9985 19.6195L72.9808 25.1593L24.8246 25.0527L20.8169 27.3504L20.8376 19.5002L24.8285 19.509L72.9985 19.6195Z" stroke="white" stroke-width="0.75" stroke-miterlimit="10" stroke-linecap="round" stroke-linejoin="round"/>
    <path d="M20.8376 19.5007L20.8169 27.3508L-11.3315 45.7672L-11.3826 62.9135L-18.2102 66.8243L-25.0231 70.7254L-24.9512 45.7369L-18.1364 41.8319L18.0186 21.1179L20.8376 19.5007Z" stroke="white" stroke-width="0.75" stroke-miterlimit="10" stroke-linecap="round" stroke-linejoin="round"/>
    <path d="M73.0141 4.79577L72.9973 19.62L24.8273 19.5095L20.8374 19.5007L18.0175 21.1178L-18.1376 41.8318L-24.9514 45.7378L-60.8772 45.6567C-60.9372 45.6567 -60.9963 45.6567 -61.0563 45.6527C-61.1537 45.6527 -61.2482 45.6488 -61.3416 45.64C-61.3761 45.64 -61.4095 45.6361 -61.4479 45.6322C-61.5335 45.6273 -61.6181 45.6185 -61.7037 45.6107C-61.75 45.6068 -61.7972 45.6019 -61.8444 45.598C-61.8612 45.598 -61.8828 45.5941 -61.9035 45.5892C-61.9802 45.5765 -62.057 45.5638 -62.1298 45.5511C-62.2016 45.5383 -62.2784 45.5305 -62.3462 45.5139C-62.4023 45.5002 -62.4535 45.4924 -62.5037 45.4836C-62.5125 45.4836 -62.5253 45.4797 -62.5342 45.4748C-62.8028 45.4161 -63.0576 45.3399 -63.2967 45.2509C-63.3391 45.2343 -63.3814 45.2167 -63.4246 45.2001C-63.4925 45.1746 -63.5604 45.1453 -63.6283 45.115C-63.7011 45.0818 -63.774 45.0475 -63.8409 45.0094C-63.955 44.9498 -64.0632 44.8862 -64.1666 44.8197L-64.1734 44.8148C-64.2079 44.7943 -64.2423 44.7689 -64.2758 44.7474C-64.3525 44.6926 -64.4253 44.6418 -64.4932 44.586C-64.7441 44.3876 -64.9439 44.1676 -65.0855 43.93C-65.1239 43.8635 -65.1613 43.8 -65.1957 43.7276C-65.2125 43.6983 -65.2253 43.6641 -65.2341 43.6298C-65.2764 43.537 -65.302 43.4392 -65.3187 43.3424C-65.3276 43.2955 -65.3365 43.2495 -65.3404 43.1987C-65.3443 43.1517 -65.3493 43.1058 -65.3493 43.0588C-65.3493 42.4243 -64.9399 41.781 -64.0288 41.2559L4.24518 2.16375C5.78308 1.2926 7.84052 0.804718 9.99437 0.809607L66.3321 0.936708C70.0248 0.945507 73.0141 2.67607 73.0141 4.79577Z" stroke="white" stroke-width="0.75" stroke-miterlimit="10" stroke-linecap="round" stroke-linejoin="round"/>
    <path d="M18.4229 45.8343L-11.3316 45.7668L-11.3827 62.9131L-11.4034 70.7544L29.0997 70.8473L29.1725 45.8597L18.4229 45.8343Z" stroke="white" stroke-width="0.75" stroke-miterlimit="10" stroke-linecap="round" stroke-linejoin="round"/>
    <path d="M30.4073 70.9198C30.5283 70.9325 30.6493 70.9443 30.7684 70.9599C30.8884 70.9755 31.0055 70.9941 31.1236 71.0137C31.2564 71.0342 31.3892 71.0567 31.5191 71.0821C31.6234 71.1026 31.7258 71.1242 31.8281 71.1476C31.9875 71.1828 32.1449 71.221 32.2984 71.262C32.387 71.2865 32.4745 71.3099 32.5601 71.3353C32.8465 71.4194 33.1259 71.5104 33.3886 71.614C33.5697 71.6844 33.7438 71.7616 33.9131 71.8408C33.9495 71.8574 33.9859 71.875 34.0213 71.8917C34.1856 71.9718 34.344 72.0549 34.4956 72.142C34.5202 72.1557 34.5418 72.1693 34.5664 72.183C34.7032 72.2642 34.836 72.3492 34.9639 72.4363C34.9865 72.4519 35.0111 72.4675 35.0338 72.4842C35.1696 72.58 35.2975 72.6787 35.4195 72.7814C35.4451 72.8029 35.4706 72.8254 35.4952 72.8479C35.6153 72.9525 35.7304 73.0591 35.8357 73.1705C35.8367 73.1715 35.8386 73.1735 35.8396 73.1744C35.9439 73.2859 36.0384 73.4013 36.126 73.5186C36.1456 73.544 36.1653 73.5685 36.182 73.5939C36.2657 73.7102 36.3414 73.8276 36.4074 73.9478C36.4172 73.9674 36.4261 73.9869 36.4369 74.0065C36.4949 74.1179 36.5451 74.2314 36.5874 74.3457C36.5963 74.3673 36.6051 74.3878 36.613 74.4093C36.6563 74.5344 36.6888 74.6615 36.7134 74.7896C36.7183 74.818 36.7232 74.8463 36.7271 74.8747C36.7478 75.0077 36.7626 75.1416 36.7626 75.2785L36.8334 50.288C36.8334 50.1521 36.8196 50.0181 36.798 49.8851C36.7941 49.8568 36.7901 49.8284 36.7842 49.8001C36.7596 49.672 36.7271 49.5449 36.6838 49.4188C36.676 49.3982 36.6671 49.3777 36.6593 49.3562C36.6169 49.2418 36.5668 49.1284 36.5077 49.0179C36.4979 48.9974 36.489 48.9778 36.4782 48.9583C36.4133 48.838 36.3365 48.7197 36.2539 48.6043C36.2362 48.5789 36.2165 48.5545 36.1978 48.529C36.1092 48.4117 36.0158 48.2963 35.9105 48.1849C35.9095 48.1829 35.9075 48.182 35.9055 48.18C35.8013 48.0695 35.6861 47.9629 35.5671 47.8583C35.5415 47.8358 35.5159 47.8134 35.4893 47.7909C35.3683 47.6892 35.2414 47.5904 35.1056 47.4946C35.082 47.478 35.0584 47.4623 35.0338 47.4457C34.9068 47.3597 34.775 47.2756 34.6382 47.1945C34.6136 47.1798 34.591 47.1661 34.5674 47.1514C34.4149 47.0644 34.2565 46.9823 34.0931 46.9031C34.0567 46.8845 34.0203 46.8679 33.9829 46.8503C33.8147 46.7721 33.6435 46.6958 33.4634 46.6254C33.4624 46.6244 33.4614 46.6244 33.4604 46.6244C33.1967 46.5208 32.9173 46.4299 32.631 46.3458C32.5965 46.335 32.5641 46.3213 32.5286 46.3116C32.4775 46.2969 32.4224 46.2871 32.3702 46.2725C32.2167 46.2314 32.0593 46.1933 31.8999 46.1571C31.8399 46.1444 31.7838 46.1278 31.7238 46.1151C31.6805 46.1063 31.6342 46.1004 31.591 46.0916C31.4601 46.0671 31.3282 46.0447 31.1944 46.0231C31.1187 46.0114 31.0449 45.9948 30.9681 45.984C30.9258 45.9782 30.8815 45.9752 30.8392 45.9703C30.7202 45.9547 30.6001 45.942 30.4791 45.9303C30.3955 45.9215 30.3138 45.9088 30.2292 45.9029C30.1829 45.899 30.1367 45.898 30.0895 45.8951C29.9694 45.8863 29.8474 45.8814 29.7254 45.8755C29.6418 45.8716 29.5601 45.8648 29.4755 45.8628C29.3741 45.8599 29.2738 45.8589 29.1714 45.8579L29.1006 70.8475C29.2866 70.8484 29.4696 70.8572 29.6516 70.8651C29.7746 70.8709 29.8976 70.8758 30.0186 70.8846C30.1495 70.8944 30.2784 70.9061 30.4073 70.9198Z" stroke="white" stroke-width="0.75" stroke-miterlimit="10" stroke-linecap="round" stroke-linejoin="round"/>
    <path d="M82.6223 25.1841L82.5927 52.9103L82.5839 55.204V55.2079L82.5455 55.2284L82.5504 50.1727L82.6223 25.1841Z" stroke="white" stroke-width="0.75" stroke-miterlimit="10" stroke-linecap="round" stroke-linejoin="round"/>
    <path d="M121.164 29.0813L121.116 68.9224C121.116 68.9693 121.116 69.0153 121.107 69.0583C121.104 69.1003 121.1 69.1424 121.096 69.1893C121.091 69.2274 121.087 69.2656 121.082 69.3037C121.078 69.3418 121.073 69.3751 121.065 69.4132V69.4171C121.065 69.4308 121.061 69.4435 121.057 69.4553C121.052 69.4807 121.048 69.5071 121.04 69.5325C121.031 69.5657 121.022 69.6039 121.01 69.642C120.997 69.6801 120.988 69.7183 120.98 69.7564C120.968 69.7945 120.954 69.8278 120.941 69.8659C120.941 69.8747 120.938 69.8796 120.933 69.8874C120.921 69.9167 120.912 69.951 120.895 69.9803C120.895 69.9842 120.895 69.993 120.891 69.9979C120.878 70.0233 120.864 70.0438 120.857 70.0693C120.835 70.1074 120.817 70.1494 120.801 70.1925C120.784 70.2345 120.763 70.2765 120.737 70.3186C120.721 70.3489 120.707 70.3743 120.686 70.4036C120.669 70.4291 120.648 70.4584 120.631 70.4887C120.575 70.5816 120.516 70.6657 120.451 70.7585C120.447 70.7634 120.444 70.7674 120.439 70.7762C120.435 70.7801 120.431 70.7889 120.427 70.7928C120.409 70.8143 120.392 70.8358 120.375 70.8563C120.323 70.9199 120.273 70.9834 120.213 71.047C120.2 71.0636 120.188 71.0812 120.175 71.0939C120.171 71.1017 120.166 71.1056 120.162 71.1105C120.15 71.1232 120.136 71.1311 120.128 71.1438C120.031 71.2415 119.933 71.3432 119.821 71.4361C119.732 71.5163 119.634 71.5925 119.536 71.6688C119.507 71.6903 119.476 71.7157 119.447 71.7412C119.434 71.749 119.417 71.7617 119.4 71.7705C119.387 71.7871 119.371 71.7959 119.353 71.8086C119.324 71.8301 119.289 71.8507 119.259 71.8722C119.148 71.9484 119.038 72.0286 118.914 72.101L118.749 72.2026L44.3421 114.451C44.2732 114.489 44.1965 114.531 44.1246 114.566C44.0518 114.604 43.9751 114.638 43.9032 114.672C43.8609 114.688 43.8137 114.709 43.7714 114.727C43.7114 114.752 43.6523 114.776 43.5923 114.799C43.5323 114.82 43.4723 114.841 43.4093 114.862C43.367 114.874 43.3286 114.892 43.2853 114.904C43.2253 114.921 43.1702 114.938 43.1112 114.955C43.1023 114.959 43.0895 114.959 43.0816 114.963C43.0167 114.98 42.9577 114.997 42.8937 115.01C42.8209 115.027 42.753 115.044 42.6841 115.057H42.6802C42.6172 115.069 42.5572 115.082 42.4932 115.095C42.3998 115.112 42.3024 115.125 42.2079 115.137C42.14 115.145 42.0761 115.154 42.0082 115.163C41.9609 115.167 41.9098 115.167 41.8625 115.171C41.773 115.179 41.6805 115.187 41.586 115.192H41.5605C41.4493 115.196 41.3391 115.201 41.2289 115.201C41.1256 115.201 41.0282 115.196 40.9307 115.192C40.8579 115.187 40.7812 115.183 40.7054 115.179C40.6405 115.175 40.5726 115.171 40.5037 115.163C40.4279 115.154 40.3512 115.145 40.2745 115.137C40.2105 115.128 40.1465 115.12 40.0836 115.112C40.0747 115.112 40.0698 115.107 40.0609 115.107C39.9261 115.086 39.7894 115.06 39.6565 115.031C39.6054 115.022 39.5512 115.01 39.4991 114.993C39.4529 114.985 39.4056 114.972 39.3584 114.959C39.3112 114.947 39.2698 114.934 39.2226 114.921C39.1459 114.9 39.0691 114.879 38.9963 114.854C38.9884 114.85 38.9806 114.85 38.9756 114.845C38.8477 114.807 38.7247 114.761 38.6057 114.709C38.5201 114.672 38.4394 114.638 38.3587 114.6C38.341 114.591 38.3203 114.583 38.3026 114.574C38.277 114.561 38.2515 114.545 38.2259 114.531C38.1836 114.515 38.1452 114.489 38.1068 114.469C38.0684 114.448 38.0301 114.426 37.9966 114.405C37.9582 114.383 37.9189 114.363 37.8805 114.337C37.8343 114.307 37.792 114.278 37.7447 114.245C37.7024 114.214 37.6601 114.185 37.6168 114.151C37.604 114.143 37.5912 114.134 37.5784 114.121C37.485 114.049 37.3994 113.969 37.3187 113.889C37.3147 113.884 37.3098 113.876 37.3019 113.872C37.2892 113.851 37.2715 113.834 37.2557 113.812C37.2291 113.783 37.1996 113.754 37.174 113.719C37.1524 113.689 37.1278 113.66 37.1061 113.631C37.0806 113.596 37.0629 113.562 37.0422 113.533C37.0038 113.473 36.9704 113.411 36.9399 113.351C36.9231 113.313 36.9054 113.279 36.8897 113.245C36.8631 113.178 36.8425 113.109 36.8247 113.042C36.8159 113.013 36.808 112.987 36.7992 112.962C36.7992 112.958 36.7952 112.949 36.7952 112.944C36.7952 112.936 36.7913 112.929 36.7913 112.92C36.7775 112.826 36.7657 112.734 36.7657 112.636V112.631L36.7824 98.5659L36.7992 81.4401L43.614 77.5342L72.9424 60.7301L79.769 56.8202L82.5457 55.2284L82.5841 55.2079V55.203H82.588L82.5929 52.9103L82.6225 25.1841L114.529 25.2555C118.194 25.2594 121.164 26.9733 121.164 29.0813Z" stroke="white" stroke-width="0.75" stroke-miterlimit="10" stroke-linecap="round" stroke-linejoin="round"/>
    <path d="M121.116 68.9226L121.043 93.9112V93.9874C121.043 94.051 121.027 94.1145 121.022 94.1781C121.014 94.2534 121.01 94.3296 120.997 94.4059C120.992 94.4186 120.992 94.4313 120.992 94.444C120.979 94.5076 120.954 94.5711 120.937 94.6298C120.916 94.707 120.899 94.7823 120.873 94.8586C120.869 94.8713 120.864 94.884 120.86 94.8928C120.84 94.9525 120.809 95.0023 120.784 95.0571C120.745 95.1421 120.712 95.2272 120.669 95.3074C120.661 95.3201 120.656 95.3367 120.647 95.3494C120.622 95.3924 120.588 95.4345 120.563 95.4765C120.498 95.5743 120.439 95.6711 120.366 95.7649C120.35 95.7855 120.337 95.8109 120.319 95.8324C120.251 95.9165 120.18 96.0015 120.103 96.0856C120.099 96.0905 120.094 96.0944 120.09 96.0983C120.004 96.1922 119.915 96.2802 119.821 96.3692C119.8 96.3868 119.775 96.4073 119.749 96.4249C119.672 96.4924 119.591 96.5598 119.506 96.6234C119.434 96.683 119.362 96.7417 119.281 96.8013C119.192 96.8649 119.097 96.9235 119 96.9871C118.936 97.0301 118.881 97.0721 118.816 97.1103C118.77 97.1396 118.722 97.165 118.676 97.1905L44.2682 139.44C44.1284 139.525 43.9789 139.592 43.8303 139.661C43.787 139.681 43.7447 139.698 43.7024 139.714C43.5784 139.765 43.4594 139.812 43.3364 139.854C43.3108 139.863 43.2842 139.871 43.2596 139.88C43.2419 139.884 43.2301 139.888 43.2163 139.892C43.1494 139.913 43.0766 139.935 43.0077 139.951C42.9448 139.969 42.8847 139.986 42.8208 140.003C42.749 140.019 42.6801 140.032 42.6082 140.045C42.5571 140.058 42.5049 140.071 42.4548 140.078C42.4459 140.078 42.4331 140.083 42.4243 140.083C42.2629 140.113 42.0966 140.134 41.9342 140.151C41.9274 140.151 41.9185 140.154 41.9096 140.154C41.8713 140.159 41.829 140.159 41.7906 140.163C41.6922 140.172 41.5908 140.176 41.4875 140.181C41.4708 140.185 41.4492 140.185 41.4285 140.185C41.339 140.19 41.2445 140.19 41.155 140.19H40.9818C40.9434 140.19 40.9001 140.185 40.8627 140.181C40.785 140.181 40.7083 140.176 40.6364 140.167C40.6069 140.167 40.5764 140.167 40.5469 140.163C40.5085 140.163 40.4701 140.154 40.4318 140.151C40.355 140.147 40.2783 140.138 40.2025 140.125C40.172 140.121 40.1376 140.121 40.108 140.116C40.0746 140.113 40.0441 140.105 40.0146 140.101C39.929 140.087 39.8434 140.071 39.7587 140.058C39.7243 140.049 39.6859 140.045 39.6525 140.036C39.6318 140.032 39.6102 140.028 39.5885 140.019C39.4773 139.998 39.376 139.974 39.2687 139.944C39.2392 139.935 39.2058 139.931 39.1713 139.922C39.1625 139.918 39.1585 139.913 39.1497 139.913C38.9834 139.863 38.822 139.808 38.6646 139.749C38.6508 139.745 38.6351 139.741 38.6174 139.736C38.5878 139.723 38.5623 139.711 38.5318 139.698C38.4511 139.665 38.3655 139.625 38.2848 139.587C38.2425 139.567 38.1962 139.545 38.1539 139.525C38.0732 139.482 37.9955 139.44 37.9237 139.393C37.8853 139.372 37.8469 139.351 37.8125 139.33C37.719 139.271 37.6295 139.207 37.5478 139.143C37.536 139.132 37.5183 139.123 37.5055 139.114C37.413 139.038 37.3274 138.958 37.2507 138.878C37.2251 138.851 37.2044 138.826 37.1818 138.801C37.1316 138.742 37.0804 138.683 37.0332 138.618C37.0116 138.589 36.9909 138.556 36.9693 138.522C36.9309 138.462 36.8964 138.402 36.8669 138.34C36.8502 138.306 36.8335 138.272 36.8158 138.234C36.7912 138.171 36.7685 138.098 36.7528 138.031C36.7439 138 36.7311 137.967 36.7262 137.933C36.7056 137.831 36.6928 137.726 36.6928 137.62L36.7646 112.636C36.7646 112.734 36.7774 112.826 36.7912 112.92C36.7912 112.929 36.7951 112.937 36.7951 112.944C36.7951 112.949 36.799 112.958 36.799 112.962C36.8207 113.06 36.8502 113.152 36.8886 113.246C36.9053 113.279 36.923 113.313 36.9397 113.351C36.9653 113.415 36.9998 113.473 37.0421 113.533C37.0627 113.562 37.0804 113.597 37.106 113.631C37.1277 113.66 37.1523 113.689 37.1729 113.719C37.1995 113.754 37.229 113.783 37.2556 113.813C37.2713 113.834 37.289 113.851 37.3008 113.872C37.3097 113.876 37.3146 113.884 37.3186 113.889C37.3992 113.969 37.4848 114.049 37.5783 114.122C37.5911 114.134 37.6039 114.143 37.6167 114.151C37.66 114.185 37.7023 114.215 37.7446 114.244C37.7909 114.278 37.8332 114.307 37.8804 114.337C37.9188 114.363 37.9571 114.384 37.9955 114.405C38.03 114.427 38.0683 114.448 38.1067 114.469C38.1707 114.511 38.2346 114.54 38.3025 114.574C38.3202 114.583 38.3409 114.591 38.3586 114.6C38.4393 114.638 38.52 114.672 38.6056 114.709C38.7246 114.761 38.8476 114.807 38.9755 114.845C38.9795 114.85 38.9883 114.85 38.9962 114.854C39.069 114.879 39.1448 114.9 39.2225 114.921C39.2687 114.934 39.311 114.947 39.3583 114.96C39.4055 114.972 39.4527 114.985 39.499 114.993C39.5511 115.01 39.6052 115.022 39.6564 115.031C39.7892 115.06 39.925 115.087 40.0608 115.107C40.0697 115.107 40.0746 115.112 40.0834 115.112C40.1464 115.12 40.2094 115.129 40.2743 115.137C40.3511 115.145 40.4278 115.154 40.5036 115.163C40.5725 115.172 40.6404 115.176 40.7043 115.18C40.7811 115.183 40.8578 115.187 40.9306 115.192C41.027 115.196 41.1254 115.201 41.2288 115.201C41.339 115.201 41.4492 115.196 41.5603 115.192H41.5859C41.7256 115.187 41.8673 115.176 42.008 115.163C42.0759 115.154 42.1389 115.145 42.2078 115.137C42.3013 115.125 42.3997 115.112 42.4931 115.095C42.5571 115.082 42.6171 115.069 42.6801 115.057H42.684C42.7519 115.045 42.8208 115.027 42.8936 115.01C42.9566 114.998 43.0166 114.98 43.0805 114.963C43.0894 114.96 43.1022 114.96 43.111 114.956C43.1701 114.938 43.2252 114.921 43.2842 114.904C43.3275 114.892 43.3659 114.874 43.4082 114.862C43.4722 114.841 43.5312 114.82 43.5922 114.799C43.6512 114.777 43.7112 114.752 43.7713 114.727C43.8136 114.709 43.8598 114.689 43.9021 114.672C43.9749 114.638 44.0517 114.605 44.1245 114.566C44.1963 114.531 44.2731 114.489 44.342 114.451L118.749 72.2019L118.914 72.1002C119.038 72.0288 119.148 71.9486 119.259 71.8724C119.289 71.8509 119.323 71.8303 119.353 71.8088C119.386 71.7834 119.416 71.7619 119.446 71.7414C119.476 71.7159 119.506 71.6905 119.536 71.669C119.633 71.5928 119.732 71.5165 119.821 71.4363C119.933 71.3434 120.03 71.2418 120.128 71.144C120.136 71.1313 120.15 71.1235 120.162 71.1107C120.166 71.1059 120.171 71.1019 120.175 71.0941C120.188 71.0814 120.2 71.0638 120.213 71.0472C120.273 70.9836 120.323 70.9201 120.375 70.8565C120.392 70.836 120.409 70.8145 120.426 70.793C120.43 70.7891 120.435 70.7803 120.439 70.7764C120.443 70.7676 120.447 70.7637 120.451 70.7588C120.486 70.7167 120.516 70.6708 120.546 70.6238C120.597 70.5525 120.644 70.4801 120.686 70.4039C120.707 70.3745 120.721 70.3481 120.736 70.3188C120.763 70.2768 120.784 70.2347 120.801 70.1927C120.835 70.1291 120.864 70.0656 120.891 69.9981C120.894 69.9932 120.894 69.9844 120.894 69.9805C120.912 69.9512 120.92 69.9169 120.932 69.8876C120.937 69.8798 120.941 69.8749 120.941 69.8661C120.954 69.828 120.968 69.7947 120.979 69.7566C121.006 69.6803 121.022 69.608 121.039 69.5327C121.048 69.5073 121.052 69.4809 121.056 69.4555C121.06 69.4437 121.065 69.431 121.065 69.4173V69.4134C121.073 69.3753 121.078 69.342 121.082 69.3039C121.096 69.2237 121.107 69.1426 121.107 69.0585C121.116 69.0155 121.116 68.9695 121.116 68.9226Z" stroke="white" stroke-width="0.75" stroke-miterlimit="10" stroke-linecap="round" stroke-linejoin="round"/>
    <path d="M36.8334 50.2862L36.8078 73.6028L36.7353 98.5913L36.7619 75.2786L36.8334 50.2862Z" stroke="white" stroke-width="0.75" stroke-miterlimit="10" stroke-linecap="round" stroke-linejoin="round"/>
    <path d="M72.9935 25.1588L72.9639 52.885L36.8079 73.6029L36.8335 50.2862C36.8374 47.8527 33.4015 45.8689 29.1725 45.8601L18.4229 45.8347L-11.3316 45.7672L20.8168 27.3509L24.8244 25.0532L72.9807 25.1588H72.9935Z" stroke="white" stroke-width="0.75" stroke-miterlimit="10" stroke-linecap="round" stroke-linejoin="round"/>
    <path d="M72.963 52.885L72.9424 60.7302L43.6129 77.5343L36.7981 81.4403L36.7824 98.5661L36.747 98.5827L36.7352 98.5915L36.807 73.6029L72.963 52.885Z" stroke="white" stroke-width="0.75" stroke-miterlimit="10" stroke-linecap="round" stroke-linejoin="round"/>
    <path d="M36.7989 81.4399L36.7822 98.5657L36.7654 112.631V112.636L36.6936 137.62L36.7271 106.429L36.7477 98.5823L36.7989 81.4399Z" stroke="white" stroke-width="0.75" stroke-miterlimit="10" stroke-linecap="round" stroke-linejoin="round"/>
  </g>
  <defs>
    <clipPath id="clip0_13492_1404">
      <rect width="121" height="111" fill="white" transform="translate(0 0.80957)"/>
    </clipPath>
  </defs>
</svg>