<svg width="40" height="44" viewBox="0 0 40 44" fill="none" xmlns="http://www.w3.org/2000/svg">
<path d="M29.6651 9.61548V20.0127L21.9135 27.8348V19.0896C21.9135 18.8726 21.8711 18.6578 21.7885 18.4574C21.706 18.257 21.5851 18.0749 21.4326 17.9215C21.2801 17.7681 21.0991 17.6464 20.8999 17.5634C20.7006 17.4804 20.4871 17.4377 20.2715 17.4377H11.5781L19.3297 9.63977L29.6651 9.61548Z" fill="#2A5CAA"/>
<path d="M29.6645 1.98751V9.61535H19.3291L11.5775 17.4132H0.952358C0.763301 17.4106 0.579148 17.3521 0.42279 17.2452C0.266432 17.1382 0.144733 16.9875 0.0727423 16.8116C0.000751764 16.6357 -0.018326 16.4425 0.01784 16.2558C0.0540061 16.0691 0.143841 15.8972 0.276212 15.7613L14.9583 1.11297C15.2807 0.793268 15.713 0.610605 16.1657 0.602835H28.2397C28.4279 0.601231 28.6144 0.637121 28.7887 0.70843C28.963 0.77974 29.1215 0.885054 29.255 1.0183C29.3886 1.15155 29.4946 1.3101 29.567 1.48479C29.6393 1.65948 29.6766 1.84685 29.6766 2.03609" fill="#FDB525"/>
<path d="M40.001 11.0609V26.0008C39.9984 26.4572 39.8161 26.894 39.4939 27.2154L23.544 43.1148C23.4114 43.249 23.2422 43.3407 23.0579 43.3784C22.8735 43.4161 22.6822 43.3981 22.508 43.3267C22.3337 43.2553 22.1844 43.1337 22.0788 42.9771C21.9731 42.8205 21.9158 42.636 21.9141 42.4468V27.8349L29.6656 20.037V9.61548H38.5763C38.9541 9.61548 39.3166 9.76648 39.5838 10.0353C39.8509 10.3041 40.001 10.6686 40.001 11.0487" fill="#009C88"/>
</svg>
