<svg width="209" height="214" viewBox="0 0 209 214" fill="none" xmlns="http://www.w3.org/2000/svg">
<g opacity="0.2" clip-path="url(#clip0_115_9422)">
<path d="M180.007 33.7129V47.5458L173.164 43.5644L84.489 43.8143V77.3196H84.4074L67.6992 77.3655V34.0342L84.4074 33.99L173.083 33.7316L180.007 33.7129Z" stroke="#295CA9" stroke-width="0.75" stroke-miterlimit="10" stroke-linecap="round" stroke-linejoin="round"/>
<path d="M67.7009 34.034V77.3636L23.3904 51.5695C21.7895 50.6413 21.0723 49.4955 21.0723 48.3684V5.03711C21.0723 5.24281 21.1012 5.45701 21.1538 5.67291C21.198 5.88711 21.2796 6.09281 21.3867 6.30021C21.4496 6.44301 21.5379 6.57731 21.628 6.70991C22.0121 7.25731 22.5934 7.77581 23.3904 8.23991L67.7009 34.034Z" stroke="#295CA9" stroke-width="0.75" stroke-miterlimit="10" stroke-linecap="round" stroke-linejoin="round"/>
<path d="M279.14 47.7055C279.14 47.8483 279.131 47.9911 279.112 48.1356C279.104 48.2512 279.085 48.3685 279.058 48.4841C279.041 48.5997 279.014 48.7068 278.978 48.8139C278.951 48.9125 278.925 49.0026 278.89 49.1012C278.701 49.6299 278.405 50.1484 278.004 50.6414C277.914 50.757 277.807 50.8726 277.709 50.9797C277.476 51.2398 277.207 51.4812 276.903 51.7226C276.804 51.8025 276.697 51.8841 276.59 51.964C276.582 51.964 276.582 51.9742 276.572 51.9742C276.456 52.0626 276.33 52.1425 276.205 52.2326C276.07 52.3125 275.927 52.4026 275.785 52.491L244.336 71.1638L184.927 36.5756L180.007 33.7128L173.085 33.7298L84.4096 33.9899L67.7014 34.0341L23.3909 8.23996C22.5939 7.77586 22.0126 7.25736 21.6268 6.70996C21.5385 6.56716 21.4586 6.43286 21.3872 6.30026C21.2886 6.09286 21.207 5.88716 21.1544 5.67296C21.1 5.45706 21.0728 5.24286 21.0728 5.03716C21.0643 2.70306 24.1404 0.457362 28.8193 0.447162L196.224 6.25209e-05C199.98 -0.00843748 203.568 0.850061 206.216 2.39876L275.696 42.8554C277.986 44.1899 279.14 45.9426 279.14 47.7055Z" stroke="#295CA9" stroke-width="0.75" stroke-miterlimit="10" stroke-linecap="round" stroke-linejoin="round"/>
<path d="M244.336 71.1639V85.1311L232.574 92.1079V78.1509L180.007 47.5441V33.7129L184.927 36.5757L244.336 71.1639Z" stroke="#295CA9" stroke-width="0.75" stroke-miterlimit="10" stroke-linecap="round" stroke-linejoin="round"/>
<path d="M138.38 78.4656C138.38 80.4512 137.102 82.447 134.534 83.9668L134.446 84.0229L107.048 100.278L84.4912 87.1424V43.8145L134.446 72.9015C135.107 73.2857 135.68 73.6954 136.171 74.1357C136.297 74.2428 136.412 74.3584 136.519 74.4655C136.941 74.8871 137.298 75.3155 137.575 75.7728C137.629 75.8527 137.673 75.9343 137.719 76.0227C137.799 76.1655 137.87 76.3083 137.933 76.4613C137.988 76.5786 138.032 76.6942 138.076 76.8098C138.112 76.8999 138.139 76.99 138.166 77.0801C138.175 77.1056 138.183 77.1328 138.193 77.1583C138.21 77.2127 138.229 77.2756 138.238 77.3283C138.273 77.4541 138.3 77.5799 138.317 77.7057C138.363 77.9556 138.38 78.2072 138.38 78.4656Z" stroke="#295CA9" stroke-width="0.75" stroke-miterlimit="10" stroke-linecap="round" stroke-linejoin="round"/>
<path d="M232.574 78.1523V92.1093L219.363 99.9565L185.616 119.988L180.75 122.886L173.828 122.905H173.746V113.072L207.494 93.0409L232.574 78.1523Z" stroke="#295CA9" stroke-width="0.75" stroke-miterlimit="10" stroke-linecap="round" stroke-linejoin="round"/>
<path d="M173.746 113.07V122.903L85.1504 123.155H85.062V113.33L129.247 113.205L134.444 113.186L138.378 113.177L173.746 113.07Z" stroke="#295CA9" stroke-width="0.75" stroke-miterlimit="10" stroke-linecap="round" stroke-linejoin="round"/>
<path d="M232.574 78.1527L207.494 93.0413L173.746 113.072L138.38 113.179L134.444 113.188L129.248 113.207L85.062 113.332L107.047 100.28L134.444 84.0228L134.534 83.9684C137.1 82.4469 138.38 80.4528 138.38 78.4672C138.38 78.2071 138.361 77.9572 138.317 77.7056C138.3 77.5798 138.273 77.4557 138.237 77.3299C138.227 77.2755 138.21 77.2126 138.191 77.1599C138.183 77.1327 138.174 77.1072 138.166 77.08C138.147 76.9899 138.111 76.9015 138.076 76.8114C138.04 76.6958 137.996 76.5785 137.931 76.4629C137.87 76.3099 137.799 76.1671 137.717 76.0243C137.673 75.9342 137.629 75.8526 137.574 75.7744C137.297 75.3171 136.939 74.887 136.519 74.4671C136.412 74.36 136.296 74.2427 136.171 74.1373C135.678 73.697 135.107 73.2873 134.444 72.9014L84.4893 43.8161L173.165 43.5645L180.007 47.5459L232.574 78.1527Z" stroke="#295CA9" stroke-width="0.75" stroke-miterlimit="10" stroke-linecap="round" stroke-linejoin="round"/>
<path d="M287.216 112.936V156.257C287.207 156.356 287.207 156.454 287.188 156.553C287.188 156.624 287.18 156.704 287.163 156.786C287.163 156.82 287.153 156.857 287.144 156.891C287.136 156.947 287.117 157.009 287.109 157.063C287.064 157.233 287.019 157.393 286.957 157.554C286.867 157.787 286.769 158.012 286.643 158.234C286.5 158.476 286.339 158.719 286.16 158.95C286.08 159.059 285.99 159.164 285.902 159.264C285.831 159.344 285.757 159.416 285.686 159.487C285.596 159.586 285.489 159.684 285.392 159.774C285.275 159.88 285.151 159.989 285.016 160.096C284.792 160.266 284.559 160.444 284.309 160.606C284.175 160.696 284.031 160.784 283.888 160.874L199.354 211.058C199.212 211.147 199.059 211.227 198.908 211.307C198.37 211.602 197.798 211.871 197.199 212.104C197.019 212.175 196.841 212.247 196.654 212.301C196.474 212.372 196.295 212.425 196.117 212.49C196.081 212.507 196.044 212.515 196.01 212.524C195.821 212.578 195.643 212.633 195.454 212.685C195.248 212.748 195.043 212.811 194.829 212.855C194.569 212.918 194.309 212.981 194.042 213.035C193.853 213.078 193.658 213.115 193.469 213.141C193.272 213.178 193.085 213.212 192.879 213.239C192.638 213.284 192.395 213.313 192.154 213.34C191.635 213.401 191.108 213.445 190.58 213.474H190.437C190.116 213.489 189.801 213.5 189.472 213.5L7.77371 213.545H7.71933C7.4423 213.545 7.17377 213.535 6.90524 213.518C6.85256 213.518 6.79817 213.508 6.74378 213.508C6.52114 213.489 6.3155 213.474 6.09966 213.445C5.85833 213.418 5.62547 213.384 5.39434 213.34C5.21419 213.313 5.03575 213.275 4.8658 213.231C4.8471 213.231 4.8216 213.222 4.7944 213.212C4.68733 213.187 4.57008 213.16 4.46301 213.132C4.44601 213.124 4.42731 213.124 4.41031 213.115C4.0874 213.025 3.78319 212.927 3.48917 212.82C3.06769 212.65 2.68358 212.471 2.32668 212.265C0.849776 211.407 0 210.208 0 208.991V165.651C0 165.901 0.0356964 166.163 0.107077 166.403C0.125772 166.455 0.134266 166.512 0.161458 166.564C0.312718 167.013 0.581258 167.441 0.939862 167.844C1.06393 167.968 1.19818 168.103 1.34094 168.229C1.51259 168.38 1.69954 168.533 1.90519 168.667C2.03945 168.756 2.18222 168.846 2.32668 168.934C2.50513 169.034 2.68359 169.133 2.88073 169.221C3.07618 169.311 3.27333 169.4 3.48917 169.481C3.79169 169.606 4.1231 169.713 4.46301 169.803C4.57008 169.83 4.68733 169.855 4.7944 169.884C4.99155 169.937 5.18869 169.973 5.39434 170.008C5.58129 170.046 5.76825 170.08 5.9569 170.099H5.96709C6.09116 170.117 6.21693 170.134 6.34099 170.143C6.58233 170.17 6.82537 170.189 7.07521 170.197C7.28935 170.206 7.50519 170.214 7.71933 170.214H7.77371L189.472 170.17C189.801 170.17 190.116 170.161 190.437 170.143C191.385 170.107 192.315 170.008 193.209 169.855C193.423 169.821 193.63 169.784 193.845 169.74C194.195 169.679 194.533 169.597 194.874 169.517C195.141 169.444 195.41 169.373 195.67 169.293C196.207 169.141 196.725 168.961 197.235 168.766C197.521 168.648 197.808 168.523 198.075 168.399C198.362 168.264 198.639 168.13 198.908 167.979C199.059 167.897 199.212 167.817 199.354 167.727L283.888 117.535C284.603 117.115 285.195 116.651 285.686 116.158C285.757 116.086 285.831 116.015 285.892 115.935C285.99 115.826 286.08 115.729 286.16 115.62C286.16 115.62 286.16 115.612 286.169 115.612C286.196 115.568 286.232 115.53 286.259 115.486C286.374 115.325 286.483 115.165 286.58 115.003C286.607 114.968 286.626 114.942 286.643 114.905C286.67 114.86 286.687 114.825 286.706 114.781C286.886 114.43 287.019 114.082 287.1 113.733C287.117 113.679 287.136 113.616 287.144 113.563C287.153 113.519 287.163 113.473 287.163 113.429C287.171 113.358 287.18 113.295 287.188 113.223C287.207 113.125 287.207 113.026 287.216 112.936Z" stroke="#295CA9" stroke-width="0.75" stroke-miterlimit="10" stroke-linecap="round" stroke-linejoin="round"/>
<path d="M287.216 112.936C287.207 113.026 287.207 113.125 287.188 113.223C287.18 113.295 287.171 113.358 287.163 113.429C287.144 113.528 287.127 113.625 287.1 113.733C287.019 114.082 286.886 114.43 286.706 114.781C286.67 114.852 286.626 114.932 286.58 115.003C286.483 115.165 286.374 115.325 286.259 115.486C286.223 115.53 286.196 115.568 286.16 115.612V115.62C286.08 115.729 285.99 115.826 285.892 115.935C285.831 116.015 285.757 116.086 285.686 116.158C285.195 116.651 284.603 117.115 283.888 117.535L199.354 167.727C199.212 167.817 199.059 167.897 198.908 167.979C198.639 168.13 198.362 168.264 198.075 168.399C197.808 168.523 197.521 168.649 197.235 168.766C196.725 168.961 196.207 169.142 195.67 169.293C195.41 169.373 195.141 169.444 194.874 169.517C194.533 169.597 194.195 169.679 193.845 169.74C193.63 169.784 193.423 169.822 193.209 169.856C192.315 170.009 191.385 170.107 190.437 170.143C190.116 170.162 189.801 170.17 189.472 170.17L7.77371 170.214H7.71933C7.50519 170.214 7.28935 170.206 7.07521 170.197C6.82537 170.189 6.58233 170.17 6.34099 170.143C6.21693 170.134 6.09116 170.117 5.96709 170.099H5.9569C5.76825 170.071 5.58129 170.046 5.39434 170.009C5.18869 169.973 4.99155 169.937 4.7944 169.884C4.68733 169.856 4.57008 169.83 4.46301 169.803C4.1231 169.713 3.79169 169.606 3.48917 169.482C3.27333 169.4 3.07618 169.312 2.88073 169.221C2.68359 169.133 2.50513 169.034 2.32668 168.934C2.18222 168.846 2.03945 168.756 1.90519 168.667C1.69954 168.533 1.51259 168.38 1.34094 168.229C1.19818 168.103 1.06393 167.969 0.939862 167.844C0.581258 167.442 0.312718 167.013 0.161458 166.564C0.134266 166.512 0.125772 166.456 0.107077 166.403C0.0356964 166.163 0 165.901 0 165.651C0 164.552 0.698504 163.424 2.25528 162.501L68.4354 123.208L85.062 123.155H85.1504L173.746 122.903H173.827L180.75 122.886L185.615 119.986L219.363 99.955L232.574 92.1078L244.336 85.131L244.452 85.0596L269.425 99.5963L283.8 107.97C286.143 109.332 287.287 111.138 287.216 112.936Z" stroke="#295CA9" stroke-width="0.75" stroke-miterlimit="10" stroke-linecap="round" stroke-linejoin="round"/>
</g>
<defs>
<clipPath id="clip0_115_9422">
<rect width="209" height="214" fill="white"/>
</clipPath>
</defs>
</svg>
