<svg width="28" height="28" viewBox="0 0 28 28" fill="none" xmlns="http://www.w3.org/2000/svg">
<circle cx="13.9993" cy="14.0001" r="13.3333" fill="#C13584"/>
<path d="M14 7.44143C16.1361 7.44143 16.3891 7.4496 17.2327 7.48808C18.0127 7.52365 18.4363 7.65398 18.7182 7.76353C19.0916 7.90866 19.3581 8.08201 19.638 8.36194C19.918 8.6419 20.0913 8.9084 20.2365 9.28182C20.346 9.56372 20.4763 9.98731 20.5119 10.7673C20.5504 11.6109 20.5586 11.8639 20.5586 14C20.5586 16.1361 20.5504 16.3891 20.5119 17.2326C20.4763 18.0126 20.346 18.4362 20.2365 18.7181C20.0913 19.0915 19.918 19.358 19.638 19.638C19.3581 19.9179 19.0916 20.0913 18.7182 20.2364C18.4363 20.346 18.0127 20.4763 17.2327 20.5119C16.3892 20.5503 16.1362 20.5585 14 20.5585C11.8638 20.5585 11.6108 20.5503 10.7673 20.5119C9.98732 20.4763 9.56373 20.346 9.28183 20.2364C8.90841 20.0913 8.64191 19.9179 8.36198 19.638C8.08205 19.358 7.90867 19.0915 7.76354 18.7181C7.65398 18.4362 7.52366 18.0126 7.48809 17.2326C7.4496 16.3891 7.44144 16.1361 7.44144 14C7.44144 11.8639 7.4496 11.6109 7.48809 10.7673C7.52366 9.98731 7.65398 9.56372 7.76354 9.28182C7.90867 8.9084 8.08202 8.6419 8.36198 8.36197C8.64191 8.08201 8.90841 7.90866 9.28183 7.76353C9.56373 7.65398 9.98732 7.52365 10.7673 7.48808C11.6109 7.4496 11.8639 7.44143 14 7.44143ZM14 6C11.8273 6 11.5549 6.00921 10.7016 6.04814C9.8501 6.08698 9.26855 6.22223 8.7597 6.41997C8.23363 6.62442 7.78748 6.89796 7.34271 7.3427C6.89797 7.78748 6.62442 8.23362 6.42001 8.75969C6.22223 9.26854 6.08698 9.85009 6.04814 10.7016C6.00921 11.5549 6 11.8273 6 14C6 16.1726 6.00921 16.4451 6.04814 17.2984C6.08698 18.1499 6.22223 18.7314 6.42001 19.2403C6.62442 19.7663 6.89797 20.2125 7.34271 20.6572C7.78748 21.102 8.23363 21.3755 8.7597 21.5799C9.26855 21.7777 9.8501 21.913 10.7016 21.9518C11.5549 21.9907 11.8273 21.9999 14 21.9999C16.1727 21.9999 16.4451 21.9907 17.2984 21.9518C18.1499 21.913 18.7314 21.7777 19.2403 21.5799C19.7664 21.3755 20.2125 21.102 20.6573 20.6572C21.102 20.2125 21.3756 19.7663 21.58 19.2403C21.7778 18.7314 21.913 18.1499 21.9519 17.2984C21.9908 16.4451 22 16.1726 22 14C22 11.8273 21.9908 11.5549 21.9519 10.7016C21.913 9.85009 21.7778 9.26854 21.58 8.75969C21.3756 8.23362 21.102 7.78748 20.6573 7.3427C20.2125 6.89796 19.7664 6.62442 19.2403 6.41997C18.7314 6.22223 18.1499 6.08698 17.2984 6.04814C16.4451 6.00921 16.1727 6 14 6Z" fill="white"/>
<path d="M14.0046 9.89551C11.7357 9.89551 9.89648 11.7347 9.89648 14.0036C9.89648 16.2725 11.7357 18.1117 14.0046 18.1117C16.2734 18.1117 18.1127 16.2725 18.1127 14.0036C18.1127 11.7347 16.2734 9.89551 14.0046 9.89551ZM14.0046 16.6703C12.5318 16.6703 11.3379 15.4764 11.3379 14.0036C11.3379 12.5308 12.5318 11.3369 14.0046 11.3369C15.4774 11.3369 16.6713 12.5308 16.6713 14.0036C16.6713 15.4764 15.4774 16.6703 14.0046 16.6703Z" fill="white"/>
<path d="M19.2345 9.73077C19.2345 10.2609 18.8046 10.6908 18.2744 10.6908C17.7443 10.6908 17.3145 10.2609 17.3145 9.73077C17.3145 9.20057 17.7443 8.77075 18.2744 8.77075C18.8046 8.77075 19.2345 9.20057 19.2345 9.73077Z" fill="white"/>
</svg>
