<svg width="33" height="32" viewBox="0 0 33 32" fill="none" xmlns="http://www.w3.org/2000/svg">
<path opacity="0.2" d="M13.2841 25.2079V28.9039H8.66007C8.19073 28.7187 7.7471 28.474 7.34007 28.1759C6.71845 27.7092 6.19168 27.1282 5.78807 26.4639C5.58139 26.1265 5.40728 25.7702 5.26807 25.3999V18.7759H6.95607C8.6465 18.7949 10.2608 19.4819 11.4464 20.687C12.632 21.8921 13.2926 23.5174 13.2841 25.2079Z" fill="white"/>
<path d="M12.876 6.23999H15.548" stroke="white" stroke-width="2" stroke-miterlimit="10" stroke-linecap="round"/>
<path d="M15.0921 29.312H8.46807C7.61937 29.312 6.80544 28.9749 6.20532 28.3747C5.60521 27.7746 5.26807 26.9607 5.26807 26.112V5.2C5.26807 4.35131 5.60521 3.53737 6.20532 2.93726C6.80544 2.33714 7.61937 2 8.46807 2H19.9481C20.7968 2 21.6107 2.33714 22.2108 2.93726C22.8109 3.53737 23.1481 4.35131 23.1481 5.2V14.4" stroke="white" stroke-width="2" stroke-miterlimit="10" stroke-linecap="round"/>
<path d="M28.308 21.6721V26.4001L24.74 30.0001V26.0001C24.7388 25.9007 24.717 25.8027 24.676 25.7121C24.641 25.619 24.5864 25.5344 24.516 25.4641C24.4429 25.3972 24.3591 25.3431 24.268 25.3041C24.1771 25.265 24.0789 25.2459 23.98 25.2481H19.98L23.548 21.6801L28.308 21.6721Z" fill="white"/>
<path d="M28.308 18.1839V21.6719H23.548L19.98 25.2319H15.092C15.0041 25.2328 14.9178 25.2078 14.844 25.1599C14.772 25.1106 14.7163 25.041 14.684 24.9599C14.66 24.8763 14.66 24.7876 14.684 24.7039C14.6992 24.6184 14.7412 24.5399 14.804 24.4799L21.564 17.7839C21.7098 17.6351 21.9078 17.549 22.116 17.5439H27.716C27.801 17.5443 27.8851 17.5606 27.964 17.5919C28.0419 17.6305 28.1145 17.6789 28.18 17.7359C28.2423 17.7974 28.2913 17.8709 28.324 17.9519C28.3554 18.0309 28.3716 18.115 28.372 18.1999" fill="#FBB421"/>
</svg>
