<svg xmlns="http://www.w3.org/2000/svg" width="45" height="47" viewBox="0 0 45 47" fill="none"><path d="M32.9415 9.90088V21.1323L24.568 29.5821V20.1351C24.568 19.9008 24.5221 19.6687 24.433 19.4522C24.3438 19.2357 24.2132 19.039 24.0485 18.8733C23.8838 18.7076 23.6882 18.5762 23.473 18.4865C23.2578 18.3968 23.0271 18.3507 22.7942 18.3507H13.4033L21.7768 9.92712L32.9415 9.90088Z" fill="#2A5CAA"/><path d="M32.9401 1.66184V9.90171H21.7755L13.402 18.3253H1.92428C1.72005 18.3224 1.52112 18.2593 1.35222 18.1437C1.18332 18.0282 1.05185 17.8654 0.974087 17.6754C0.89632 17.4854 0.875711 17.2766 0.914779 17.0749C0.953847 16.8733 1.05089 16.6875 1.19388 16.5408L17.054 0.717143C17.4022 0.371784 17.8693 0.174465 18.3582 0.166071H31.4011C31.6043 0.164339 31.8058 0.203108 31.9941 0.28014C32.1823 0.357171 32.3535 0.470935 32.4978 0.614877C32.6421 0.758818 32.7567 0.930086 32.8348 1.11879C32.913 1.30749 32.9532 1.5099 32.9532 1.71433" fill="#FDB525"/><path d="M44.1046 11.4623V27.6009C44.1017 28.0939 43.9048 28.5657 43.5568 28.9129L26.3272 46.0881C26.1838 46.233 26.0011 46.332 25.802 46.3728C25.6028 46.4135 25.3962 46.3941 25.208 46.3169C25.0198 46.2398 24.8585 46.1084 24.7443 45.9393C24.6302 45.7702 24.5683 45.5708 24.5664 45.3664V29.5821L32.9399 21.1585V9.90088H42.5655C42.9737 9.90088 43.3652 10.064 43.6538 10.3543C43.9425 10.6447 44.1046 11.0385 44.1046 11.4491" fill="#009C88"/></svg>