<svg width="13" height="13" viewBox="0 0 13 13" fill="none" xmlns="http://www.w3.org/2000/svg">
<path fill-rule="evenodd" clip-rule="evenodd" d="M3.09327 2.14275C3.39437 1.49316 4.42763 1.49316 6.49414 1.49316C8.56065 1.49316 9.59391 1.49316 9.89502 2.14275C9.9209 2.19859 9.94273 2.25659 9.96031 2.31621C10.1649 3.00981 9.43423 3.81372 7.97299 5.42153L6.99414 6.49316L7.97299 7.56479C9.43423 9.17261 10.1649 9.97652 9.96031 10.6701C9.94273 10.7297 9.9209 10.7877 9.89502 10.8436C9.59391 11.4932 8.56065 11.4932 6.49414 11.4932C4.42763 11.4932 3.39437 11.4932 3.09327 10.8436C3.06738 10.7877 3.04555 10.7297 3.02797 10.6701C2.82342 9.97652 3.55405 9.17261 5.01529 7.56479L5.99414 6.49316L5.01529 5.42154C3.55405 3.81372 2.82342 3.00981 3.02797 2.31621C3.04555 2.25659 3.06738 2.19859 3.09327 2.14275ZM5.49414 9.36816C5.28703 9.36816 5.11914 9.53606 5.11914 9.74316C5.11914 9.95027 5.28703 10.1182 5.49414 10.1182H7.49414C7.70125 10.1182 7.86914 9.95027 7.86914 9.74316C7.86914 9.53606 7.70125 9.36816 7.49414 9.36816H5.49414ZM5.11914 3.24316C5.11914 3.03606 5.28703 2.86816 5.49414 2.86816H7.49414C7.70125 2.86816 7.86914 3.03606 7.86914 3.24316C7.86914 3.45027 7.70125 3.61816 7.49414 3.61816H5.49414C5.28703 3.61816 5.11914 3.45027 5.11914 3.24316Z" fill="#295CA9"/>
</svg>
