<svg xmlns="http://www.w3.org/2000/svg" width="32" height="36" viewBox="0 0 32 36" fill="none">
<g id="Layer 1">
<path id="Vector" d="M18.2081 14.1406L17.8281 14.1706L18.2081 14.1406Z" fill="#1C274C"/>
<path id="Vector_2" d="M5.59146 24.1703C6.36146 22.7703 6.75146 22.0703 7.34146 22.0703C7.93146 22.0703 8.34146 22.7703 9.09146 24.1703L9.29146 24.5303C9.41065 24.8 9.58037 25.0444 9.79146 25.2503C10.0431 25.3981 10.322 25.4933 10.6115 25.5303L11.0015 25.6203C12.5115 25.9603 13.2715 26.1303 13.4515 26.7103C13.6315 27.2903 13.1115 27.8903 12.0815 29.1003L11.8115 29.4103C11.6007 29.6165 11.4311 29.8608 11.3115 30.1303C11.2542 30.4276 11.2542 30.733 11.3115 31.0303V31.4503C11.4715 33.0603 11.5415 33.8603 11.0715 34.2203C10.6015 34.5803 9.89146 34.2203 8.48146 33.6003L8.11146 33.4303C7.86487 33.2795 7.58852 33.184 7.30146 33.1503C7.01095 33.1826 6.73105 33.2782 6.48146 33.4303L6.11146 33.6003C4.70146 34.2503 3.99146 34.6003 3.52146 34.2203C3.05146 33.8403 3.13146 33.0603 3.28146 31.4503V31.0303C3.34406 30.7336 3.34406 30.427 3.28146 30.1303C3.16576 29.8587 2.99559 29.6136 2.78146 29.4103L2.51146 29.1003C1.51146 27.8903 0.971463 27.2903 1.15146 26.7103C1.33146 26.1303 2.08146 25.9603 3.59146 25.6203L3.98146 25.5303C4.2709 25.4933 4.54985 25.3981 4.80146 25.2503C5.0133 25.0429 5.18606 24.799 5.31146 24.5303L5.59146 24.1703Z" stroke="#FFB81C" stroke-width="1.75"/>
<path id="Vector_3" d="M10.4631 3H3.95312C2.57241 3 1.45312 4.11929 1.45312 5.5V16.2C1.45312 17.5807 2.57241 18.7 3.95312 18.7H10.4631C11.8438 18.7 12.9631 17.5807 12.9631 16.2V5.5C12.9631 4.11929 11.8438 3 10.4631 3Z" stroke="currentColor" stroke-width="2" stroke-linecap="round" stroke-linejoin="round"/>
<path id="Vector_4" d="M25.885 19.6309H19.375C17.9943 19.6309 16.875 20.7501 16.875 22.1309V31.4009C16.875 32.7816 17.9943 33.9009 19.375 33.9009H25.885C27.2657 33.9009 28.385 32.7816 28.385 31.4009V22.1309C28.385 20.7501 27.2657 19.6309 25.885 19.6309Z" stroke="currentColor" stroke-width="2" stroke-linecap="round" stroke-linejoin="round"/>
<path id="Vector_5" d="M28.5681 6.11086C29.8052 6.11086 30.8081 5.10798 30.8081 3.87086C30.8081 2.63374 29.8052 1.63086 28.5681 1.63086C27.331 1.63086 26.3281 2.63374 26.3281 3.87086C26.3281 5.10798 27.331 6.11086 28.5681 6.11086Z" stroke="currentColor" stroke-width="1.5" stroke-linecap="round" stroke-linejoin="round"/>
<path id="Vector_6" d="M19.6641 11L21.4041 9.26C21.4747 9.18865 21.5588 9.132 21.6515 9.09335C21.7442 9.05469 21.8436 9.03479 21.9441 9.03479C22.0445 9.03479 22.1439 9.05469 22.2366 9.09335C22.3293 9.132 22.4134 9.18865 22.4841 9.26L23.6941 10.47C23.8393 10.6093 24.0328 10.6872 24.2341 10.6872C24.4353 10.6872 24.6288 10.6093 24.7741 10.47L27.2741 8M27.2741 8V9.9M27.2741 8H25.3741" stroke="#FFB81C" stroke-width="1.5" stroke-linecap="round" stroke-linejoin="round"/>
<path id="Vector_7" d="M29.9194 8.66V13.9C29.9089 14.4606 29.6788 14.9947 29.2786 15.3874C28.8784 15.7801 28.3401 16.0001 27.7794 16H18.9994C18.4318 16 17.8875 15.7745 17.4862 15.3732C17.0848 14.9719 16.8594 14.4276 16.8594 13.86V5.14C16.8594 4.57244 17.0848 4.02812 17.4862 3.62679C17.8875 3.22546 18.4318 3 18.9994 3H23.9994" stroke="#009E87" stroke-width="2" stroke-linecap="round" stroke-linejoin="round"/>
</g>
</svg>