<svg width="28" height="28" viewBox="0 0 28 28" fill="none" xmlns="http://www.w3.org/2000/svg">
<circle cx="13.9993" cy="14.0001" r="13.3333" fill="#0077B5"/>
<path fill-rule="evenodd" clip-rule="evenodd" d="M10.5171 7.52259C10.5171 8.35265 9.88513 9.0244 8.89675 9.0244C7.94689 9.0244 7.31487 8.35265 7.33443 7.52259C7.31487 6.65219 7.94687 6 8.91569 6C9.88511 6 10.4982 6.65219 10.5171 7.52259ZM7.41389 19.8794V10.2108H10.4187V19.8788H7.41389V19.8794Z" fill="white"/>
<path fill-rule="evenodd" clip-rule="evenodd" d="M12.8275 13.2964C12.8275 12.0904 12.7878 11.0623 12.748 10.2121H15.358L15.4968 11.5367H15.5561C15.9515 10.9236 16.9399 9.99512 18.5414 9.99512C20.5181 9.99512 22.001 11.3001 22.001 14.146V19.8807H18.9961V14.5226C18.9961 13.2762 18.5615 12.4266 17.4741 12.4266C16.6435 12.4266 16.1496 13 15.9522 13.5531C15.8727 13.7512 15.8336 14.0274 15.8336 14.3049V19.8807H12.8287V13.2964H12.8275Z" fill="white"/>
</svg>
