<svg width="25" height="24" viewBox="0 0 25 24" fill="none" xmlns="http://www.w3.org/2000/svg">
<path d="M15.25 22.75H9.25C3.82 22.75 1.5 20.43 1.5 15V9C1.5 3.57 3.82 1.25 9.25 1.25H15.25C20.68 1.25 23 3.57 23 9V15C23 20.43 20.68 22.75 15.25 22.75ZM9.25 2.75C4.64 2.75 3 4.39 3 9V15C3 19.61 4.64 21.25 9.25 21.25H15.25C19.86 21.25 21.5 19.61 21.5 15V9C21.5 4.39 19.86 2.75 15.25 2.75H9.25Z" fill="white"/>
<path d="M11.01 16.3701C10.59 16.3701 10.2 16.2701 9.84997 16.0701C9.04997 15.6101 8.58997 14.67 8.58997 13.48V10.52C8.58997 9.34005 9.04997 8.39005 9.84997 7.93005C10.65 7.47005 11.69 7.54005 12.72 8.14005L15.29 9.62005C16.31 10.21 16.9 11.08 16.9 12C16.9 12.92 16.31 13.7901 15.29 14.3801L12.72 15.8601C12.14 16.2001 11.55 16.3701 11.01 16.3701ZM11.02 9.13005C10.86 9.13005 10.72 9.16005 10.61 9.23005C10.29 9.42005 10.1 9.89005 10.1 10.52V13.48C10.1 14.11 10.28 14.5801 10.61 14.7701C10.93 14.9601 11.43 14.8801 11.98 14.5601L14.55 13.08C15.1 12.76 15.41 12.37 15.41 12C15.41 11.63 15.1 11.23 14.55 10.92L11.98 9.44005C11.62 9.23005 11.29 9.13005 11.02 9.13005Z" fill="white"/>
</svg>
