<svg width="33" height="33" viewBox="0 0 33 33" fill="none" xmlns="http://www.w3.org/2000/svg">
<path d="M16.8411 2.29492C11.1429 2.29492 6.38281 6.61252 6.38281 12.1061C6.38281 17.2278 9.55471 23.245 14.6923 25.4405C16.0581 26.0242 17.6242 26.0242 18.99 25.4405C24.1276 23.245 27.2995 17.2278 27.2995 12.1061C27.2995 6.61252 22.5394 2.29492 16.8411 2.29492ZM8.63281 12.1061C8.63281 8.00464 12.2306 4.54492 16.8411 4.54492C21.4517 4.54492 25.0495 8.00464 25.0495 12.1061C25.0495 14.3001 24.355 16.6734 23.1369 18.7215C21.9187 20.7698 20.1822 22.4842 18.1058 23.3715C17.3047 23.7138 16.3776 23.7138 15.5765 23.3715C13.5001 22.4842 11.7636 20.7698 10.5454 18.7215C9.32728 16.6734 8.63281 14.3001 8.63281 12.1061ZM15.2995 12.7533C15.2995 11.9018 15.9897 11.2116 16.8411 11.2116C17.6926 11.2116 18.3828 11.9018 18.3828 12.7533C18.3828 13.6047 17.6926 14.2949 16.8411 14.2949C15.9897 14.2949 15.2995 13.6047 15.2995 12.7533ZM16.8411 8.96159C14.7471 8.96159 13.0495 10.6592 13.0495 12.7533C13.0495 14.8473 14.7471 16.5449 16.8411 16.5449C18.9352 16.5449 20.6328 14.8473 20.6328 12.7533C20.6328 10.6592 18.9352 8.96159 16.8411 8.96159ZM5.64889 22.2538C6.10945 21.8368 6.14473 21.1254 5.72768 20.6648C5.31064 20.2042 4.59921 20.169 4.13865 20.586C3.10516 21.5218 2.38281 22.7078 2.38281 24.0866C2.38281 26.4622 4.46863 28.2379 6.9514 29.3551C9.54028 30.5201 13.0378 31.2116 16.8411 31.2116C20.6445 31.2116 24.142 30.5201 26.7309 29.3551C29.2137 28.2379 31.2995 26.4622 31.2995 24.0866C31.2995 22.7078 30.5771 21.5218 29.5436 20.586C29.0831 20.169 28.3716 20.2042 27.9546 20.6648C27.5376 21.1254 27.5728 21.8368 28.0334 22.2538C28.7738 22.9243 29.0495 23.5492 29.0495 24.0866C29.0495 24.555 28.8273 25.0942 28.3067 25.6519C27.7861 26.2094 26.9727 26.779 25.8076 27.3033C23.5707 28.3099 20.4016 28.9616 16.8411 28.9616C13.2807 28.9616 10.1116 28.3099 7.87472 27.3033C6.7096 26.779 5.89615 26.2094 5.37564 25.6519C4.85501 25.0942 4.63281 24.555 4.63281 24.0866C4.63281 23.5492 4.90846 22.9243 5.64889 22.2538Z" fill="#235BA8" stroke="#235BA8" stroke-width="0.25" stroke-linecap="round"/>
</svg>
