<svg width="20" height="19" viewBox="0 0 20 19" fill="none" xmlns="http://www.w3.org/2000/svg">
<path fill-rule="evenodd" clip-rule="evenodd" d="M14.94 0.420898C16.281 0.420898 17.571 0.950898 18.52 1.9019C19.47 2.8509 20.001 4.1309 20.001 5.4709V13.3709C20.001 16.1609 17.731 18.4209 14.94 18.4209H5.06098C2.26998 18.4209 0.000976562 16.1609 0.000976562 13.3709V5.4709C0.000976562 2.6809 2.25998 0.420898 5.06098 0.420898H14.94ZM16.531 6.9609L16.611 6.8809C16.85 6.5909 16.85 6.1709 16.6 5.8809C16.461 5.7319 16.27 5.6409 16.071 5.6209C15.861 5.6099 15.661 5.6809 15.51 5.8209L11.001 9.4209C10.421 9.9019 9.58999 9.9019 9.00099 9.4209L4.50098 5.8209C4.18998 5.5909 3.75998 5.6209 3.50098 5.8909C3.23098 6.1609 3.20098 6.5909 3.42998 6.8909L3.56098 7.0209L8.11099 10.5709C8.67099 11.0109 9.34999 11.2509 10.061 11.2509C10.77 11.2509 11.461 11.0109 12.02 10.5709L16.531 6.9609Z" fill="white"/>
</svg>
