<svg width="24" height="24" viewBox="0 0 24 24" fill="none" xmlns="http://www.w3.org/2000/svg">
<path d="M12 12.4209C13.6569 12.4209 15 11.0778 15 9.4209C15 7.76404 13.6569 6.4209 12 6.4209C10.3431 6.4209 9 7.76404 9 9.4209C9 11.0778 10.3431 12.4209 12 12.4209Z" stroke="currentColor" stroke-width="2" stroke-linecap="round" stroke-linejoin="round"/>
<path d="M12 1.4209C9.87827 1.4209 7.84344 2.26375 6.34315 3.76404C4.84285 5.26434 4 7.29917 4 9.4209C4 11.3129 4.402 12.5509 5.5 13.9209L12 21.4209L18.5 13.9209C19.598 12.5509 20 11.3129 20 9.4209C20 7.29917 19.1571 5.26434 17.6569 3.76404C16.1566 2.26375 14.1217 1.4209 12 1.4209V1.4209Z" stroke="currentColor" stroke-width="2" stroke-linecap="round" stroke-linejoin="round"/>
</svg>
