<svg width="25" height="24" viewBox="0 0 25 24" fill="none" xmlns="http://www.w3.org/2000/svg">
<path d="M12.6621 0C6.03811 0 0.662109 5.376 0.662109 12C0.662109 18.624 6.03811 24 12.6621 24C19.2861 24 24.6621 18.624 24.6621 12C24.6621 5.376 19.2861 0 12.6621 0ZM17.4981 12.636L13.8981 16.236C13.7181 16.416 13.4901 16.5 13.2621 16.5C13.0341 16.5 12.8061 16.416 12.6261 16.236C12.2781 15.888 12.2781 15.312 12.6261 14.964L14.6901 12.9H8.46211C7.97011 12.9 7.56211 12.492 7.56211 12C7.56211 11.508 7.97011 11.1 8.46211 11.1H14.6901L12.6261 9.036C12.2781 8.688 12.2781 8.112 12.6261 7.764C12.9741 7.416 13.5501 7.416 13.8981 7.764L17.4981 11.364C17.8461 11.712 17.8461 12.288 17.4981 12.636Z" fill="#235BA8"/>
</svg>
