<svg width="18" height="16" viewBox="0 0 18 16" fill="none" xmlns="http://www.w3.org/2000/svg">
<path fill-rule="evenodd" clip-rule="evenodd" d="M17.3758 6.73828L11.1258 0.488281C10.9008 0.250781 10.5883 0.113281 10.2383 0.113281C9.55078 0.113281 8.98828 0.675781 8.98828 1.36328C8.98828 1.71328 9.12578 2.02578 9.35078 2.25078L13.4633 6.36328L1.48828 6.36328C0.800781 6.36328 0.238281 6.92578 0.238281 7.61328C0.238281 8.30078 0.800781 8.86328 1.48828 8.86328L13.4758 8.86328L9.36328 12.9758C9.13828 13.2008 9.00078 13.5133 9.00078 13.8633C9.00078 14.5508 9.56328 15.1133 10.2508 15.1133C10.6008 15.1133 10.9133 14.9758 11.1383 14.7508L17.3883 8.50078C17.6133 8.27578 17.7508 7.96328 17.7508 7.61328C17.7508 7.26328 17.6008 6.96328 17.3758 6.73828Z" fill="#235BA8"/>
</svg>
