<svg width="36" height="36" viewBox="0 0 36 36" fill="none" xmlns="http://www.w3.org/2000/svg">
<path d="M18.5675 34.0273H5.6875C4.62663 34.0273 3.60922 33.6059 2.85907 32.8558C2.10893 32.1056 1.6875 31.0882 1.6875 30.0273V5.02734C1.6875 3.96648 2.10893 2.94906 2.85907 2.19892C3.60922 1.44877 4.62663 1.02734 5.6875 1.02734H25.4775C26.5384 1.02734 27.5558 1.44877 28.3059 2.19892C29.0561 2.94906 29.4775 3.96648 29.4775 5.02734V17.1173" stroke="currentColor" stroke-width="2" stroke-miterlimit="10" stroke-linecap="round" class="transition-all duration-500"/>
<path d="M8.19531 14.8066H18.4053" stroke="#009E87" stroke-width="2" stroke-linecap="round" stroke-linejoin="round"/>
<path d="M8.19531 8.20703H21.5253" stroke="#009E87" stroke-width="2" stroke-linecap="round" stroke-linejoin="round"/>
<path d="M8.19531 21.4082H14.2653" stroke="#009E87" stroke-width="2" stroke-linecap="round" stroke-linejoin="round"/>
<path d="M27.0737 34.3975C31.0668 34.3975 34.3038 31.1605 34.3038 27.1675C34.3038 23.1745 31.0668 19.9375 27.0737 19.9375C23.0807 19.9375 19.8438 23.1745 19.8438 27.1675C19.8438 31.1605 23.0807 34.3975 27.0737 34.3975Z" stroke="#FFB81C" stroke-width="1.75"/>
<path d="M25.2979 25.7082C25.2872 25.3924 25.3602 25.0794 25.5097 24.8009C25.6591 24.5225 25.8796 24.2886 26.1487 24.123C26.4178 23.9574 26.726 23.8659 27.0419 23.858C27.3578 23.85 27.6702 23.9259 27.9473 24.0778C28.2244 24.2297 28.4563 24.4522 28.6196 24.7228C28.7828 24.9934 28.8715 25.3023 28.8766 25.6183C28.8818 25.9342 28.8032 26.2459 28.6488 26.5217C28.4945 26.7974 28.2699 27.0274 27.9979 27.1882C27.7583 27.2967 27.5496 27.4633 27.3907 27.6728C27.2318 27.8824 27.1277 28.1283 27.0879 28.3882V29.0582" stroke="#FFB81C" stroke-width="1.25" stroke-linecap="round"/>
<path d="M27.075 32.277C27.5997 32.277 28.025 31.8516 28.025 31.327C28.025 30.8023 27.5997 30.377 27.075 30.377C26.5503 30.377 26.125 30.8023 26.125 31.327C26.125 31.8516 26.5503 32.277 27.075 32.277Z" fill="#FFB81C"/>
</svg>
