<svg width="20" height="20" viewBox="0 0 20 20" fill="none" xmlns="http://www.w3.org/2000/svg">
<path fill-rule="evenodd" clip-rule="evenodd" d="M7.49984 1.04199C5.31371 1.04199 3.5415 2.8142 3.5415 5.00033C3.5415 7.18645 5.31371 8.95866 7.49984 8.95866C9.68596 8.95866 11.4582 7.18645 11.4582 5.00033C11.4582 2.8142 9.68596 1.04199 7.49984 1.04199ZM4.7915 5.00033C4.7915 3.50455 6.00407 2.29199 7.49984 2.29199C8.99561 2.29199 10.2082 3.50455 10.2082 5.00033C10.2082 6.4961 8.99561 7.70866 7.49984 7.70866C6.00407 7.70866 4.7915 6.4961 4.7915 5.00033Z" fill="#898A8D"/>
<path d="M12.4998 1.87533C12.1547 1.87533 11.8748 2.15515 11.8748 2.50033C11.8748 2.8455 12.1547 3.12533 12.4998 3.12533C13.5354 3.12533 14.3748 3.96479 14.3748 5.00033C14.3748 6.03586 13.5354 6.87533 12.4998 6.87533C12.1547 6.87533 11.8748 7.15515 11.8748 7.50033C11.8748 7.8455 12.1547 8.12533 12.4998 8.12533C14.2257 8.12533 15.6248 6.72622 15.6248 5.00033C15.6248 3.27444 14.2257 1.87533 12.4998 1.87533Z" fill="#898A8D"/>
<path fill-rule="evenodd" clip-rule="evenodd" d="M3.06496 11.2673C4.2311 10.601 5.80039 10.2087 7.49984 10.2087C9.19928 10.2087 10.7686 10.601 11.9347 11.2673C13.0832 11.9236 13.9582 12.9254 13.9582 14.167C13.9582 15.4085 13.0832 16.4104 11.9347 17.0667C10.7686 17.733 9.19928 18.1253 7.49984 18.1253C5.80039 18.1253 4.2311 17.733 3.06496 17.0667C1.9165 16.4104 1.0415 15.4085 1.0415 14.167C1.0415 12.9254 1.9165 11.9236 3.06496 11.2673ZM3.68513 12.3526C2.72234 12.9028 2.2915 13.5676 2.2915 14.167C2.2915 14.7664 2.72234 15.4312 3.68513 15.9814C4.63025 16.5214 5.97762 16.8753 7.49984 16.8753C9.02205 16.8753 10.3694 16.5214 11.3145 15.9814C12.2773 15.4312 12.7082 14.7664 12.7082 14.167C12.7082 13.5676 12.2773 12.9028 11.3145 12.3526C10.3694 11.8126 9.02205 11.4587 7.49984 11.4587C5.97762 11.4587 4.63025 11.8126 3.68513 12.3526Z" fill="#898A8D"/>
<path d="M15.1337 11.0565C14.7965 10.9826 14.4633 11.1959 14.3893 11.5331C14.3154 11.8703 14.5288 12.2035 14.866 12.2775C15.5263 12.4223 16.054 12.671 16.4022 12.956C16.751 13.2414 16.8748 13.5201 16.8748 13.7503C16.8748 13.9592 16.7743 14.2045 16.4973 14.4619C16.2182 14.7212 15.7894 14.9607 15.2363 15.1272C14.9058 15.2267 14.7185 15.5754 14.818 15.9059C14.9176 16.2364 15.2662 16.4237 15.5967 16.3241C16.2822 16.1177 16.8951 15.7985 17.348 15.3777C17.803 14.9551 18.1248 14.3992 18.1248 13.7503C18.1248 13.0297 17.7296 12.427 17.1938 11.9886C16.6576 11.5498 15.9353 11.2323 15.1337 11.0565Z" fill="#898A8D"/>
</svg>
