<svg xmlns="http://www.w3.org/2000/svg" width="226" height="192" viewBox="0 0 226 192" fill="none">
  <g opacity="0.5" clip-path="url(#clip0_5562_21019)">
    <g opacity="0.1">
      <path d="M192.753 24.9183L192.73 32.2571L129.279 32.1159L123.998 35.1597L124.025 24.7603L129.284 24.7719L192.753 24.9183Z" stroke="#1B468D" stroke-width="2" stroke-miterlimit="10" stroke-linecap="round" stroke-linejoin="round"/>
    </g>
    <g opacity="0.1">
      <path d="M124.025 24.7612L123.998 35.1607L81.6388 59.5578L81.5714 82.2724L72.5753 87.4533L63.5986 92.6213L63.6933 59.5176L72.6725 54.3445L120.311 26.9036L124.025 24.7612Z" stroke="#1B468D" stroke-width="2" stroke-miterlimit="10" stroke-linecap="round" stroke-linejoin="round"/>
    </g>
    <g opacity="0.1">
      <path d="M63.6933 59.5182L63.5973 92.6219L16.2612 92.5157C16.1769 92.5157 16.0991 92.5157 16.0149 92.5092C15.941 92.5092 15.8684 92.504 15.7958 92.4975C15.6998 92.4975 15.6052 92.4924 15.5093 92.4872C15.4756 92.482 15.4367 92.482 15.403 92.482C15.3239 92.4755 15.2513 92.4652 15.1722 92.4535C15.0892 92.4419 14.9985 92.4367 14.9142 92.425C14.887 92.4198 14.8584 92.4198 14.8312 92.4134C14.7521 92.403 14.6847 92.3913 14.6121 92.3745C14.5162 92.3641 14.4215 92.3473 14.3256 92.3305C14.3036 92.3253 14.275 92.3188 14.253 92.3136C14.1908 92.302 14.1402 92.2851 14.078 92.2748C13.9665 92.2463 13.8485 92.2178 13.7357 92.1906C13.7085 92.1789 13.6748 92.1724 13.6463 92.1673C13.6074 92.1569 13.5737 92.1401 13.5399 92.1284C13.3766 92.0831 13.2197 92.0274 13.068 91.9717C13.0343 91.96 12.9954 91.9497 12.9617 91.9315C12.9449 91.9263 12.928 91.9212 12.9112 91.9095C12.7258 91.837 12.5521 91.758 12.3835 91.6738C12.3783 91.6686 12.3667 91.6634 12.3615 91.6569C12.2046 91.5792 12.0581 91.4898 11.9181 91.3992C11.874 91.372 11.8286 91.3435 11.7833 91.3098C11.6821 91.2425 11.5875 91.1699 11.498 91.0961C11.4578 91.0624 11.4138 91.03 11.3736 90.9964C11.2789 90.9122 11.1947 90.828 11.1104 90.7386C11.0884 90.7153 11.0598 90.6933 11.0378 90.6648C10.9419 90.5534 10.8524 90.4355 10.7733 90.3177C10.7565 90.2892 10.7396 90.262 10.7228 90.2335C10.667 90.1389 10.6164 90.0483 10.5711 89.9537C10.5542 89.9135 10.5387 89.8747 10.5205 89.8358C10.4868 89.7452 10.4596 89.6558 10.4362 89.5664C10.4259 89.5263 10.4142 89.4874 10.409 89.4486C10.387 89.3255 10.3701 89.196 10.3701 89.0678L10.4648 55.9692C10.4648 56.0314 10.4712 56.0923 10.4764 56.1545C10.4816 56.2218 10.4868 56.284 10.5049 56.3449C10.527 56.4744 10.5607 56.6039 10.6164 56.727C10.6281 56.771 10.645 56.8163 10.667 56.8552C10.7059 56.951 10.7565 57.0404 10.8122 57.1246C10.9976 57.4393 11.2621 57.7308 11.5927 57.9937C11.6821 58.0714 11.7781 58.1452 11.8792 58.2061C12.0529 58.3356 12.2487 58.447 12.4522 58.5545C12.5404 58.605 12.6363 58.6491 12.7323 58.6944C12.8217 58.7333 12.9112 58.7721 13.0006 58.8071C13.0577 58.8291 13.1134 58.8511 13.1692 58.8732C13.4842 58.991 13.82 59.0921 14.1739 59.1711C14.1856 59.1762 14.2024 59.1827 14.2128 59.1827C14.4656 59.2384 14.7288 59.2889 15.0049 59.3226C15.0322 59.3278 15.0607 59.333 15.0827 59.333C15.3018 59.3615 15.5209 59.3783 15.7452 59.3887C15.8684 59.4003 15.9928 59.4068 16.1212 59.4068C16.2003 59.412 16.2781 59.412 16.3571 59.412L63.6933 59.5182Z" stroke="#1B468D" stroke-width="2" stroke-miterlimit="10" stroke-linecap="round" stroke-linejoin="round"/>
    </g>
    <g opacity="0.1">
      <path d="M192.774 5.28073L192.751 24.9191L129.282 24.7728L124.025 24.7611L120.31 26.9034L72.6713 54.3444L63.6934 59.5188L16.3572 59.4113C16.2781 59.4113 16.2004 59.4113 16.1213 59.4061C15.9929 59.4061 15.8685 59.401 15.7453 59.3893C15.6999 59.3893 15.6558 59.3841 15.6053 59.3789C15.4925 59.3725 15.381 59.3608 15.2682 59.3504C15.2073 59.3453 15.145 59.3388 15.0828 59.3336C15.0608 59.3336 15.0323 59.3284 15.005 59.322C14.9039 59.3051 14.8028 59.2883 14.7068 59.2714C14.6122 59.2546 14.5111 59.2442 14.4216 59.2222C14.3477 59.2041 14.2803 59.1937 14.2142 59.1821C14.2025 59.1821 14.1857 59.1769 14.174 59.1704C13.8201 59.0927 13.4843 58.9917 13.1692 58.8738C13.1135 58.8518 13.0578 58.8285 13.0007 58.8064C12.9113 58.7728 12.8218 58.7339 12.7324 58.6938C12.6364 58.6497 12.5405 58.6044 12.4523 58.5539C12.3019 58.4749 12.1593 58.3907 12.0232 58.3026L12.0141 58.2961C11.9687 58.2689 11.9234 58.2353 11.8793 58.2068C11.7782 58.1342 11.6822 58.0669 11.5928 57.993C11.2622 57.7301 10.999 57.4387 10.8123 57.1239C10.7617 57.0359 10.7125 56.9517 10.6671 56.8558C10.6451 56.817 10.6282 56.7716 10.6165 56.7263C10.5608 56.6032 10.5271 56.4737 10.505 56.3455C10.4934 56.2833 10.4817 56.2225 10.4765 56.1551C10.4713 56.0929 10.4648 56.032 10.4648 55.9699C10.4648 55.1293 11.0042 54.277 12.2047 53.5815L102.163 1.79395C104.189 0.639894 106.9 -0.00642799 109.738 4.82038e-05L183.969 0.168426C188.835 0.180083 192.774 2.47266 192.774 5.28073Z" stroke="#1B468D" stroke-width="2" stroke-miterlimit="10" stroke-linecap="round" stroke-linejoin="round"/>
    </g>
    <g opacity="0.1">
      <path d="M120.843 59.6465L81.6386 59.5571L81.5712 82.2717L81.5439 92.6595L134.911 92.7826L135.007 59.6802L120.843 59.6465Z" stroke="#1B468D" stroke-width="2" stroke-miterlimit="10" stroke-linecap="round" stroke-linejoin="round"/>
    </g>
    <g opacity="0.1">
      <path d="M136.634 92.8786C136.793 92.8954 136.953 92.911 137.11 92.9317C137.268 92.9524 137.422 92.977 137.578 93.0029C137.753 93.0301 137.928 93.0599 138.099 93.0936C138.236 93.1208 138.371 93.1493 138.506 93.1804C138.716 93.227 138.923 93.2775 139.126 93.3319C139.242 93.3643 139.358 93.3954 139.47 93.4291C139.848 93.5404 140.216 93.6609 140.562 93.7982C140.801 93.8915 141.03 93.9938 141.253 94.0987C141.301 94.1207 141.349 94.144 141.396 94.166C141.612 94.2723 141.821 94.3823 142.021 94.4976C142.053 94.5158 142.082 94.5339 142.114 94.552C142.294 94.6595 142.469 94.7722 142.638 94.8875C142.667 94.9082 142.7 94.9289 142.73 94.951C142.909 95.0779 143.077 95.2087 143.238 95.3447C143.272 95.3732 143.305 95.403 143.338 95.4328C143.496 95.5714 143.648 95.7126 143.786 95.8602C143.788 95.8615 143.79 95.8641 143.792 95.8654C143.929 96.0131 144.053 96.1659 144.169 96.3213C144.195 96.355 144.221 96.3874 144.243 96.421C144.353 96.5752 144.453 96.7306 144.54 96.8899C144.553 96.9158 144.564 96.9417 144.578 96.9676C144.655 97.1153 144.721 97.2655 144.777 97.4171C144.788 97.4456 144.8 97.4728 144.811 97.5013C144.868 97.6671 144.91 97.8354 144.943 98.0051C144.949 98.0427 144.956 98.0802 144.961 98.1178C144.988 98.294 145.008 98.4714 145.008 98.6527L145.101 65.5465C145.101 65.3664 145.083 65.189 145.054 65.0128C145.049 64.9753 145.044 64.9377 145.036 64.9001C145.004 64.7305 144.961 64.5621 144.904 64.395C144.894 64.3678 144.882 64.3406 144.871 64.3121C144.816 64.1606 144.75 64.0103 144.672 63.8639C144.659 63.8367 144.647 63.8108 144.633 63.7849C144.547 63.6256 144.446 63.4689 144.337 63.3161C144.314 63.2824 144.288 63.25 144.263 63.2163C144.147 63.0609 144.024 62.9081 143.885 62.7604C143.884 62.7578 143.881 62.7565 143.878 62.7539C143.741 62.6076 143.589 62.4664 143.432 62.3278C143.399 62.298 143.365 62.2682 143.33 62.2384C143.171 62.1037 143.003 61.9729 142.824 61.846C142.793 61.8239 142.762 61.8032 142.73 61.7812C142.562 61.6672 142.389 61.5558 142.209 61.4483C142.176 61.4289 142.146 61.4108 142.115 61.3913C141.914 61.2761 141.706 61.1673 141.49 61.0623C141.442 61.0377 141.394 61.0157 141.345 60.9924C141.123 60.8888 140.898 60.7878 140.661 60.6945C140.659 60.6932 140.658 60.6932 140.657 60.6932C140.309 60.5559 139.941 60.4354 139.564 60.3241C139.518 60.3098 139.476 60.2917 139.429 60.2787C139.362 60.2593 139.289 60.2463 139.22 60.2269C139.018 60.1725 138.811 60.122 138.601 60.0741C138.521 60.0572 138.448 60.0352 138.368 60.0184C138.311 60.0067 138.25 59.999 138.193 59.9873C138.021 59.9549 137.847 59.9251 137.671 59.8966C137.571 59.8811 137.474 59.8591 137.373 59.8448C137.317 59.837 137.259 59.8332 137.203 59.8267C137.046 59.806 136.888 59.7891 136.728 59.7736C136.618 59.7619 136.511 59.7451 136.399 59.7373C136.338 59.7321 136.277 59.7308 136.215 59.727C136.057 59.7153 135.896 59.7088 135.735 59.701C135.625 59.6959 135.518 59.6868 135.406 59.6842C135.273 59.6803 135.14 59.679 135.005 59.6777L134.912 92.7827C135.157 92.784 135.398 92.7957 135.638 92.806C135.8 92.8138 135.962 92.8203 136.122 92.8319C136.294 92.8449 136.464 92.8604 136.634 92.8786Z" stroke="#1B468D" stroke-width="2" stroke-miterlimit="10" stroke-linecap="round" stroke-linejoin="round"/>
    </g>
    <g opacity="0.1">
      <path d="M205.433 32.29L205.394 69.0204L205.383 72.059V72.0642L205.332 72.0914L205.339 65.3937L205.433 32.29Z" stroke="#1B468D" stroke-width="2" stroke-miterlimit="10" stroke-linecap="round" stroke-linejoin="round"/>
    </g>
    <g opacity="0.1">
      <path d="M256.215 37.4529L256.153 90.2325C256.153 90.2947 256.153 90.3556 256.141 90.4126C256.136 90.4682 256.131 90.5239 256.126 90.5861C256.119 90.6366 256.114 90.6871 256.107 90.7377C256.102 90.7882 256.096 90.8322 256.085 90.8827V90.8879C256.085 90.906 256.08 90.9229 256.075 90.9384C256.069 90.9721 256.063 91.0071 256.052 91.0407C256.04 91.0848 256.028 91.1353 256.013 91.1858C255.996 91.2363 255.984 91.2868 255.973 91.3374C255.957 91.3879 255.939 91.4319 255.922 91.4824C255.922 91.4941 255.918 91.5005 255.912 91.5109C255.895 91.5498 255.883 91.5951 255.861 91.634C255.861 91.6391 255.861 91.6508 255.856 91.6573C255.839 91.6909 255.821 91.7182 255.811 91.7518C255.782 91.8023 255.759 91.858 255.738 91.915C255.715 91.9707 255.687 92.0264 255.652 92.0821C255.632 92.1223 255.614 92.1559 255.586 92.1948C255.563 92.2285 255.536 92.2673 255.514 92.3075C255.44 92.4305 255.362 92.5419 255.276 92.665C255.271 92.6714 255.267 92.6766 255.261 92.6883C255.256 92.6935 255.249 92.7051 255.244 92.7103C255.221 92.7388 255.199 92.7673 255.177 92.7945C255.108 92.8787 255.042 92.9629 254.963 93.0471C254.946 93.0691 254.93 93.0924 254.912 93.1092C254.907 93.1196 254.9 93.1248 254.895 93.1313C254.88 93.1481 254.862 93.1585 254.851 93.1753C254.723 93.3048 254.593 93.4395 254.447 93.5626C254.329 93.6688 254.199 93.7698 254.071 93.8708C254.032 93.8993 253.992 93.933 253.953 93.9667C253.936 93.977 253.914 93.9939 253.892 94.0055C253.874 94.0276 253.853 94.0392 253.83 94.0561C253.791 94.0846 253.745 94.1117 253.705 94.1402C253.56 94.2413 253.415 94.3475 253.251 94.4433L253.034 94.578L154.994 150.547C154.904 150.597 154.803 150.653 154.708 150.699C154.612 150.75 154.511 150.794 154.416 150.839C154.36 150.861 154.298 150.889 154.242 150.912C154.163 150.945 154.086 150.978 154.007 151.008C153.927 151.035 153.848 151.063 153.765 151.091C153.71 151.107 153.659 151.131 153.602 151.146C153.523 151.17 153.45 151.192 153.373 151.215C153.361 151.22 153.344 151.22 153.334 151.225C153.248 151.247 153.17 151.271 153.086 151.287C152.99 151.309 152.901 151.333 152.81 151.35H152.805C152.722 151.365 152.643 151.382 152.558 151.4C152.435 151.422 152.307 151.439 152.182 151.456C152.093 151.466 152.009 151.478 151.919 151.489C151.857 151.495 151.79 151.495 151.727 151.501C151.609 151.512 151.488 151.522 151.363 151.528H151.329C151.183 151.534 151.038 151.54 150.892 151.54C150.756 151.54 150.628 151.534 150.5 151.528C150.404 151.522 150.303 151.517 150.203 151.512C150.117 151.506 150.028 151.501 149.937 151.489C149.837 151.478 149.736 151.466 149.635 151.456C149.551 151.444 149.466 151.433 149.383 151.422C149.372 151.422 149.365 151.416 149.354 151.416C149.176 151.388 148.996 151.353 148.821 151.315C148.753 151.303 148.682 151.287 148.613 151.264C148.552 151.254 148.49 151.237 148.428 151.22C148.366 151.203 148.311 151.186 148.249 151.17C148.148 151.141 148.047 151.114 147.951 151.08C147.94 151.075 147.93 151.075 147.924 151.069C147.755 151.018 147.593 150.957 147.436 150.889C147.323 150.839 147.217 150.794 147.111 150.743C147.087 150.732 147.06 150.721 147.037 150.71C147.003 150.693 146.969 150.671 146.936 150.653C146.88 150.632 146.829 150.597 146.779 150.57C146.728 150.543 146.678 150.514 146.634 150.486C146.583 150.457 146.531 150.43 146.481 150.395C146.42 150.356 146.364 150.317 146.302 150.273C146.246 150.233 146.19 150.194 146.133 150.149C146.116 150.139 146.099 150.127 146.083 150.11C145.959 150.014 145.847 149.908 145.74 149.802C145.735 149.795 145.729 149.785 145.718 149.78C145.701 149.751 145.678 149.729 145.657 149.701C145.622 149.662 145.583 149.623 145.55 149.576C145.521 149.538 145.489 149.499 145.46 149.46C145.427 149.415 145.403 149.369 145.376 149.33C145.325 149.251 145.281 149.168 145.241 149.089C145.219 149.039 145.196 148.994 145.175 148.95C145.14 148.86 145.113 148.769 145.09 148.68C145.078 148.641 145.067 148.608 145.056 148.574C145.056 148.569 145.051 148.557 145.051 148.551C145.051 148.54 145.045 148.53 145.045 148.518C145.027 148.394 145.012 148.272 145.012 148.143V148.136L145.034 129.503L145.056 106.815L154.035 101.641L192.678 79.3797L201.673 74.2001L205.332 72.0914L205.382 72.0642V72.0577H205.388L205.394 69.0204L205.433 32.29L247.473 32.3846C252.302 32.3898 256.215 34.6603 256.215 37.4529Z" stroke="#1B468D" stroke-width="2" stroke-miterlimit="10" stroke-linecap="round" stroke-linejoin="round"/>
    </g>
    <g opacity="0.1">
      <path d="M256.153 90.2329L256.057 123.337V123.438C256.057 123.522 256.035 123.606 256.029 123.69C256.018 123.79 256.013 123.891 255.996 123.992C255.99 124.009 255.99 124.026 255.99 124.043C255.973 124.127 255.939 124.211 255.917 124.289C255.89 124.391 255.867 124.491 255.833 124.592C255.828 124.609 255.821 124.625 255.816 124.637C255.789 124.716 255.749 124.782 255.715 124.855C255.664 124.967 255.62 125.08 255.563 125.186C255.553 125.203 255.546 125.225 255.535 125.242C255.502 125.299 255.457 125.355 255.424 125.41C255.339 125.54 255.261 125.668 255.165 125.792C255.143 125.82 255.126 125.853 255.103 125.882C255.013 125.993 254.919 126.106 254.818 126.217C254.813 126.224 254.806 126.229 254.801 126.234C254.688 126.358 254.57 126.475 254.447 126.593C254.418 126.616 254.386 126.643 254.351 126.667C254.25 126.756 254.144 126.845 254.032 126.93C253.936 127.009 253.841 127.086 253.735 127.165C253.617 127.25 253.493 127.327 253.364 127.411C253.28 127.468 253.208 127.524 253.122 127.575C253.061 127.613 252.999 127.647 252.938 127.681L154.897 183.651C154.713 183.763 154.516 183.853 154.32 183.943C154.263 183.971 154.208 183.993 154.152 184.015C153.989 184.082 153.832 184.144 153.67 184.2C153.636 184.211 153.601 184.222 153.569 184.234C153.545 184.239 153.53 184.245 153.512 184.25C153.423 184.278 153.327 184.307 153.237 184.328C153.154 184.351 153.075 184.375 152.99 184.397C152.896 184.419 152.805 184.436 152.71 184.452C152.643 184.469 152.574 184.487 152.508 184.496C152.496 184.496 152.48 184.503 152.468 184.503C152.255 184.543 152.036 184.57 151.822 184.594C151.813 184.594 151.801 184.597 151.79 184.597C151.739 184.604 151.684 184.604 151.633 184.609C151.503 184.621 151.37 184.626 151.234 184.632C151.212 184.638 151.183 184.638 151.156 184.638C151.038 184.644 150.913 184.644 150.795 184.644H150.567C150.517 184.644 150.46 184.638 150.41 184.632C150.308 184.632 150.207 184.626 150.112 184.614C150.073 184.614 150.033 184.614 149.994 184.609C149.944 184.609 149.893 184.597 149.843 184.594C149.741 184.587 149.64 184.575 149.54 184.559C149.5 184.553 149.455 184.553 149.416 184.547C149.372 184.543 149.332 184.531 149.293 184.526C149.18 184.508 149.067 184.487 148.956 184.469C148.91 184.458 148.86 184.452 148.816 184.441C148.789 184.436 148.76 184.43 148.731 184.419C148.585 184.39 148.451 184.358 148.31 184.319C148.271 184.307 148.227 184.301 148.182 184.289C148.17 184.284 148.165 184.278 148.153 184.278C147.934 184.212 147.722 184.139 147.514 184.06C147.496 184.055 147.475 184.05 147.452 184.043C147.413 184.026 147.379 184.009 147.339 183.993C147.233 183.949 147.12 183.897 147.014 183.846C146.958 183.819 146.897 183.791 146.841 183.763C146.735 183.706 146.633 183.651 146.538 183.588C146.487 183.561 146.437 183.533 146.391 183.506C146.268 183.427 146.15 183.342 146.043 183.258C146.027 183.243 146.004 183.231 145.987 183.219C145.865 183.118 145.752 183.012 145.651 182.906C145.617 182.871 145.59 182.837 145.56 182.805C145.494 182.726 145.427 182.648 145.365 182.563C145.336 182.524 145.309 182.48 145.28 182.434C145.23 182.355 145.184 182.276 145.145 182.194C145.123 182.148 145.101 182.104 145.078 182.054C145.046 181.969 145.016 181.874 144.995 181.784C144.983 181.744 144.967 181.7 144.96 181.655C144.933 181.52 144.916 181.38 144.916 181.24L145.011 148.143C145.011 148.273 145.028 148.394 145.046 148.519C145.046 148.53 145.051 148.541 145.051 148.551C145.051 148.557 145.056 148.569 145.056 148.574C145.085 148.704 145.123 148.826 145.174 148.95C145.196 148.994 145.219 149.039 145.241 149.09C145.275 149.174 145.321 149.252 145.376 149.331C145.403 149.37 145.427 149.415 145.461 149.46C145.489 149.499 145.521 149.538 145.549 149.577C145.584 149.623 145.623 149.662 145.658 149.701C145.678 149.73 145.702 149.752 145.717 149.78C145.729 149.785 145.735 149.796 145.741 149.802C145.847 149.908 145.96 150.015 146.083 150.11C146.1 150.127 146.117 150.139 146.133 150.149C146.19 150.195 146.246 150.234 146.302 150.272C146.363 150.318 146.419 150.357 146.481 150.395C146.531 150.43 146.582 150.458 146.633 150.486C146.678 150.515 146.728 150.543 146.779 150.57C146.863 150.626 146.948 150.665 147.037 150.71C147.06 150.722 147.088 150.732 147.111 150.744C147.217 150.794 147.324 150.84 147.436 150.889C147.593 150.958 147.755 151.018 147.924 151.069C147.929 151.075 147.941 151.075 147.951 151.081C148.047 151.114 148.147 151.141 148.249 151.17C148.31 151.187 148.366 151.204 148.428 151.22C148.49 151.237 148.553 151.254 148.614 151.265C148.682 151.288 148.754 151.303 148.821 151.315C148.996 151.354 149.175 151.389 149.354 151.416C149.365 151.416 149.372 151.423 149.384 151.423C149.467 151.433 149.55 151.445 149.635 151.456C149.736 151.467 149.837 151.478 149.937 151.49C150.028 151.502 150.117 151.507 150.202 151.512C150.303 151.517 150.404 151.522 150.5 151.529C150.627 151.534 150.757 151.54 150.893 151.54C151.038 151.54 151.183 151.534 151.33 151.529H151.363C151.547 151.522 151.734 151.507 151.919 151.49C152.009 151.478 152.092 151.467 152.183 151.456C152.306 151.439 152.435 151.423 152.559 151.401C152.643 151.382 152.722 151.366 152.805 151.35H152.81C152.9 151.333 152.99 151.31 153.086 151.288C153.169 151.271 153.248 151.248 153.333 151.226C153.344 151.22 153.361 151.22 153.373 151.215C153.451 151.192 153.523 151.17 153.601 151.147C153.658 151.131 153.709 151.108 153.764 151.091C153.849 151.064 153.926 151.035 154.007 151.008C154.085 150.978 154.164 150.946 154.243 150.912C154.298 150.889 154.359 150.862 154.415 150.84C154.511 150.794 154.612 150.75 154.708 150.7C154.803 150.653 154.904 150.597 154.995 150.547L253.034 94.5771L253.252 94.4424C253.415 94.3479 253.56 94.2417 253.705 94.1406C253.746 94.1121 253.791 94.0849 253.83 94.0564C253.874 94.0228 253.913 93.9943 253.953 93.9671C253.992 93.9334 254.032 93.8997 254.071 93.8712C254.199 93.7702 254.329 93.6692 254.447 93.563C254.593 93.4399 254.722 93.3052 254.851 93.1757C254.862 93.1588 254.88 93.1485 254.896 93.1317C254.901 93.1252 254.907 93.12 254.912 93.1096C254.931 93.0928 254.946 93.0695 254.963 93.0475C255.042 92.9633 255.108 92.8791 255.177 92.7949C255.199 92.7677 255.221 92.7392 255.244 92.7107C255.249 92.7055 255.256 92.6939 255.261 92.6887C255.266 92.677 255.271 92.6718 255.277 92.6654C255.322 92.6097 255.362 92.5488 255.401 92.4866C255.469 92.3921 255.531 92.2962 255.587 92.1952C255.614 92.1563 255.632 92.1214 255.653 92.0825C255.688 92.0268 255.715 91.9711 255.738 91.9154C255.782 91.8312 255.821 91.747 255.856 91.6577C255.86 91.6512 255.86 91.6395 255.86 91.6344C255.883 91.5955 255.895 91.5502 255.911 91.5113C255.917 91.5009 255.922 91.4945 255.922 91.4828C255.939 91.4323 255.957 91.3883 255.973 91.3377C256.008 91.2367 256.029 91.1409 256.052 91.0411C256.064 91.0075 256.069 90.9725 256.074 90.9388C256.079 90.9233 256.086 90.9064 256.086 90.8883V90.8831C256.096 90.8326 256.102 90.7886 256.108 90.7381C256.126 90.6318 256.141 90.5243 256.141 90.4129C256.153 90.356 256.153 90.2951 256.153 90.2329Z" stroke="#1B468D" stroke-width="2" stroke-miterlimit="10" stroke-linecap="round" stroke-linejoin="round"/>
    </g>
    <g opacity="0.1">
      <path d="M145.102 65.5445L145.068 96.4333L144.972 129.537L145.007 98.6533L145.102 65.5445Z" stroke="#1B468D" stroke-width="2" stroke-miterlimit="10" stroke-linecap="round" stroke-linejoin="round"/>
    </g>
    <g opacity="0.1">
      <path d="M192.746 32.2566L192.707 68.9869L145.068 96.433L145.101 65.5442C145.107 62.3204 140.579 59.6923 135.007 59.6807L120.843 59.647L81.6387 59.5576L123.998 35.1605L129.278 32.1167L192.729 32.2566H192.746Z" stroke="#1B468D" stroke-width="2" stroke-miterlimit="10" stroke-linecap="round" stroke-linejoin="round"/>
    </g>
    <g opacity="0.1">
      <path d="M192.706 68.9868L192.679 79.3798L154.034 101.641L145.055 106.816L145.034 129.503L144.987 129.525L144.972 129.537L145.066 96.4329L192.706 68.9868Z" stroke="#1B468D" stroke-width="2" stroke-miterlimit="10" stroke-linecap="round" stroke-linejoin="round"/>
    </g>
    <g opacity="0.1">
      <path d="M145.056 106.815L145.034 129.503L145.012 148.136V148.143L144.917 181.24L144.961 139.919L144.988 129.525L145.056 106.815Z" stroke="#1B468D" stroke-width="2" stroke-miterlimit="10" stroke-linecap="round" stroke-linejoin="round"/>
    </g>
  </g>
  <defs>
    <clipPath id="clip0_5562_21019">
      <rect width="256" height="192" fill="white"/>
    </clipPath>
  </defs>
</svg>