<svg xmlns="http://www.w3.org/2000/svg" width="23" height="24" viewBox="0 0 23 24" fill="none">
  <path d="M17.9932 8V10.1C17.5827 10.04 17.1162 10.01 16.5938 10V8C16.5938 4.85 15.7635 2.75 11.6958 2.75C7.62818 2.75 6.79785 4.85 6.79785 8V10C6.27541 10.01 5.80893 10.04 5.39844 10.1V8C5.39844 5.1 6.0515 1.25 11.6958 1.25C17.3401 1.25 17.9932 5.1 17.9932 8Z" fill="#40EBD5"/>
  <path d="M21.0261 15V17C21.0261 21 20.0931 22 16.3614 22H7.03191C3.30013 22 2.36719 21 2.36719 17V15C2.36719 11.66 3.02025 10.41 5.39926 10.1C5.80975 10.04 6.27623 10.01 6.79867 10H16.5946C17.117 10.01 17.5835 10.04 17.994 10.1C20.373 10.41 21.0261 11.66 21.0261 15Z" fill="#507FC8"/>
  <path d="M7.96419 16.9999C7.84291 16.9999 7.72162 16.9699 7.60967 16.9199C7.48839 16.8699 7.39511 16.7999 7.30181 16.7099C7.13388 16.5199 7.03125 16.2599 7.03125 15.9999C7.03125 15.8699 7.05923 15.7399 7.10587 15.6199C7.15252 15.4999 7.21785 15.3899 7.30181 15.2899C7.39511 15.1999 7.48839 15.1299 7.60967 15.0799C7.95486 14.9199 8.36535 15.0099 8.62658 15.2899C8.71054 15.3899 8.77587 15.4999 8.82252 15.6199C8.86916 15.7399 8.89714 15.8699 8.89714 15.9999C8.89714 16.2599 8.79451 16.5199 8.62658 16.7099C8.44932 16.8899 8.20676 16.9999 7.96419 16.9999Z" fill="#40EBD5"/>
  <path d="M11.6947 17.0002C11.4428 17.0002 11.2095 16.8902 11.0323 16.7102C10.9483 16.6102 10.883 16.5002 10.8363 16.3802C10.7897 16.2602 10.7617 16.1302 10.7617 16.0002C10.7617 15.7302 10.8644 15.4802 11.0323 15.2902C11.3775 14.9202 12.0025 14.9202 12.357 15.2902C12.525 15.4802 12.6276 15.7302 12.6276 16.0002C12.6276 16.1302 12.5996 16.2602 12.553 16.3802C12.5063 16.5002 12.441 16.6102 12.357 16.7102C12.1798 16.8902 11.9372 17.0002 11.6947 17.0002Z" fill="#40EBD5"/>
  <path d="M15.429 17.0002C15.1865 17.0002 14.9439 16.8902 14.7667 16.7102C14.5987 16.5202 14.4961 16.2702 14.4961 16.0002C14.4961 15.7302 14.5987 15.4802 14.7667 15.2902C15.1212 14.9202 15.7462 14.9202 16.0914 15.2902C16.1287 15.3402 16.1661 15.3902 16.2034 15.4502C16.2407 15.5002 16.2687 15.5602 16.2874 15.6202C16.3153 15.6802 16.334 15.7402 16.3433 15.8002C16.3527 15.8702 16.362 15.9402 16.362 16.0002C16.362 16.2602 16.2594 16.5202 16.0914 16.7102C15.9142 16.8902 15.6716 17.0002 15.429 17.0002Z" fill="#40EBD5"/>
</svg>