<svg width="24" height="23" viewBox="0 0 24 23" fill="none" xmlns="http://www.w3.org/2000/svg">
<path d="M18.558 22.9999C18.3244 22.9993 18.0915 22.9742 17.8634 22.9251C13.5197 22.0445 9.51811 19.9798 6.31902 16.9686C3.18821 13.9509 1.01682 10.1086 0.0675746 5.90667C-0.0443532 5.38298 -0.0168817 4.83988 0.147346 4.32962C0.311574 3.81935 0.607031 3.35909 1.00529 2.99312L3.78371 0.372283C3.92563 0.240757 4.09424 0.140036 4.27856 0.0766958C4.46288 0.0133551 4.65876 -0.011182 4.85341 0.00468595C5.05523 0.0253211 5.25 0.0890382 5.424 0.191356C5.59801 0.293675 5.74703 0.43211 5.86058 0.596926L9.33361 5.62757C9.46385 5.82276 9.52672 6.05377 9.51297 6.28661C9.49921 6.51944 9.40956 6.7418 9.25721 6.92096L7.51375 8.96317C8.20811 10.4693 9.19146 11.8305 10.4103 12.9727C11.6212 14.1564 13.0524 15.1015 14.6265 15.7569L16.7867 14.0755C16.9682 13.935 17.1889 13.8519 17.4197 13.8373C17.6505 13.8227 17.8803 13.8773 18.0787 13.9938L23.323 17.3158C23.5029 17.4211 23.6563 17.565 23.7714 17.7366C23.8866 17.9082 23.9607 18.1032 23.9881 18.3068C24.0155 18.5105 23.9955 18.7176 23.9296 18.9126C23.8638 19.1076 23.7537 19.2855 23.6078 19.4329L20.8988 22.0605C20.5911 22.3606 20.2258 22.5981 19.8241 22.7593C19.4224 22.9206 18.9921 23.0023 18.558 22.9999ZM4.74227 1.35254L1.96385 3.97338C1.7398 4.17797 1.57396 4.4362 1.48261 4.72265C1.39127 5.00911 1.37758 5.31393 1.44289 5.60714C2.32554 9.55006 4.35448 13.1581 7.28453 15.9952C10.2951 18.8281 14.0608 20.7701 18.1482 21.5976C18.4575 21.661 18.7781 21.6482 19.0812 21.5603C19.3843 21.4723 19.6603 21.3121 19.8847 21.0939L22.5936 18.4662L17.53 15.26L15.21 17.0707C15.1212 17.1396 15.0165 17.1862 14.9051 17.2064C14.7937 17.2265 14.679 17.2197 14.5709 17.1865C12.6446 16.4909 10.8989 15.3867 9.45864 13.953C7.96896 12.5896 6.81263 10.9142 6.07591 9.05167C6.04475 8.93891 6.04371 8.8202 6.07291 8.70694C6.1021 8.59368 6.16055 8.48969 6.24262 8.40497L8.11805 6.20619L4.74227 1.35254Z" fill="currentColor"/>
</svg>
