<svg width="25" height="24" viewBox="0 0 25 24" fill="none" xmlns="http://www.w3.org/2000/svg">
<path d="M12.6621 24C19.2861 24 24.6621 18.624 24.6621 12C24.6621 5.376 19.2861 4.69985e-07 12.6621 1.04907e-06C6.03811 1.62816e-06 0.662108 5.376 0.662108 12C0.662109 18.624 6.03811 24 12.6621 24ZM7.82611 11.364L11.4261 7.764C11.6061 7.584 11.8341 7.5 12.0621 7.5C12.2901 7.5 12.5181 7.584 12.6981 7.764C13.0461 8.112 13.0461 8.688 12.6981 9.036L10.6341 11.1L16.8621 11.1C17.3541 11.1 17.7621 11.508 17.7621 12C17.7621 12.492 17.3541 12.9 16.8621 12.9L10.6341 12.9L12.6981 14.964C13.0461 15.312 13.0461 15.888 12.6981 16.236C12.3501 16.584 11.7741 16.584 11.4261 16.236L7.82611 12.636C7.47811 12.288 7.47811 11.712 7.82611 11.364Z" fill="#235BA8"/>
</svg>
