<svg width="18" height="16" viewBox="0 0 18 16" fill="none" xmlns="http://www.w3.org/2000/svg">
<path fill-rule="evenodd" clip-rule="evenodd" d="M0.430864 8.84766L6.68086 15.0977C6.90586 15.3352 7.21836 15.4727 7.56836 15.4727C8.25586 15.4727 8.81836 14.9102 8.81836 14.2227C8.81836 13.8727 8.68086 13.5602 8.45586 13.3352L4.34336 9.22266L16.3184 9.22266C17.0059 9.22266 17.5684 8.66016 17.5684 7.97266C17.5684 7.28516 17.0059 6.72266 16.3184 6.72266L4.33086 6.72266L8.44336 2.61016C8.66836 2.38516 8.80586 2.07266 8.80586 1.72266C8.80586 1.03516 8.24336 0.472658 7.55586 0.472658C7.20586 0.472658 6.89336 0.610158 6.66836 0.835158L0.418363 7.08516C0.193363 7.31016 0.055864 7.62266 0.055864 7.97266C0.055864 8.32266 0.205864 8.62266 0.430864 8.84766Z" fill="#235BA8"/>
</svg>
