<svg width="41" height="40" viewBox="0 0 41 40" fill="none" xmlns="http://www.w3.org/2000/svg">
<path d="M11.5 3.50002H8.13005C7.25125 3.49735 6.40725 3.84322 5.78304 4.46181C5.15883 5.08039 4.80534 5.92123 4.80005 6.80002V10.1" stroke="#F8BC29" stroke-width="2" stroke-linecap="round" stroke-linejoin="round"/>
<path d="M11.5 17.6499H21.68" stroke="#129B86" stroke-width="2" stroke-linecap="round" stroke-linejoin="round"/>
<path d="M11.5 11.05H24.8" stroke="#129B86" stroke-width="2" stroke-linecap="round" stroke-linejoin="round"/>
<path d="M11.5 24.25H17.5" stroke="#129B86" stroke-width="2" stroke-linecap="round" stroke-linejoin="round"/>
<path d="M16.5 3.5H24.29C29.84 3.8 32.62 5.83 32.62 13.38V19.59" stroke="#2B5EAA" stroke-width="2" stroke-miterlimit="10" stroke-linecap="round"/>
<path d="M4.80005 15.0701V26.5701C4.80005 33.1801 6.46005 36.5001 14.8 36.5001H21.68" stroke="#2B5EAA" stroke-width="2" stroke-miterlimit="10" stroke-linecap="round"/>
<path d="M30.35 37.23C34.343 37.23 37.58 33.993 37.58 30C37.58 26.007 34.343 22.77 30.35 22.77C26.357 22.77 23.12 26.007 23.12 30C23.12 33.993 26.357 37.23 30.35 37.23Z" stroke="#F8BC29" stroke-width="1.75"/>
<path d="M28.57 28.4899C28.5634 28.1745 28.6404 27.8629 28.7931 27.5868C28.9457 27.3106 29.1687 27.0798 29.4393 26.9175C29.7099 26.7553 30.0186 26.6675 30.3341 26.663C30.6496 26.6585 30.9606 26.7375 31.2358 26.8919C31.5109 27.0464 31.7403 27.2708 31.9008 27.5425C32.0613 27.8141 32.1471 28.1234 32.1495 28.4389C32.152 28.7544 32.071 29.065 31.9148 29.3391C31.7586 29.6132 31.5327 29.8412 31.26 29.9999C31.0204 30.1084 30.8117 30.275 30.6528 30.4845C30.4939 30.6941 30.3898 30.94 30.35 31.1999V31.8699" stroke="#F8BC29" stroke-width="1.25" stroke-linecap="round"/>
<path d="M30.35 35.12C30.8747 35.12 31.3 34.6946 31.3 34.17C31.3 33.6453 30.8747 33.22 30.35 33.22C29.8254 33.22 29.4 33.6453 29.4 34.17C29.4 34.6946 29.8254 35.12 30.35 35.12Z" fill="#F8BC29"/>
</svg>
