<svg width="75" height="57" viewBox="0 0 75 57" fill="none" xmlns="http://www.w3.org/2000/svg">
<path opacity="0.2" d="M6.90124 51.4342C2.62755 46.9551 0.332031 41.9314 0.332031 33.7864C0.332031 19.4565 10.5293 6.61167 25.3566 0.26123L29.0625 5.90394C15.2225 13.2896 12.516 22.8752 11.4376 28.9186C13.6662 27.7802 16.5842 27.3832 19.4427 27.6459C26.9299 28.3296 32.8304 34.3934 32.8304 41.9314C32.8304 45.7315 31.2996 49.377 28.5761 52.0652C25.8514 54.7522 22.1577 56.2624 18.3047 56.2624C14.003 56.2241 9.89465 54.4859 6.90124 51.4342ZM48.4029 51.4342C44.128 46.9551 41.8325 41.9314 41.8325 33.7876C41.8325 19.4565 52.0298 6.61167 66.8582 0.26123L70.5641 5.90394C56.7229 13.2896 54.0177 22.8752 52.9392 28.9186C55.1679 27.7802 58.0847 27.3832 60.9444 27.6459C68.4315 28.3296 74.3332 34.3934 74.3332 41.9314C74.3332 45.7315 72.8025 49.377 70.079 52.0652C67.3543 54.7522 63.6606 56.2624 59.8075 56.2624C55.5034 56.2241 51.3951 54.4859 48.4029 51.4342Z" fill="#295CA9"/>
</svg>
