<svg xmlns="http://www.w3.org/2000/svg" width="133" height="101" viewBox="0 0 133 101" fill="none">
  <g clip-path="url(#clip0_4300_9801)">
    <path opacity="0.2" d="M11.8068 92.2942C4.12572 84.2157 0 75.1551 0 60.465C0 34.62 18.3276 11.4535 44.9765 0L51.6371 10.177C26.7626 23.4976 21.8982 40.786 19.9599 51.6856C23.9655 49.6324 29.21 48.9163 34.3475 49.3901C47.8042 50.6233 58.4092 61.5597 58.4092 75.1551C58.4092 82.009 55.658 88.5838 50.763 93.4321C45.8659 98.2783 39.2272 101.002 32.3022 101.002C24.5708 100.933 17.1869 97.7981 11.8068 92.2942ZM86.3977 92.2942C78.7144 84.2157 74.5886 75.155 74.5886 60.4672C74.5886 34.62 92.9162 11.4535 119.567 0L126.228 10.177C101.351 23.4976 96.4891 40.786 94.5508 51.6856C98.5563 49.6324 103.799 48.9163 108.938 49.3901C122.395 50.6233 133.002 61.5597 133.002 75.1551C133.002 82.009 130.251 88.5838 125.356 93.4321C120.459 98.2783 113.82 101.002 106.895 101.002C99.1594 100.933 91.7755 97.7981 86.3977 92.2942Z" fill="#295CA9"/>
  </g>
  <defs>
    <clipPath id="clip0_4300_9801">
      <rect width="133" height="101" fill="white"/>
    </clipPath>
  </defs>
</svg>