<svg width="20" height="20" viewBox="0 0 20 20" fill="none" xmlns="http://www.w3.org/2000/svg">
<path fill-rule="evenodd" clip-rule="evenodd" d="M15.302 2.54785C15.6472 2.54785 15.927 2.82767 15.927 3.17285V6.70839C15.927 7.05356 15.6472 7.33339 15.302 7.33339H11.7665C11.4213 7.33339 11.1415 7.05356 11.1415 6.70839C11.1415 6.36321 11.4213 6.08339 11.7665 6.08339H13.7334C11.3623 4.21415 7.91428 4.37338 5.72659 6.56107C3.36718 8.92049 3.36718 12.7459 5.72659 15.1053C8.08601 17.4647 11.9114 17.4647 14.2708 15.1053C15.8515 13.5246 16.374 11.2855 15.8353 9.26806C15.7462 8.93457 15.9444 8.59203 16.2779 8.50297C16.6113 8.41391 16.9539 8.61206 17.0429 8.94555C17.6921 11.3764 17.0637 14.0802 15.1547 15.9892C12.3071 18.8367 7.69028 18.8367 4.84271 15.9892C1.99514 13.1416 1.99514 8.52476 4.84271 5.67719C7.53606 2.98384 11.8122 2.83797 14.677 5.23957V3.17285C14.677 2.82767 14.9568 2.54785 15.302 2.54785Z" fill="#235BA8"/>
</svg>
