<svg width="31" height="30" viewBox="0 0 31 30" fill="none" xmlns="http://www.w3.org/2000/svg">
<path d="M4.30859 3.75H26.8086" stroke="#235BA8" stroke-width="1.5" stroke-miterlimit="10" stroke-linecap="round"/>
<path d="M15.5586 25.125V20.625" stroke="#009E87" stroke-width="1.5" stroke-linecap="round"/>
<path d="M13.3086 26.25L15.5586 25.125" stroke="#009E87" stroke-width="1.5" stroke-linecap="round"/>
<path d="M17.8086 26.25L15.5586 25.125" stroke="#009E87" stroke-width="1.5" stroke-linecap="round"/>
<path d="M18.1611 8.87207V11.6546L16.0761 13.7471V11.4071C16.0754 11.35 16.0626 11.2938 16.0386 11.2421C16.0179 11.1853 15.9846 11.134 15.9411 11.0921C15.8995 11.0536 15.8512 11.0231 15.7986 11.0021C15.7465 10.9791 15.6905 10.9663 15.6336 10.9646H13.3086L15.4011 8.87957L18.1611 8.87207Z" fill="#235BA8"/>
<path d="M18.1608 6.83246V8.87246H15.3783L13.3083 10.9575H10.4283C10.3772 10.9585 10.3271 10.9427 10.2858 10.9125C10.2437 10.8845 10.21 10.8456 10.1883 10.8C10.1768 10.7506 10.1768 10.6993 10.1883 10.65C10.2016 10.6009 10.2246 10.555 10.2558 10.515L14.2008 6.59996C14.2859 6.51263 14.4015 6.46157 14.5233 6.45746H17.8083C17.8581 6.45038 17.9086 6.45038 17.9583 6.45746C18.0037 6.47611 18.0446 6.50423 18.0783 6.53996C18.1149 6.57743 18.1453 6.62047 18.1683 6.66746C18.1753 6.7147 18.1753 6.76271 18.1683 6.80996" fill="#FFB81C"/>
<path d="M20.9437 9.26207V13.2596C20.9447 13.3197 20.9332 13.3795 20.91 13.435C20.8868 13.4905 20.8523 13.5406 20.8087 13.5821L16.5112 17.8421C16.4748 17.8746 16.431 17.8978 16.3837 17.9096C16.3348 17.9246 16.2825 17.9246 16.2337 17.9096C16.1873 17.8927 16.1478 17.8611 16.1212 17.8196C16.0927 17.7774 16.077 17.7279 16.0762 17.6771V13.7471L18.1612 11.6621V8.87207H20.5612C20.6088 8.87583 20.6553 8.88904 20.6977 8.91093C20.7402 8.93282 20.7779 8.96295 20.8087 8.99957C20.8805 9.07111 20.9209 9.16822 20.9212 9.26957" fill="#009E87"/>
<path d="M10.5488 14.0547H14.4563" stroke="#FFB81C" stroke-width="1.25" stroke-linecap="round" stroke-linejoin="round"/>
<path d="M10.5488 16.5146H12.6338" stroke="#FFB81C" stroke-width="1.25" stroke-linecap="round" stroke-linejoin="round"/>
<path d="M6.55859 3.75H24.5586V17.625C24.5586 18.4206 24.2425 19.1837 23.6799 19.7463C23.1173 20.3089 22.3542 20.625 21.5586 20.625H9.55859C8.76294 20.625 7.99988 20.3089 7.43727 19.7463C6.87466 19.1837 6.55859 18.4206 6.55859 17.625V3.75Z" stroke="#235BA8" stroke-width="1.5" stroke-miterlimit="10" stroke-linecap="round"/>
</svg>
