<svg width="31" height="30" viewBox="0 0 31 30" fill="none" xmlns="http://www.w3.org/2000/svg">
<path d="M12.4023 2.45996H18.6648C19.1621 2.45996 19.639 2.65751 19.9907 3.00914C20.3423 3.36077 20.5398 3.83768 20.5398 4.33496V5.60246H10.5273V4.33496C10.5273 3.83768 10.7249 3.36077 11.0765 3.00914C11.4281 2.65751 11.9051 2.45996 12.4023 2.45996Z" stroke="#235BA8" stroke-width="2" stroke-linejoin="round"/>
<path d="M20.8543 9.99731L16.4518 13.3123C16.4159 13.345 16.3691 13.3631 16.3205 13.3631C16.272 13.3631 16.2252 13.345 16.1893 13.3123L13.8493 9.98231C13.8142 9.94795 13.7671 9.92871 13.718 9.92871C13.669 9.92871 13.6218 9.94795 13.5868 9.98231L9.3418 13.3498" stroke="#009E87" stroke-width="1.75" stroke-miterlimit="10" stroke-linecap="round"/>
<path d="M18.3574 9.69043H20.8549V12.0229" stroke="#009E87" stroke-width="1.75" stroke-linecap="round" stroke-linejoin="round"/>
<path d="M9.73242 17.6102L10.9624 18.6977L13.1299 16.5752" stroke="#FFB81C" stroke-width="1.75" stroke-linecap="round" stroke-linejoin="round"/>
<path d="M9.73242 22.2899L10.9624 23.3774L13.1299 21.2549" stroke="#FFB81C" stroke-width="1.75" stroke-linecap="round" stroke-linejoin="round"/>
<path d="M15.5586 17.8496H21.3486" stroke="#FFB81C" stroke-width="1.75" stroke-linecap="round" stroke-linejoin="round"/>
<path d="M15.5586 22.6797H21.3486" stroke="#FFB81C" stroke-width="1.75" stroke-linecap="round" stroke-linejoin="round"/>
<path d="M20.5243 4.02734H22.1518C22.9474 4.02734 23.7105 4.34341 24.2731 4.90602C24.8357 5.46863 25.1518 6.23169 25.1518 7.02734V24.5398C25.1518 25.3355 24.8357 26.0986 24.2731 26.6612C23.7105 27.2238 22.9474 27.5398 22.1518 27.5398H8.9668C8.17115 27.5398 7.40809 27.2238 6.84548 26.6612C6.28287 26.0986 5.9668 25.3355 5.9668 24.5398V7.02734C5.9668 6.23169 6.28287 5.46863 6.84548 4.90602C7.40809 4.34341 8.17115 4.02734 8.9668 4.02734H10.5568" stroke="#235BA8" stroke-width="1.5" stroke-miterlimit="10"/>
</svg>
