<svg xmlns="http://www.w3.org/2000/svg" width="25" height="27" viewBox="0 0 25 27" fill="none">
  <path d="M14.2147 10.1055L13.9297 10.128L14.2147 10.1055Z" fill="#1C274C"/>
  <path d="M4.75024 17.6277C5.32774 16.5777 5.62024 16.0527 6.06274 16.0527C6.50524 16.0527 6.81274 16.5777 7.37524 17.6277L7.52524 17.8977C7.61463 18.1 7.74192 18.2833 7.90024 18.4377C8.08895 18.5486 8.29816 18.62 8.51524 18.6477L8.80774 18.7152C9.94024 18.9702 10.5102 19.0977 10.6452 19.5327C10.7802 19.9677 10.3902 20.4177 9.61774 21.3252L9.41524 21.5577C9.2572 21.7124 9.12995 21.8956 9.04024 22.0977C8.99731 22.3207 8.99731 22.5498 9.04024 22.7727V23.0877C9.16024 24.2952 9.21274 24.8952 8.86024 25.1652C8.50774 25.4352 7.97524 25.1652 6.91774 24.7002L6.64024 24.5727C6.45529 24.4597 6.24803 24.388 6.03274 24.3627C5.81486 24.387 5.60493 24.4586 5.41774 24.5727L5.14024 24.7002C4.08274 25.1877 3.55024 25.4502 3.19774 25.1652C2.84524 24.8802 2.90524 24.2952 3.01774 23.0877V22.7727C3.06469 22.5502 3.06469 22.3203 3.01774 22.0977C2.93096 21.894 2.80333 21.7102 2.64274 21.5577L2.44024 21.3252C1.69024 20.4177 1.28524 19.9677 1.42024 19.5327C1.55524 19.0977 2.11774 18.9702 3.25024 18.7152L3.54274 18.6477C3.75982 18.62 3.96903 18.5486 4.15774 18.4377C4.31662 18.2822 4.44618 18.0992 4.54024 17.8977L4.75024 17.6277Z" stroke="#FFB81C" stroke-width="1.55"/>
  <path d="M8.40203 1.75H3.51953C2.484 1.75 1.64453 2.58947 1.64453 3.625V11.65C1.64453 12.6855 2.484 13.525 3.51953 13.525H8.40203C9.43757 13.525 10.277 12.6855 10.277 11.65V3.625C10.277 2.58947 9.43757 1.75 8.40203 1.75Z" stroke="#235BA8" stroke-width="1.5" stroke-linecap="round" stroke-linejoin="round"/>
  <path d="M19.9684 14.2227H15.0859C14.0504 14.2227 13.2109 15.0621 13.2109 16.0977V23.0502C13.2109 24.0857 14.0504 24.9252 15.0859 24.9252H19.9684C21.004 24.9252 21.8434 24.0857 21.8434 23.0502V16.0977C21.8434 15.0621 21.004 14.2227 19.9684 14.2227Z" stroke="#235BA8" stroke-width="1.5" stroke-linecap="round" stroke-linejoin="round"/>
  <path d="M21.9847 4.08266C22.9125 4.08266 23.6647 3.33049 23.6647 2.40266C23.6647 1.47482 22.9125 0.722656 21.9847 0.722656C21.0568 0.722656 20.3047 1.47482 20.3047 2.40266C20.3047 3.33049 21.0568 4.08266 21.9847 4.08266Z" stroke="#235BA8" stroke-width="1.25" stroke-linecap="round" stroke-linejoin="round"/>
  <path d="M15.3027 7.75L16.6077 6.445C16.6607 6.39148 16.7238 6.349 16.7933 6.32001C16.8628 6.29102 16.9374 6.27609 17.0127 6.27609C17.0881 6.27609 17.1626 6.29102 17.2321 6.32001C17.3017 6.349 17.3647 6.39148 17.4177 6.445L18.3252 7.3525C18.4342 7.45701 18.5793 7.51536 18.7302 7.51536C18.8812 7.51536 19.0263 7.45701 19.1352 7.3525L21.0102 5.5M21.0102 5.5V6.925M21.0102 5.5H19.5852" stroke="#FFB81C" stroke-width="1.25" stroke-linecap="round" stroke-linejoin="round"/>
  <path d="M22.9981 5.995V9.925C22.9903 10.3455 22.8177 10.746 22.5176 11.0406C22.2174 11.3351 21.8137 11.5001 21.3931 11.5H14.8081C14.3825 11.5 13.9742 11.3309 13.6732 11.0299C13.3722 10.7289 13.2031 10.3207 13.2031 9.895V3.355C13.2031 2.92933 13.3722 2.52109 13.6732 2.22009C13.9742 1.9191 14.3825 1.75 14.8081 1.75H18.5581" stroke="#009E87" stroke-width="1.5" stroke-linecap="round" stroke-linejoin="round"/>
</svg>