<svg width="31" height="30" viewBox="0 0 31 30" fill="none" xmlns="http://www.w3.org/2000/svg">
<path d="M17.3811 6.59277V8.89527L15.6486 10.6353V8.69277C15.6592 8.64587 15.6592 8.59718 15.6486 8.55027C15.6308 8.50846 15.6053 8.47031 15.5736 8.43777C15.5406 8.40128 15.4995 8.37302 15.4536 8.35527C15.4064 8.34829 15.3583 8.34829 15.3111 8.35527H13.3086L15.0411 6.63027L17.3811 6.59277Z" fill="#235BA8"/>
<path d="M17.3817 4.89798V6.59298H15.0717L13.3092 8.32548H10.9692C10.93 8.33634 10.8885 8.33634 10.8492 8.32548C10.8179 8.29836 10.7924 8.2652 10.7742 8.22798C10.7628 8.18625 10.7628 8.1422 10.7742 8.10048C10.7839 8.06051 10.8047 8.0241 10.8342 7.99548L14.1117 4.74048C14.1854 4.67184 14.2812 4.63191 14.3817 4.62798H17.0592C17.1011 4.6175 17.1449 4.6175 17.1867 4.62798C17.2236 4.64339 17.2568 4.66639 17.2842 4.69548C17.3156 4.72259 17.3411 4.75576 17.3592 4.79298C17.3664 4.83518 17.3664 4.87828 17.3592 4.92048L17.3817 4.89798Z" fill="#FFB81C"/>
<path d="M19.6834 6.91537V10.2304C19.684 10.2795 19.6743 10.3283 19.655 10.3735C19.6356 10.4187 19.607 10.4594 19.5709 10.4929L16.0084 14.0254C15.978 14.0525 15.9422 14.0729 15.9034 14.0854C15.8642 14.0966 15.8226 14.0966 15.7834 14.0854C15.7439 14.0711 15.7099 14.0449 15.6859 14.0104C15.6623 13.9747 15.6493 13.9331 15.6484 13.8904V10.6354L17.3809 8.90287V6.59287H19.3684C19.4101 6.59184 19.4515 6.59928 19.4902 6.61475C19.5289 6.63022 19.564 6.65338 19.5935 6.68284C19.6229 6.7123 19.6461 6.74743 19.6616 6.78612C19.677 6.8248 19.6845 6.86622 19.6834 6.90787V6.91537Z" fill="#009E87"/>
<path d="M8.86828 19.1401H8.74078C8.27319 19.1234 7.83085 18.9238 7.50899 18.5842C7.18712 18.2446 7.01146 17.7922 7.01982 17.3244C7.02817 16.8566 7.21988 16.4108 7.55367 16.0829C7.88746 15.755 8.33664 15.5713 8.80453 15.5713C9.27242 15.5713 9.72161 15.755 10.0554 16.0829C10.3892 16.4108 10.5809 16.8566 10.5892 17.3244C10.5976 17.7922 10.4219 18.2446 10.1001 18.5842C9.77821 18.9238 9.33587 19.1234 8.86828 19.1401Z" stroke="#009E87" stroke-width="1.25" stroke-linecap="round" stroke-linejoin="round"/>
<path d="M5.16406 22.125C5.58367 21.7072 6.08235 21.3773 6.63093 21.1545C7.17952 20.9317 7.76701 20.8206 8.35906 20.8275C9.11625 20.8473 9.85328 21.0757 10.4891 21.4875" stroke="#009E87" stroke-width="1.25" stroke-linecap="round" stroke-linejoin="round"/>
<path d="M22.2408 19.1401H22.3683C22.8359 19.1234 23.2782 18.9238 23.6001 18.5842C23.9219 18.2446 24.0976 17.7922 24.0892 17.3244C24.0809 16.8566 23.8892 16.4108 23.5554 16.0829C23.2216 15.755 22.7724 15.5713 22.3045 15.5713C21.8366 15.5713 21.3875 15.755 21.0537 16.0829C20.7199 16.4108 20.5282 16.8566 20.5198 17.3244C20.5115 17.7922 20.6871 18.2446 21.009 18.5842C21.3309 18.9238 21.7732 19.1234 22.2408 19.1401Z" stroke="#009E87" stroke-width="1.25" stroke-linecap="round" stroke-linejoin="round"/>
<path d="M20.6133 21.4882C21.2514 21.0756 21.9911 20.8472 22.7508 20.8282C23.3443 20.8238 23.9328 20.9369 24.4824 21.1608C25.032 21.3848 25.5319 21.7153 25.9533 22.1332" stroke="#009E87" stroke-width="1.25" stroke-linecap="round" stroke-linejoin="round"/>
<path d="M15.6341 19.5905C15.5844 19.583 15.5339 19.583 15.4841 19.5905C14.9599 19.5709 14.4643 19.3463 14.1039 18.9651C13.7436 18.5838 13.5472 18.0764 13.557 17.5519C13.5668 17.0274 13.7821 16.5277 14.1565 16.1602C14.5309 15.7928 15.0345 15.5869 15.5591 15.5869C16.0837 15.5869 16.5874 15.7928 16.9618 16.1602C17.3362 16.5277 17.5515 17.0274 17.5613 17.5519C17.5711 18.0764 17.3747 18.5838 17.0143 18.9651C16.654 19.3463 16.1584 19.5709 15.6341 19.5905Z" stroke="#FFB81C" stroke-width="1.25" stroke-linecap="round" stroke-linejoin="round"/>
<path d="M10.9531 23.4978C11.5625 22.8482 12.301 22.3331 13.1211 21.9857C13.9413 21.6382 14.825 21.4661 15.7156 21.4803C16.554 21.5032 17.3793 21.6935 18.1431 22.04C18.9069 22.3865 19.5937 22.8821 20.1631 23.4978" stroke="#FFB81C" stroke-width="1.25" stroke-linecap="round" stroke-linejoin="round"/>
<path d="M15.559 27.6004C22.5178 27.6004 28.159 21.9592 28.159 15.0004C28.159 8.0416 22.5178 2.40039 15.559 2.40039C8.6002 2.40039 2.95898 8.0416 2.95898 15.0004C2.95898 21.9592 8.6002 27.6004 15.559 27.6004Z" stroke="#235BA8" stroke-width="1.5" stroke-miterlimit="10" stroke-linecap="round"/>
</svg>
