<svg width="25" height="25" viewBox="0 0 25 25" fill="none" xmlns="http://www.w3.org/2000/svg">
<path fill-rule="evenodd" clip-rule="evenodd" d="M12.0469 16.5918C15.9129 16.5918 19.0469 13.4578 19.0469 9.5918C19.0469 5.7258 15.9129 2.5918 12.0469 2.5918C8.18088 2.5918 5.04688 5.7258 5.04688 9.5918C5.04688 13.4578 8.18088 16.5918 12.0469 16.5918ZM12.0469 6.5918C11.7628 6.5918 11.5728 6.93263 11.1928 7.61431L11.0945 7.79067C10.9865 7.98438 10.9325 8.08123 10.8484 8.14514C10.7642 8.20904 10.6593 8.23277 10.4496 8.28021L10.2587 8.32341C9.52083 8.49036 9.15188 8.57384 9.0641 8.85612C8.97632 9.13839 9.22785 9.43252 9.7309 10.0208L9.86105 10.173C10.004 10.3401 10.0755 10.4237 10.1076 10.5271C10.1398 10.6305 10.129 10.742 10.1074 10.9651L10.0877 11.1681C10.0116 11.953 9.97361 12.3454 10.2034 12.5199C10.4332 12.6943 10.7787 12.5353 11.4696 12.2171L11.6483 12.1348C11.8447 12.0444 11.9428 11.9993 12.0469 11.9993C12.1509 11.9993 12.2491 12.0444 12.4454 12.1348L12.6242 12.2171C13.3151 12.5353 13.6605 12.6943 13.8903 12.5199C14.1201 12.3454 14.0821 11.953 14.0061 11.1681L13.9864 10.9651C13.9648 10.742 13.954 10.6305 13.9861 10.5271C14.0183 10.4237 14.0897 10.3401 14.2327 10.173L14.3628 10.0208C14.8659 9.43252 15.1174 9.13839 15.0296 8.85612C14.9419 8.57384 14.5729 8.49036 13.835 8.32341L13.6441 8.28021C13.4344 8.23277 13.3296 8.20904 13.2454 8.14514C13.1612 8.08123 13.1072 7.98438 12.9992 7.79067L12.9009 7.61431C12.5209 6.93263 12.3309 6.5918 12.0469 6.5918Z" fill="#4F4F4F"/>
<path d="M7.13989 16.5332L6.76112 17.9148C6.13277 20.2066 5.8186 21.3525 6.23785 21.9799C6.38478 22.1997 6.58188 22.3762 6.8106 22.4926C7.46322 22.8249 8.47088 22.2999 10.4862 21.2498C11.1567 20.9004 11.492 20.7256 11.8483 20.6877C11.9804 20.6736 12.1134 20.6736 12.2454 20.6877C12.6017 20.7256 12.937 20.9003 13.6075 21.2498C15.6229 22.2999 16.6305 22.8249 17.2832 22.4926C17.5119 22.3762 17.709 22.1997 17.8559 21.9799C18.2751 21.3525 17.961 20.2066 17.3326 17.9148L16.9539 16.5332C15.5677 17.5149 13.8747 18.0918 12.0469 18.0918C10.2191 18.0918 8.52603 17.5149 7.13989 16.5332Z" fill="#4F4F4F"/>
</svg>
