<svg xmlns="http://www.w3.org/2000/svg" width="25" height="25" viewBox="0 0 25 25" fill="none">
  <path fill-rule="evenodd" clip-rule="evenodd" d="M12.0469 16.3223C15.9129 16.3223 19.0469 13.1883 19.0469 9.32227C19.0469 5.45627 15.9129 2.32227 12.0469 2.32227C8.18088 2.32227 5.04688 5.45627 5.04688 9.32227C5.04688 13.1883 8.18088 16.3223 12.0469 16.3223ZM12.0469 6.32227C11.7628 6.32227 11.5728 6.6631 11.1928 7.34478L11.0945 7.52114C10.9865 7.71485 10.9325 7.8117 10.8484 7.87561C10.7642 7.93951 10.6593 7.96324 10.4496 8.01068L10.2587 8.05387C9.52083 8.22083 9.15188 8.30431 9.0641 8.58659C8.97632 8.86886 9.22785 9.16299 9.7309 9.75124L9.86105 9.90343C10.004 10.0706 10.0755 10.1542 10.1076 10.2576C10.1398 10.361 10.129 10.4725 10.1074 10.6955L10.0877 10.8986C10.0116 11.6834 9.97361 12.0759 10.2034 12.2503C10.4332 12.4248 10.7787 12.2657 11.4696 11.9476L11.6483 11.8653C11.8447 11.7749 11.9428 11.7297 12.0469 11.7297C12.1509 11.7297 12.2491 11.7749 12.4454 11.8653L12.6242 11.9476C13.3151 12.2657 13.6605 12.4248 13.8903 12.2503C14.1201 12.0759 14.0821 11.6834 14.0061 10.8986L13.9864 10.6955C13.9648 10.4725 13.954 10.361 13.9861 10.2576C14.0183 10.1542 14.0897 10.0706 14.2327 9.90344L14.3628 9.75124C14.8659 9.16299 15.1174 8.86886 15.0296 8.58659C14.9419 8.30431 14.5729 8.22083 13.835 8.05387L13.6441 8.01068C13.4344 7.96324 13.3296 7.93951 13.2454 7.87561C13.1612 7.8117 13.1072 7.71485 12.9992 7.52114L12.9009 7.34478C12.5209 6.6631 12.3309 6.32227 12.0469 6.32227Z" fill="#869299"/>
  <path d="M7.13989 16.2637L6.76112 17.6452C6.13277 19.9371 5.8186 21.083 6.23785 21.7103C6.38478 21.9302 6.58188 22.1066 6.8106 22.2231C7.46322 22.5554 8.47088 22.0303 10.4862 20.9802C11.1567 20.6308 11.492 20.4561 11.8483 20.4182C11.9804 20.4041 12.1134 20.4041 12.2454 20.4182C12.6017 20.4561 12.937 20.6308 13.6075 20.9802C15.6229 22.0303 16.6305 22.5554 17.2832 22.2231C17.5119 22.1066 17.709 21.9302 17.8559 21.7103C18.2751 21.083 17.961 19.9371 17.3326 17.6452L16.9539 16.2637C15.5677 17.2453 13.8747 17.8223 12.0469 17.8223C10.2191 17.8223 8.52603 17.2453 7.13989 16.2637Z" fill="#869299"/>
</svg>