<svg width="41" height="40" viewBox="0 0 41 40" fill="none" xmlns="http://www.w3.org/2000/svg">
<path d="M29.43 31L28.43 32.44C28.06 32.9629 27.5699 33.3894 27.0009 33.6835C26.4318 33.9776 25.8005 34.1307 25.16 34.13H21.7" stroke="#F8BC29" stroke-width="2" stroke-linecap="round" stroke-linejoin="round"/>
<path d="M9.68002 30.4401C7.05763 27.8684 5.44644 24.4402 5.14001 20.7801C5.14001 20.3401 5.14001 19.9101 5.14001 19.4701C5.14001 15.3831 6.76356 11.4635 9.6535 8.57354C12.5434 5.68361 16.463 4.06006 20.55 4.06006C24.637 4.06006 28.5566 5.68361 31.4465 8.57354C34.3365 11.4635 35.96 15.3831 35.96 19.4701C35.96 19.9101 35.96 20.3401 35.96 20.7801C35.6498 24.469 34.016 27.9212 31.36 30.5001" stroke="#2B5EAA" stroke-width="2"/>
<path d="M12.68 30.1501C12.1878 30.5412 11.5787 30.756 10.95 30.7601C10.5069 30.7585 10.071 30.6486 9.68002 30.4401C7.05763 27.8684 5.44644 24.4402 5.14001 20.7801H7.50001C8.18412 20.7764 8.85774 20.9482 9.4565 21.2791C10.0553 21.61 10.5592 22.0889 10.92 22.6701L13.31 26.4701C13.6738 27.0542 13.8107 27.7515 13.6945 28.4298C13.5784 29.1081 13.2174 29.7202 12.68 30.1501Z" stroke="#2B5EAA" stroke-width="2" stroke-linejoin="round"/>
<path d="M28.37 30.15C28.8667 30.5399 29.4785 30.7544 30.11 30.76C30.5499 30.7584 30.9826 30.6485 31.37 30.44C33.9961 27.871 35.6079 24.4413 35.91 20.78H33.55C32.8676 20.778 32.196 20.9507 31.5991 21.2815C31.0022 21.6123 30.4999 22.0903 30.14 22.67L27.75 26.47C27.3829 27.0524 27.2432 27.7496 27.3575 28.4284C27.4719 29.1072 27.8323 29.7201 28.37 30.15Z" stroke="#2B5EAA" stroke-width="2" stroke-linecap="round" stroke-linejoin="round"/>
<path d="M16.21 24.5601C16.9003 24.5601 17.46 24.0004 17.46 23.3101C17.46 22.6197 16.9003 22.0601 16.21 22.0601C15.5196 22.0601 14.96 22.6197 14.96 23.3101C14.96 24.0004 15.5196 24.5601 16.21 24.5601Z" fill="#129B86"/>
<path d="M20.5 24.5601C21.1904 24.5601 21.75 24.0004 21.75 23.3101C21.75 22.6197 21.1904 22.0601 20.5 22.0601C19.8096 22.0601 19.25 22.6197 19.25 23.3101C19.25 24.0004 19.8096 24.5601 20.5 24.5601Z" fill="#129B86"/>
<path d="M20.5 35.9499C21.483 35.9499 22.28 35.153 22.28 34.1699C22.28 33.1868 21.483 32.3899 20.5 32.3899C19.5169 32.3899 18.72 33.1868 18.72 34.1699C18.72 35.153 19.5169 35.9499 20.5 35.9499Z" fill="#F8BC29"/>
<path d="M24.79 24.5601C25.4804 24.5601 26.04 24.0004 26.04 23.3101C26.04 22.6197 25.4804 22.0601 24.79 22.0601C24.0997 22.0601 23.54 22.6197 23.54 23.3101C23.54 24.0004 24.0997 24.5601 24.79 24.5601Z" fill="#129B86"/>
</svg>
