<svg width="25" height="25" viewBox="0 0 25 25" fill="none" xmlns="http://www.w3.org/2000/svg">
<path d="M9.90316 5.63494C11.1698 3.36269 11.8031 2.22656 12.75 2.22656C13.6969 2.22656 14.3302 3.36269 15.5968 5.63494L15.9245 6.2228C16.2845 6.8685 16.4644 7.19135 16.7451 7.40437C17.0257 7.61739 17.3751 7.69646 18.0741 7.85461L18.7105 7.99859C21.1701 8.55512 22.4 8.83338 22.6926 9.77429C22.9852 10.7152 22.1468 11.6956 20.4699 13.6565L20.0361 14.1638C19.5596 14.721 19.3213 14.9996 19.2141 15.3443C19.107 15.689 19.143 16.0607 19.215 16.8041L19.2806 17.481C19.5341 20.0972 19.6609 21.4053 18.8949 21.9868C18.1288 22.5683 16.9773 22.0381 14.6743 20.9777L14.0785 20.7034C13.4241 20.4021 13.0969 20.2514 12.75 20.2514C12.4031 20.2514 12.0759 20.4021 11.4215 20.7034L10.8257 20.9777C8.52268 22.0381 7.37118 22.5683 6.60515 21.9868C5.83912 21.4053 5.96588 20.0972 6.2194 17.481L6.28498 16.8041C6.35703 16.0607 6.39305 15.689 6.28586 15.3443C6.17868 14.9996 5.94043 14.721 5.46392 14.1638L5.0301 13.6565C3.35325 11.6956 2.51482 10.7152 2.80742 9.77429C3.10002 8.83338 4.32986 8.55512 6.78954 7.99859L7.42589 7.85461C8.12485 7.69646 8.47433 7.61739 8.75494 7.40437C9.03555 7.19135 9.21553 6.8685 9.57547 6.2228L9.90316 5.63494Z" fill="#FFB81C"/>
</svg>
