<svg width="40" height="41" viewBox="0 0 40 41" fill="none" xmlns="http://www.w3.org/2000/svg">
<path d="M20.6462 38.8594H6.15625C4.96278 38.8594 3.81818 38.3853 2.97427 37.5414C2.13036 36.6974 1.65625 35.5528 1.65625 34.3594V6.23438C1.65625 5.0409 2.13036 3.89631 2.97427 3.05239C3.81818 2.20848 4.96278 1.73438 6.15625 1.73438H28.42C29.6135 1.73438 30.7581 2.20848 31.602 3.05239C32.4459 3.89631 32.92 5.0409 32.92 6.23438V19.8356" stroke="currentColor" stroke-width="2" stroke-miterlimit="10" stroke-linecap="round"/>
<path d="M8.97656 17.2363H20.4628" stroke="#009E87" stroke-width="2" stroke-linecap="round" stroke-linejoin="round"/>
<path d="M8.97656 9.8125H23.9728" stroke="#009E87" stroke-width="2" stroke-linecap="round" stroke-linejoin="round"/>
<path d="M8.97656 24.6621H15.8053" stroke="#009E87" stroke-width="2" stroke-linecap="round" stroke-linejoin="round"/>
<path d="M30.2197 39.2753C34.7118 39.2753 38.3534 35.6337 38.3534 31.1416C38.3534 26.6494 34.7118 23.0078 30.2197 23.0078C25.7275 23.0078 22.0859 26.6494 22.0859 31.1416C22.0859 35.6337 25.7275 39.2753 30.2197 39.2753Z" stroke="#FFB81C" stroke-width="1.75"/>
<path d="M28.2199 29.5001C28.2078 29.1448 28.29 28.7927 28.4581 28.4794C28.6263 28.1662 28.8743 27.903 29.1771 27.7167C29.4798 27.5304 29.8265 27.4275 30.1819 27.4186C30.5373 27.4097 30.8887 27.495 31.2005 27.6659C31.5122 27.8367 31.7731 28.0871 31.9568 28.3915C32.1404 28.6959 32.2402 29.0435 32.246 29.3989C32.2518 29.7544 32.1634 30.1051 31.9897 30.4153C31.8161 30.7255 31.5634 30.9842 31.2574 31.1651C30.9879 31.2872 30.7531 31.4746 30.5743 31.7103C30.3956 31.9461 30.2785 32.2227 30.2337 32.5151V33.2689" stroke="#FFB81C" stroke-width="1.25" stroke-linecap="round"/>
<path d="M30.7859 35.8227C30.7859 36.1368 30.5313 36.3914 30.2172 36.3914C29.9031 36.3914 29.6484 36.1368 29.6484 35.8227C29.6484 35.5085 29.9031 35.2539 30.2172 35.2539C30.5313 35.2539 30.7859 35.5085 30.7859 35.8227Z" fill="#FFB81C" stroke="currentColor"/>
</svg>
