<svg width="41" height="37" viewBox="0 0 41 37" fill="none" xmlns="http://www.w3.org/2000/svg">
<path opacity="0.2" d="M25.7571 27.2753C24.8747 26.0264 23.6886 25.0229 22.3108 24.3596C20.9329 23.6962 19.4088 23.3949 17.8821 23.4841C11.5371 23.4841 6.40714 28.0741 6.40714 33.7328C6.40261 33.8194 6.41539 33.9061 6.44474 33.9877C6.47409 34.0693 6.51942 34.1443 6.57808 34.2082C6.63674 34.2721 6.70756 34.3236 6.78638 34.3598C6.8652 34.3961 6.95045 34.4162 7.03714 34.4191H26.9271" fill="#009E87"/>
<path d="M18.2863 19.6259C18.159 19.6147 18.031 19.6147 17.9038 19.6259C16.5368 19.5758 15.2441 18.9912 14.3039 17.9977C13.3636 17.0043 12.8508 15.6814 12.8759 14.3138C12.9009 12.9462 13.4618 11.643 14.4379 10.6847C15.4139 9.72637 16.7271 9.18945 18.095 9.18945C19.4629 9.18945 20.7761 9.72637 21.7521 10.6847C22.7282 11.643 23.2891 12.9462 23.3141 14.3138C23.3392 15.6814 22.8264 17.0043 21.8861 17.9977C20.9459 18.9912 19.6532 19.5758 18.2863 19.6259Z" stroke="#009E87" stroke-width="2" stroke-linecap="round" stroke-linejoin="round"/>
<path d="M32.5956 35.7813C36.7647 35.7813 40.1444 32.3714 40.1444 28.1651C40.1444 23.9587 36.7647 20.5488 32.5956 20.5488C28.4266 20.5488 25.0469 23.9587 25.0469 28.1651C25.0469 32.3714 28.4266 35.7813 32.5956 35.7813Z" stroke="#FFB81C" stroke-width="1.72" stroke-miterlimit="10"/>
<path d="M32.5938 24.666V31.6635" stroke="#FFB81C" stroke-width="1.5" stroke-miterlimit="10" stroke-linecap="round"/>
<path d="M36.0741 28.1641H29.1328" stroke="#FFB81C" stroke-width="1.5" stroke-miterlimit="10" stroke-linecap="round"/>
<path d="M7.125 30.4252C7.125 30.4252 10.7363 19.6927 23.055 23.6752" stroke="#009E87" stroke-width="2" stroke-linecap="round" stroke-linejoin="round"/>
<path d="M20.5362 34.4195H6.40625C5.21278 34.4195 4.06818 33.9453 3.22427 33.1014C2.38036 32.2575 1.90625 31.1129 1.90625 29.9195V5.7207C1.90625 4.52723 2.38036 3.38264 3.22427 2.53872C4.06818 1.69481 5.21278 1.2207 6.40625 1.2207H29.1988C30.3922 1.2207 31.5368 1.69481 32.3807 2.53872C33.2246 3.38264 33.6988 4.52723 33.6988 5.7207V16.5882" stroke="currentColor" stroke-width="2" stroke-miterlimit="10"  stroke-linecap="round"/>
</svg>
