<svg width="42" height="37" viewBox="0 0 42 37" fill="none" xmlns="http://www.w3.org/2000/svg">
<path d="M9.9231 24.575V29.1538C9.89944 30.1816 10.2182 31.1881 10.8291 32.0149C11.4401 32.8418 12.3087 33.442 13.2981 33.7213L19.9694 35.375C20.62 35.5325 21.2988 35.5325 21.9494 35.375L28.5981 33.7325C29.5876 33.4533 30.4561 32.853 31.0671 32.0262C31.678 31.1993 31.9968 30.1928 31.9731 29.165V18.5" stroke="#009E87" stroke-width="2" stroke-linecap="round" stroke-linejoin="round"/>
<path d="M7.46307 11.2207L2.01807 13.3582C1.80227 13.4476 1.61784 13.599 1.48808 13.7933C1.35832 13.9875 1.28906 14.2159 1.28906 14.4495C1.28906 14.683 1.35832 14.9114 1.48808 15.1056C1.61784 15.2999 1.80227 15.4513 2.01807 15.5407L18.7356 22.2907C20.0159 22.7914 21.4378 22.7914 22.7181 22.2907L27.1618 20.6707" stroke="currentColor" stroke-width="2" stroke-miterlimit="10" stroke-linecap="round"/>
<path d="M16.3594 7.7336L19.2169 6.6086C20.495 6.09661 21.9212 6.09661 23.1994 6.6086L39.9281 13.3586C40.1611 13.4405 40.3629 13.5927 40.5057 13.7942C40.6484 13.9958 40.7251 14.2366 40.7251 14.4836C40.7251 14.7306 40.6484 14.9714 40.5057 15.1729C40.3629 15.3745 40.1611 15.5267 39.9281 15.6086L35.8106 17.1273" stroke="currentColor" stroke-width="2" stroke-miterlimit="10" stroke-linecap="round"/>
<path d="M22.6641 14.2129L25.1278 14.8316C25.806 15.0554 26.3958 15.4885 26.8122 16.0687C27.2287 16.6489 27.4503 17.3462 27.4453 18.0604V25.7441" stroke="#FFB81C" stroke-width="2" stroke-linecap="round" stroke-linejoin="round"/>
<path d="M7.45312 1.51172V13.6842" stroke="#FFB81C" stroke-width="2" stroke-linecap="round" stroke-linejoin="round"/>
<path d="M11.9062 5.91016V11.6814" stroke="#FFB81C" stroke-width="2" stroke-linecap="round" stroke-linejoin="round"/>
<path d="M16.3594 5.17969V13.4259" stroke="currentColor" stroke-width="2" stroke-linecap="round" stroke-linejoin="round"/>
</svg>
