<svg width="33" height="32" viewBox="0 0 33 32" fill="none" xmlns="http://www.w3.org/2000/svg">
<path d="M23.644 24.8L22.844 25.952C22.548 26.3704 22.156 26.7116 21.7007 26.9468C21.2455 27.1821 20.7404 27.3046 20.228 27.304H17.46" stroke="#F6BC25" stroke-width="2" stroke-linecap="round" stroke-linejoin="round"/>
<path d="M7.84391 24.352C5.74601 22.2947 4.45706 19.5521 4.21191 16.624C4.21191 16.272 4.21191 15.928 4.21191 15.576C4.21191 12.3065 5.51075 9.17078 7.8227 6.85883C10.1347 4.54689 13.2703 3.24805 16.5399 3.24805C19.8095 3.24805 22.9452 4.54689 25.2571 6.85883C27.5691 9.17078 28.8679 12.3065 28.8679 15.576C28.8679 15.928 28.8679 16.272 28.8679 16.624C28.6197 19.5752 27.3127 22.337 25.1879 24.4" stroke="white" stroke-width="2"/>
<path d="M10.2439 24.1201C9.85016 24.433 9.36285 24.6048 8.85991 24.6081C8.50545 24.6068 8.15667 24.5189 7.84391 24.3521C5.74601 22.2947 4.45706 19.5522 4.21191 16.6241H6.09991C6.6472 16.6211 7.18609 16.7585 7.6651 17.0232C8.14411 17.288 8.54723 17.6711 8.83591 18.1361L10.7479 21.1761C11.039 21.6434 11.1484 22.2012 11.0555 22.7439C10.9626 23.2865 10.6738 23.7762 10.2439 24.1201Z" stroke="white" stroke-width="2" stroke-linejoin="round"/>
<path d="M22.7957 24.12C23.1931 24.4319 23.6825 24.6035 24.1877 24.608C24.5396 24.6067 24.8858 24.5188 25.1957 24.352C27.2966 22.2968 28.5861 19.5531 28.8277 16.624H26.9397C26.3938 16.6224 25.8565 16.7605 25.379 17.0252C24.9015 17.2898 24.4997 17.6722 24.2117 18.136L22.2997 21.176C22.006 21.6419 21.8942 22.1996 21.9857 22.7427C22.0772 23.2858 22.3656 23.7761 22.7957 24.12Z" stroke="white" stroke-width="2" stroke-linecap="round" stroke-linejoin="round"/>
<path d="M13.0679 19.6479C13.6202 19.6479 14.0679 19.2002 14.0679 18.6479C14.0679 18.0957 13.6202 17.6479 13.0679 17.6479C12.5156 17.6479 12.0679 18.0957 12.0679 18.6479C12.0679 19.2002 12.5156 19.6479 13.0679 19.6479Z" fill="white"/>
<path d="M16.5 19.6479C17.0523 19.6479 17.5 19.2002 17.5 18.6479C17.5 18.0957 17.0523 17.6479 16.5 17.6479C15.9477 17.6479 15.5 18.0957 15.5 18.6479C15.5 19.2002 15.9477 19.6479 16.5 19.6479Z" fill="white"/>
<path d="M16.4997 28.7601C17.2861 28.7601 17.9237 28.1226 17.9237 27.3361C17.9237 26.5497 17.2861 25.9121 16.4997 25.9121C15.7132 25.9121 15.0757 26.5497 15.0757 27.3361C15.0757 28.1226 15.7132 28.7601 16.4997 28.7601Z" fill="#F6BC25"/>
<path d="M19.9321 19.6479C20.4844 19.6479 20.9321 19.2002 20.9321 18.6479C20.9321 18.0957 20.4844 17.6479 19.9321 17.6479C19.3798 17.6479 18.9321 18.0957 18.9321 18.6479C18.9321 19.2002 19.3798 19.6479 19.9321 19.6479Z" fill="white"/>
</svg>
