<svg width="20" height="20" viewBox="0 0 20 20" fill="none" xmlns="http://www.w3.org/2000/svg">
<path fill-rule="evenodd" clip-rule="evenodd" d="M9.37484 1.66699C9.37484 1.32181 9.65466 1.04199 9.99984 1.04199C14.9474 1.04199 18.9582 5.05277 18.9582 10.0003C18.9582 14.9479 14.9474 18.9587 9.99984 18.9587C5.05229 18.9587 1.0415 14.9479 1.0415 10.0003C1.0415 9.65515 1.32133 9.37533 1.6665 9.37533C2.01168 9.37533 2.2915 9.65515 2.2915 10.0003C2.2915 14.2575 5.74264 17.7087 9.99984 17.7087C14.257 17.7087 17.7082 14.2575 17.7082 10.0003C17.7082 5.74313 14.257 2.29199 9.99984 2.29199C9.65466 2.29199 9.37484 2.01217 9.37484 1.66699ZM9.99984 6.87533C10.345 6.87533 10.6248 7.15515 10.6248 7.50033V10.2087H13.3332C13.6783 10.2087 13.9582 10.4885 13.9582 10.8337C13.9582 11.1788 13.6783 11.4587 13.3332 11.4587H9.99984C9.65466 11.4587 9.37484 11.1788 9.37484 10.8337V7.50033C9.37484 7.15515 9.65466 6.87533 9.99984 6.87533Z" fill="#898A8D"/>
<path fill-rule="evenodd" clip-rule="evenodd" d="M7.58282 1.99828C7.70712 2.32029 7.54685 2.68211 7.22483 2.80642C7.10697 2.85191 6.9905 2.90023 6.8755 2.95128C6.56002 3.09134 6.19072 2.94912 6.05067 2.63364C5.91061 2.31815 6.05282 1.94886 6.36831 1.8088C6.50207 1.74942 6.63755 1.69322 6.77467 1.64029C7.09669 1.51598 7.45851 1.67626 7.58282 1.99828ZM4.70626 3.53388C4.94431 3.78384 4.93466 4.17945 4.6847 4.4175C4.59331 4.50454 4.50405 4.5938 4.41701 4.68519C4.17896 4.93515 3.78335 4.9448 3.53339 4.70675C3.28343 4.46869 3.27378 4.07308 3.51183 3.82313C3.61289 3.71701 3.71652 3.61338 3.82264 3.51232C4.07259 3.27427 4.4682 3.28392 4.70626 3.53388ZM2.63315 6.05116C2.94863 6.19121 3.09085 6.56051 2.95079 6.87599C2.89974 6.99099 2.85143 7.10745 2.80593 7.22532C2.68162 7.54733 2.31981 7.70761 1.99779 7.58331C1.67577 7.459 1.51549 7.09718 1.6398 6.77516C1.69273 6.63804 1.74893 6.50255 1.80831 6.3688C1.94837 6.05331 2.31766 5.9111 2.63315 6.05116Z" fill="#898A8D"/>
</svg>
