<svg width="21" height="21" viewBox="0 0 21 21" fill="none" xmlns="http://www.w3.org/2000/svg">
<path d="M14.666 12.6087C15.1263 12.6087 15.4993 12.2356 15.4993 11.7754C15.4993 11.3152 15.1263 10.9421 14.666 10.9421C14.2058 10.9421 13.8327 11.3152 13.8327 11.7754C13.8327 12.2356 14.2058 12.6087 14.666 12.6087Z" fill="#1C274C"/>
<path d="M14.666 15.9421C15.1263 15.9421 15.4993 15.569 15.4993 15.1087C15.4993 14.6485 15.1263 14.2754 14.666 14.2754C14.2058 14.2754 13.8327 14.6485 13.8327 15.1087C13.8327 15.569 14.2058 15.9421 14.666 15.9421Z" fill="#1C274C"/>
<path d="M11.3327 11.7754C11.3327 12.2356 10.9596 12.6087 10.4993 12.6087C10.0391 12.6087 9.66602 12.2356 9.66602 11.7754C9.66602 11.3152 10.0391 10.9421 10.4993 10.9421C10.9596 10.9421 11.3327 11.3152 11.3327 11.7754Z" fill="#1C274C"/>
<path d="M11.3327 15.1087C11.3327 15.569 10.9596 15.9421 10.4993 15.9421C10.0391 15.9421 9.66602 15.569 9.66602 15.1087C9.66602 14.6485 10.0391 14.2754 10.4993 14.2754C10.9596 14.2754 11.3327 14.6485 11.3327 15.1087Z" fill="#1C274C"/>
<path d="M6.33268 12.6087C6.79292 12.6087 7.16602 12.2356 7.16602 11.7754C7.16602 11.3152 6.79292 10.9421 6.33268 10.9421C5.87245 10.9421 5.49935 11.3152 5.49935 11.7754C5.49935 12.2356 5.87245 12.6087 6.33268 12.6087Z" fill="#1C274C"/>
<path d="M6.33268 15.9421C6.79292 15.9421 7.16602 15.569 7.16602 15.1087C7.16602 14.6485 6.79292 14.2754 6.33268 14.2754C5.87245 14.2754 5.49935 14.6485 5.49935 15.1087C5.49935 15.569 5.87245 15.9421 6.33268 15.9421Z" fill="#1C274C"/>
<path fill-rule="evenodd" clip-rule="evenodd" d="M6.33268 2.40039C6.67786 2.40039 6.95768 2.68021 6.95768 3.02539V3.66099C7.50935 3.65038 8.11712 3.65038 8.78556 3.65039H12.213C12.8815 3.65038 13.4893 3.65038 14.041 3.66099V3.02539C14.041 2.68021 14.3208 2.40039 14.666 2.40039C15.0112 2.40039 15.291 2.68021 15.291 3.02539V3.71463C15.5076 3.73115 15.7128 3.75191 15.9069 3.778C16.8839 3.90936 17.6747 4.18612 18.2983 4.80976C18.9219 5.4334 19.1987 6.22419 19.3301 7.2012C19.4577 8.15054 19.4577 9.36356 19.4577 10.895V12.6557C19.4577 14.1872 19.4577 15.4002 19.3301 16.3496C19.1987 17.3266 18.9219 18.1174 18.2983 18.741C17.6747 19.3647 16.8839 19.6414 15.9069 19.7728C14.9575 19.9004 13.7445 19.9004 12.2131 19.9004H8.78567C7.25422 19.9004 6.04117 19.9004 5.09183 19.7728C4.11481 19.6414 3.32402 19.3647 2.70039 18.741C2.07675 18.1174 1.79998 17.3266 1.66863 16.3496C1.54099 15.4002 1.541 14.1872 1.54102 12.6557V10.895C1.541 9.36358 1.54099 8.15055 1.66863 7.2012C1.79998 6.22419 2.07675 5.4334 2.70039 4.80976C3.32402 4.18612 4.11481 3.90936 5.09183 3.778C5.28594 3.75191 5.49106 3.73115 5.70768 3.71463V3.02539C5.70768 2.68021 5.98751 2.40039 6.33268 2.40039ZM5.25839 5.01686C4.41998 5.12958 3.93694 5.34097 3.58427 5.69364C3.23159 6.04632 3.0202 6.52936 2.90748 7.36776C2.88839 7.50975 2.87243 7.65923 2.85909 7.81706H18.1396C18.1263 7.65923 18.1103 7.50975 18.0912 7.36776C17.9785 6.52936 17.7671 6.04632 17.4144 5.69364C17.0618 5.34097 16.5787 5.12958 15.7403 5.01686C14.8839 4.90172 13.755 4.90039 12.166 4.90039H8.83268C7.24367 4.90039 6.11478 4.90172 5.25839 5.01686ZM2.79102 10.9421C2.79102 10.2304 2.79128 9.611 2.80192 9.06706H18.1968C18.2074 9.611 18.2077 10.2304 18.2077 10.9421V12.6087C18.2077 14.1977 18.2064 15.3266 18.0912 16.183C17.9785 17.0214 17.7671 17.5045 17.4144 17.8571C17.0618 18.2098 16.5787 18.4212 15.7403 18.5339C14.8839 18.6491 13.755 18.6504 12.166 18.6504H8.83268C7.24367 18.6504 6.11478 18.6491 5.25839 18.5339C4.41998 18.4212 3.93694 18.2098 3.58427 17.8571C3.23159 17.5045 3.0202 17.0214 2.90748 16.183C2.79234 15.3266 2.79102 14.1977 2.79102 12.6087V10.9421Z" fill="#1C274C"/>
</svg>
