<svg width="21" height="21" viewBox="0 0 21 21" fill="none" xmlns="http://www.w3.org/2000/svg">
<path d="M10.2747 15.5234C10.6199 15.5234 10.8997 15.2436 10.8997 14.8984V9.89844C10.8997 9.55326 10.6199 9.27344 10.2747 9.27344C9.92956 9.27344 9.64974 9.55326 9.64974 9.89844V14.8984C9.64974 15.2436 9.92956 15.5234 10.2747 15.5234Z" fill="white"/>
<path d="M10.2747 6.5651C10.735 6.5651 11.1081 6.9382 11.1081 7.39844C11.1081 7.85868 10.735 8.23177 10.2747 8.23177C9.8145 8.23177 9.44141 7.85868 9.44141 7.39844C9.44141 6.9382 9.8145 6.5651 10.2747 6.5651Z" fill="white"/>
<path fill-rule="evenodd" clip-rule="evenodd" d="M1.31641 10.7318C1.31641 5.78422 5.32719 1.77344 10.2747 1.77344C15.2223 1.77344 19.2331 5.78422 19.2331 10.7318C19.2331 15.6793 15.2223 19.6901 10.2747 19.6901C5.32719 19.6901 1.31641 15.6793 1.31641 10.7318ZM10.2747 3.02344C6.01754 3.02344 2.56641 6.47458 2.56641 10.7318C2.56641 14.989 6.01754 18.4401 10.2747 18.4401C14.5319 18.4401 17.9831 14.989 17.9831 10.7318C17.9831 6.47458 14.5319 3.02344 10.2747 3.02344Z" fill="white"/>
</svg>
