<svg width="13" height="13" viewBox="0 0 13 13" fill="none" xmlns="http://www.w3.org/2000/svg">
<path d="M11.4941 3.48853C11.4941 4.31695 10.8226 4.98853 9.99414 4.98853C9.16571 4.98853 8.49414 4.31695 8.49414 3.48853C8.49414 2.6601 9.16571 1.98853 9.99414 1.98853C10.8226 1.98853 11.4941 2.6601 11.4941 3.48853Z" fill="#235BA8"/>
<path fill-rule="evenodd" clip-rule="evenodd" d="M6.49414 1.98853C7.19352 1.98853 7.78914 1.98853 8.30013 2.00766C7.95393 2.40336 7.74414 2.92144 7.74414 3.48853C7.74414 4.73117 8.7515 5.73853 9.99414 5.73853C10.5612 5.73853 11.0793 5.52874 11.475 5.18253C11.4941 5.69352 11.4941 6.28914 11.4941 6.98853C11.4941 9.34555 11.4941 10.5241 10.7619 11.2563C10.0297 11.9885 8.85116 11.9885 6.49414 11.9885C4.13712 11.9885 2.95861 11.9885 2.22637 11.2563C1.49414 10.5241 1.49414 9.34555 1.49414 6.98853C1.49414 4.6315 1.49414 3.45299 2.22637 2.72076C2.95861 1.98853 4.13712 1.98853 6.49414 1.98853ZM7.74414 6.36353C7.53703 6.36353 7.36914 6.19563 7.36914 5.98853C7.36914 5.78142 7.53703 5.61353 7.74414 5.61353H8.99414C9.20125 5.61353 9.36914 5.78142 9.36914 5.98853V7.23853C9.36914 7.44563 9.20125 7.61353 8.99414 7.61353C8.78703 7.61353 8.61914 7.44563 8.61914 7.23853V6.89386L7.61286 7.90014C7.27115 8.24185 6.71713 8.24185 6.37542 7.90014L5.58253 7.10724C5.53371 7.05843 5.45457 7.05843 5.40575 7.10724L4.25931 8.25369C4.11286 8.40014 3.87542 8.40014 3.72898 8.25369C3.58253 8.10724 3.58253 7.86981 3.72898 7.72336L4.87542 6.57691C5.21713 6.23521 5.77115 6.2352 6.11286 6.57691L6.90575 7.36981C6.95457 7.41862 7.03371 7.41862 7.08253 7.36981L8.08881 6.36353H7.74414Z" fill="#235BA8"/>
</svg>
