<svg width="29" height="24" viewBox="0 0 29 24" fill="none" xmlns="http://www.w3.org/2000/svg">
<path d="M24.7636 11.512V15.888L21.4756 19.2V15.496C21.4746 15.4059 21.4584 15.3166 21.4276 15.232C21.3891 15.1497 21.3378 15.0741 21.2756 15.008C21.2102 14.9411 21.131 14.8893 21.0436 14.856C20.96 14.8204 20.8704 14.8014 20.7796 14.8H17.0996L20.3796 11.52L24.7636 11.512Z" fill="white"/>
<path d="M4.4998 22.968H24.4998C25.3485 22.968 26.1624 22.6308 26.7625 22.0307C27.3627 21.4306 27.6998 20.6167 27.6998 19.768V4.23198C27.6998 3.38329 27.3627 2.56936 26.7625 1.96924C26.1624 1.36912 25.3485 1.03198 24.4998 1.03198H4.4998C3.65111 1.03198 2.83718 1.36912 2.23706 1.96924C1.63695 2.56936 1.2998 3.38329 1.2998 4.23198V19.768C1.2998 20.6167 1.63695 21.4306 2.23706 22.0307C2.83718 22.6308 3.65111 22.968 4.4998 22.968Z" stroke="white" stroke-width="2" stroke-miterlimit="10"/>
<path fill-rule="evenodd" clip-rule="evenodd" d="M6.76357 4.23188C6.76357 4.44406 6.67929 4.64754 6.52926 4.79757C6.37923 4.9476 6.17575 5.03188 5.96357 5.03188C5.7514 5.03188 5.54792 4.9476 5.39789 4.79757C5.24786 4.64754 5.16357 4.44406 5.16357 4.23188C5.16357 4.01971 5.24786 3.81623 5.39789 3.6662C5.54792 3.51617 5.7514 3.43188 5.96357 3.43188C6.17575 3.43188 6.37923 3.51617 6.52926 3.6662C6.67929 3.81623 6.76357 4.01971 6.76357 4.23188Z" fill="white"/>
<path fill-rule="evenodd" clip-rule="evenodd" d="M9.36367 4.23188C9.36367 4.44406 9.27939 4.64754 9.12936 4.79757C8.97933 4.9476 8.77585 5.03188 8.56367 5.03188C8.3515 5.03188 8.14802 4.9476 7.99799 4.79757C7.84796 4.64754 7.76367 4.44406 7.76367 4.23188C7.76367 4.01971 7.84796 3.81623 7.99799 3.6662C8.14802 3.51617 8.3515 3.43188 8.56367 3.43188C8.77585 3.43188 8.97933 3.51617 9.12936 3.6662C9.27939 3.81623 9.36367 4.01971 9.36367 4.23188Z" fill="white"/>
<path fill-rule="evenodd" clip-rule="evenodd" d="M11.9638 4.23188C11.9638 4.44406 11.8795 4.64754 11.7295 4.79757C11.5794 4.9476 11.3759 5.03188 11.1638 5.03188C10.9516 5.03188 10.7481 4.9476 10.5981 4.79757C10.4481 4.64754 10.3638 4.44406 10.3638 4.23188C10.3638 4.01971 10.4481 3.81623 10.5981 3.6662C10.7481 3.51617 10.9516 3.43188 11.1638 3.43188C11.3759 3.43188 11.5794 3.51617 11.7295 3.6662C11.8795 3.81623 11.9638 4.01971 11.9638 4.23188Z" fill="white"/>
<path d="M1.2998 7.448H27.6998" stroke="white" stroke-width="2" stroke-miterlimit="10"/>
<path d="M8.37957 14.2639H5.76357C5.4322 14.2639 5.16357 14.5325 5.16357 14.8639V20.0399C5.16357 20.3713 5.4322 20.6399 5.76357 20.6399H8.37957C8.71095 20.6399 8.97957 20.3713 8.97957 20.0399V14.8639C8.97957 14.5325 8.71095 14.2639 8.37957 14.2639Z" stroke="#F6BC25" stroke-width="1.5" stroke-linejoin="round"/>
<path d="M14.7878 11.512H12.1718C11.8404 11.512 11.5718 11.7806 11.5718 12.112V20.048C11.5718 20.3793 11.8404 20.648 12.1718 20.648H14.7878C15.1191 20.648 15.3878 20.3793 15.3878 20.048V12.112C15.3878 11.7806 15.1191 11.512 14.7878 11.512Z" stroke="#F6BC25" stroke-width="1.5" stroke-linejoin="round"/>
</svg>
