<svg width="40" height="40" viewBox="0 0 40 40" fill="none" xmlns="http://www.w3.org/2000/svg">
<path d="M32.83 19.3901V24.8601L28.72 29.0001V24.3701C28.7187 24.2575 28.6984 24.146 28.66 24.0401C28.6119 23.9373 28.5478 23.8428 28.47 23.7601C28.3882 23.6766 28.2892 23.6118 28.18 23.5701C28.0755 23.5257 27.9635 23.502 27.85 23.5001H23.25L27.35 19.4001L32.83 19.3901Z" fill="#235BA8"/>
<path d="M7.5 33.71H32.5C33.5609 33.71 34.5783 33.2886 35.3284 32.5385C36.0786 31.7883 36.5 30.7709 36.5 29.71V10.29C36.5 9.22917 36.0786 8.21176 35.3284 7.46161C34.5783 6.71147 33.5609 6.29004 32.5 6.29004H7.5C6.43913 6.29004 5.42172 6.71147 4.67157 7.46161C3.92143 8.21176 3.5 9.22917 3.5 10.29V29.71C3.5 30.7709 3.92143 31.7883 4.67157 32.5385C5.42172 33.2886 6.43913 33.71 7.5 33.71Z" stroke="#235BA8" stroke-width="2" stroke-miterlimit="10"/>
<path fill-rule="evenodd" clip-rule="evenodd" d="M10.3301 10.29C10.3301 10.5553 10.2247 10.8096 10.0372 10.9971C9.84965 11.1847 9.59529 11.29 9.33008 11.29C9.06486 11.29 8.81051 11.1847 8.62297 10.9971C8.43544 10.8096 8.33008 10.5553 8.33008 10.29C8.33008 10.0248 8.43544 9.77047 8.62297 9.58293C8.81051 9.3954 9.06486 9.29004 9.33008 9.29004C9.59529 9.29004 9.84965 9.3954 10.0372 9.58293C10.2247 9.77047 10.3301 10.0248 10.3301 10.29Z" fill="#009E87"/>
<path fill-rule="evenodd" clip-rule="evenodd" d="M13.5801 10.29C13.5801 10.5553 13.4747 10.8096 13.2872 10.9971C13.0996 11.1847 12.8453 11.29 12.5801 11.29C12.3149 11.29 12.0605 11.1847 11.873 10.9971C11.6854 10.8096 11.5801 10.5553 11.5801 10.29C11.5801 10.0248 11.6854 9.77047 11.873 9.58293C12.0605 9.3954 12.3149 9.29004 12.5801 9.29004C12.8453 9.29004 13.0996 9.3954 13.2872 9.58293C13.4747 9.77047 13.5801 10.0248 13.5801 10.29Z" fill="#009E87"/>
<path fill-rule="evenodd" clip-rule="evenodd" d="M16.8301 10.29C16.8301 10.5553 16.7247 10.8096 16.5372 10.9971C16.3496 11.1847 16.0953 11.29 15.8301 11.29C15.5649 11.29 15.3105 11.1847 15.123 10.9971C14.9354 10.8096 14.8301 10.5553 14.8301 10.29C14.8301 10.0248 14.9354 9.77047 15.123 9.58293C15.3105 9.3954 15.5649 9.29004 15.8301 9.29004C16.0953 9.29004 16.3496 9.3954 16.5372 9.58293C16.7247 9.77047 16.8301 10.0248 16.8301 10.29Z" fill="#009E87"/>
<path d="M3.5 14.3101H36.5" stroke="#235BA8" stroke-width="2" stroke-miterlimit="10"/>
<path d="M12.3501 22.8301H9.08008C8.66586 22.8301 8.33008 23.1659 8.33008 23.5801V30.0501C8.33008 30.4643 8.66586 30.8001 9.08008 30.8001H12.3501C12.7643 30.8001 13.1001 30.4643 13.1001 30.0501V23.5801C13.1001 23.1659 12.7643 22.8301 12.3501 22.8301Z" stroke="#FFB81C" stroke-width="1.5" stroke-linejoin="round"/>
<path d="M20.3598 19.3901H17.0898C16.6756 19.3901 16.3398 19.7259 16.3398 20.1401V30.0601C16.3398 30.4743 16.6756 30.8101 17.0898 30.8101H20.3598C20.7741 30.8101 21.1098 30.4743 21.1098 30.0601V20.1401C21.1098 19.7259 20.7741 19.3901 20.3598 19.3901Z" stroke="#FFB81C" stroke-width="1.5" stroke-linejoin="round"/>
</svg>
