<svg width="40" height="40" viewBox="0 0 40 40" fill="none" xmlns="http://www.w3.org/2000/svg">
<path opacity="0.2" d="M18.48 31.51V36.13H12.7C12.1133 35.8985 11.5588 35.5927 11.05 35.22C10.2729 34.6367 9.61448 33.9103 9.10996 33.08C8.85162 32.6582 8.63397 32.2129 8.45996 31.75V23.47H10.57C12.683 23.4937 14.7008 24.3525 16.1828 25.8589C17.6648 27.3653 18.4907 29.3968 18.48 31.51Z" fill="#009E87"/>
<path d="M17.9697 7.80005H21.3097" stroke="#009E87" stroke-width="2" stroke-miterlimit="10" stroke-linecap="round"/>
<path d="M20.74 36.64H12.46C11.3991 36.64 10.3817 36.2186 9.63153 35.4684C8.88139 34.7183 8.45996 33.7009 8.45996 32.64V6.5C8.45996 5.43913 8.88139 4.42172 9.63153 3.67157C10.3817 2.92143 11.3991 2.5 12.46 2.5H26.81C27.8708 2.5 28.8882 2.92143 29.6384 3.67157C30.3885 4.42172 30.81 5.43913 30.81 6.5V18" stroke="#235BA8" stroke-width="2" stroke-miterlimit="10" stroke-linecap="round"/>
<path d="M32.2596 27.0901V33.0001L27.7996 37.5001V32.5001C27.7981 32.3759 27.7708 32.2533 27.7196 32.1401C27.6759 32.0236 27.6077 31.9179 27.5196 31.8301C27.4283 31.7464 27.3235 31.6788 27.2096 31.6301C27.096 31.5811 26.9732 31.5573 26.8496 31.5601H21.8496L26.3096 27.1001L32.2596 27.0901Z" fill="#235BA8"/>
<path d="M32.2595 22.7299V27.0899H26.3095L21.8495 31.5399H15.7395C15.6296 31.541 15.5218 31.5097 15.4295 31.4499C15.3396 31.3883 15.2699 31.3013 15.2295 31.1999C15.1995 31.0954 15.1995 30.9845 15.2295 30.8799C15.2485 30.773 15.301 30.6749 15.3795 30.5999L23.8295 22.2299C24.0117 22.0439 24.2593 21.9363 24.5195 21.9299H31.5195C31.6257 21.9304 31.7309 21.9507 31.8295 21.9899C31.9269 22.0381 32.0176 22.0986 32.0995 22.1699C32.1773 22.2467 32.2386 22.3386 32.2795 22.4399C32.3187 22.5386 32.3391 22.6438 32.3395 22.7499" fill="#FFB81C"/>
</svg>
