<svg width="61" height="61" viewBox="0 0 61 61" fill="none" xmlns="http://www.w3.org/2000/svg">
<g clip-path="url(#clip0_100_3613)">
<path d="M47.9342 34.5404C47.9632 34.6647 47.9567 34.7946 47.9156 34.9154C47.8746 35.0363 47.8005 35.1432 47.7018 35.2241C47.2574 35.5522 46.7993 35.8599 46.3344 36.1744L45.6918 36.5983L45.5756 36.4547C43.5609 34.189 41.3358 32.1196 38.9302 30.2742L37.2894 28.9069C35.5733 27.4712 33.871 26.0081 31.984 24.3809C31.8269 24.2128 31.6207 24.0985 31.3949 24.0543C31.169 24.0101 30.935 24.0383 30.7261 24.1348L29.3587 24.5929C28.675 24.8117 27.9913 25.0304 27.3487 25.2766C27.0602 25.4311 26.8119 25.6512 26.624 25.9192C25.9403 26.7738 25.1267 27.6968 23.773 27.8267H23.4722C23.0734 27.8179 22.6767 27.7652 22.2895 27.6694C22.1215 27.6523 21.9592 27.5988 21.814 27.5126C21.6687 27.4264 21.544 27.3096 21.4485 27.1703C21.3835 27.0252 21.3498 26.8679 21.3498 26.7089C21.3498 26.5498 21.3835 26.3925 21.4485 26.2474C21.7226 25.3547 22.1037 24.4984 22.5834 23.6973C23.8907 21.7287 25.6012 20.0601 27.6016 18.8021C28.5109 18.1911 29.5827 17.8671 30.6782 17.8723C31.6522 17.8899 32.6135 18.0966 33.5086 18.4808C36.6991 19.7661 39.9056 21.0583 43.128 22.3572L42.0751 19.8345L41.6649 19.6909C41.5392 19.6581 41.4159 19.617 41.2957 19.5678L39.8805 18.9867C38.3764 18.3714 36.8655 17.7561 35.3682 17.1203C34.1151 16.5335 32.7806 16.1394 31.4097 15.9512C31.1827 15.9253 30.9545 15.9116 30.7261 15.9102C28.8938 15.9644 27.1303 16.6203 25.7079 17.7766C25.413 17.9913 25.0606 18.1128 24.696 18.1253C23.1714 18.1253 21.6468 18.1253 20.1222 18.1253H15.4664C15.4691 18.148 15.4691 18.1709 15.4664 18.1936C15.4664 18.4056 15.3365 19.0893 15.1587 20.0943H22.9321L22.4262 20.6822L22.016 21.1608C20.8006 22.5247 19.9431 24.1692 19.5206 25.9466C19.407 26.3398 19.3781 26.7526 19.436 27.1578C19.4938 27.563 19.637 27.9514 19.8561 28.2971C20.0751 28.6428 20.3651 28.9381 20.7068 29.1635C21.0485 29.3888 21.4342 29.539 21.8382 29.6042C22.3494 29.7391 22.8752 29.8103 23.4039 29.8162C24.2399 29.7987 25.0614 29.5951 25.8089 29.2202C26.5563 28.8453 27.2108 28.3085 27.7247 27.6489C28.0045 27.3105 28.3856 27.0709 28.8118 26.9652C29.1356 26.8694 29.4531 26.753 29.7621 26.6166C30.0082 26.5208 30.2543 26.4183 30.5073 26.3363C30.5957 26.3083 30.688 26.2944 30.7808 26.2952C30.942 26.2908 31.1003 26.3388 31.232 26.432L31.8336 26.9311C34.9649 29.5427 38.2055 32.2296 41.3573 34.9643C42.1139 35.6354 42.8264 36.3548 43.4903 37.1179L43.7775 37.4255C44.0865 37.7743 44.3359 38.1716 44.5159 38.6014C44.6188 38.8454 44.662 39.1104 44.6418 39.3744C44.6216 39.6384 44.5385 39.8938 44.3996 40.1192C44.2536 40.3492 44.0515 40.5382 43.8123 40.6686C43.5731 40.7989 43.3047 40.8663 43.0323 40.8644C42.631 40.8322 42.2536 40.6605 41.9657 40.379C40.5984 39.0117 39.1832 37.6443 37.8637 36.2769L37.18 35.5933L36.3596 34.7455C36.0656 34.4447 35.7784 34.1439 35.4845 33.8499C35.3824 33.7354 35.2584 33.6426 35.1198 33.5768C34.9813 33.5111 34.8309 33.4737 34.6777 33.467C34.4411 33.4693 34.2149 33.5652 34.0487 33.7337C33.9503 33.8188 33.8709 33.9236 33.8155 34.0414C33.7602 34.1592 33.7301 34.2872 33.7274 34.4173C33.7371 34.5744 33.7792 34.7277 33.8509 34.8677C33.9227 35.0077 34.0226 35.1314 34.1444 35.2309C36.3527 37.4871 38.3559 39.5176 40.4138 41.5549C40.605 41.7144 40.7254 41.9429 40.7488 42.1908C40.7384 42.3084 40.7046 42.4229 40.6494 42.5274C40.5942 42.6318 40.5188 42.7243 40.4275 42.7992C40.0107 43.225 39.4438 43.4704 38.8482 43.4829C38.337 43.4799 37.8469 43.279 37.4808 42.9223C36.2433 41.7259 35.0127 40.4816 33.8231 39.2783L32.3874 37.8357L32.1891 37.6306C32.0862 37.5106 31.9742 37.3986 31.8541 37.2956C31.6779 37.1419 31.4521 37.0569 31.2183 37.0563C30.9664 37.0501 30.7218 37.1406 30.5346 37.3093C30.3565 37.4707 30.2457 37.6933 30.2242 37.9327C30.2027 38.1721 30.272 38.4108 30.4184 38.6014C30.5022 38.7103 30.5936 38.8131 30.6919 38.9091L35.6964 44.0025L36.1545 44.4879L36.0041 44.6247C35.8878 44.734 35.7784 44.8503 35.6691 44.9665C35.4224 45.2221 35.1497 45.4512 34.8555 45.6502C34.6061 45.8308 34.3086 45.9331 34.0009 45.9442C33.809 45.9351 33.6208 45.8881 33.4471 45.806C33.2735 45.7238 33.1178 45.6081 32.989 45.4656C31.6217 44.1666 30.3432 42.8539 29.0237 41.5413L27.6563 40.1739C27.588 40.1055 27.5196 40.0372 27.4581 39.962C27.3965 39.8868 27.2872 39.7842 27.1983 39.7022C27.003 39.5086 26.7416 39.3962 26.4667 39.3877C26.2302 39.3874 26.0026 39.478 25.8309 39.6406C25.7391 39.7293 25.6661 39.8355 25.6162 39.9529C25.5664 40.0704 25.5407 40.1967 25.5407 40.3243C25.5407 40.4519 25.5664 40.5782 25.6162 40.6957C25.6661 40.8131 25.7391 40.9194 25.8309 41.008C26.7197 41.972 27.6427 42.9223 28.5656 43.8521L28.9827 44.276C29.5365 44.8434 30.1107 45.4314 30.6645 46.1151L30.9653 46.4979L30.4799 46.4501C30.3638 46.4433 30.2474 46.4433 30.1313 46.4501C29.8466 46.4561 29.5627 46.4169 29.2903 46.3338L28.675 46.1766C27.9731 45.9559 27.3074 45.6334 26.6992 45.2195C23.5611 42.8403 19.9171 40.0645 16.444 37.2136C15.3139 36.244 14.2495 35.2002 13.2581 34.0892C12.8957 33.6995 12.5334 33.3098 12.1642 32.9269C12.1049 32.8632 12.0626 32.7856 12.0411 32.7013C11.7745 33.4602 11.4873 34.1849 11.1934 34.8617L11.4258 35.0873C11.877 35.5181 12.3146 35.9556 12.7453 36.3863C13.7093 37.3503 14.6186 38.2596 15.6236 39.121C17.7567 40.8781 19.9786 42.6078 22.1322 44.276L24.3952 46.0467C25.5058 46.9814 26.7843 47.6961 28.1623 48.1524C28.81 48.3499 29.4816 48.458 30.1586 48.4738C30.9602 48.483 31.7469 48.2572 32.4216 47.8243C32.5203 47.771 32.6307 47.7428 32.7429 47.7422C32.8131 47.7312 32.8846 47.7312 32.9548 47.7422C33.2701 47.847 33.6003 47.9001 33.9325 47.8995C34.6455 47.8725 35.3401 47.666 35.952 47.2991C36.5639 46.9322 37.0733 46.4168 37.4329 45.8006C37.4918 45.6718 37.5892 45.5645 37.7117 45.4935C37.8341 45.4225 37.9756 45.3912 38.1166 45.404H38.2465H38.6089C39.3832 45.4389 40.152 45.2587 40.8302 44.8834C41.5084 44.5081 42.0694 43.9524 42.4511 43.2778C42.5286 43.164 42.6298 43.0684 42.7479 42.9975C42.8659 42.9267 42.998 42.8824 43.1348 42.8676C43.6634 42.8258 44.178 42.6777 44.6479 42.4321C45.1179 42.1866 45.5334 41.8487 45.8695 41.4387C46.1748 41.0762 46.4026 40.6551 46.539 40.2012C46.6754 39.7474 46.7174 39.2704 46.6626 38.7997C46.65 38.6946 46.662 38.5881 46.6976 38.4884C46.7332 38.3888 46.7914 38.2987 46.8677 38.2254C47.2642 37.9451 47.6676 37.6716 48.0983 37.3913L48.782 36.9264C48.5496 36.3316 48.2761 35.4907 47.9342 34.5404Z" fill="black"/>
<path d="M47.9342 34.5404C47.9632 34.6647 47.9567 34.7946 47.9156 34.9154C47.8746 35.0363 47.8005 35.1432 47.7018 35.2241C47.2574 35.5522 46.7993 35.8599 46.3344 36.1744L45.6918 36.5983L45.5756 36.4547C43.5609 34.189 41.3358 32.1196 38.9302 30.2742L37.2894 28.9069C35.5733 27.4712 33.871 26.0081 31.984 24.3809C31.8269 24.2128 31.6207 24.0985 31.3949 24.0543C31.169 24.0101 30.935 24.0383 30.7261 24.1348L29.3587 24.5929C28.675 24.8117 27.9913 25.0304 27.3487 25.2766C27.0602 25.4311 26.8119 25.6512 26.624 25.9192C25.9403 26.7738 25.1267 27.6968 23.773 27.8267H23.4722C23.0734 27.8179 22.6767 27.7652 22.2895 27.6694C22.1215 27.6523 21.9592 27.5988 21.814 27.5126C21.6687 27.4264 21.544 27.3096 21.4485 27.1703C21.3835 27.0252 21.3498 26.8679 21.3498 26.7089C21.3498 26.5498 21.3835 26.3925 21.4485 26.2474C21.7226 25.3547 22.1037 24.4984 22.5834 23.6973C23.8907 21.7287 25.6012 20.0601 27.6016 18.8021C28.5109 18.1911 29.5827 17.8671 30.6782 17.8723C31.6522 17.8899 32.6135 18.0966 33.5086 18.4808C36.6991 19.7661 39.9056 21.0583 43.128 22.3572L42.0751 19.8345L41.6649 19.6909C41.5392 19.6581 41.4159 19.617 41.2957 19.5678L39.8805 18.9867C38.3764 18.3714 36.8655 17.7561 35.3682 17.1203C34.1151 16.5335 32.7806 16.1394 31.4097 15.9512C31.1827 15.9253 30.9545 15.9116 30.7261 15.9102C28.8938 15.9644 27.1303 16.6203 25.7079 17.7766C25.413 17.9913 25.0606 18.1128 24.696 18.1253C23.1714 18.1253 21.6468 18.1253 20.1222 18.1253H15.4664C15.4691 18.148 15.4691 18.1709 15.4664 18.1936C15.4664 18.4056 15.3365 19.0893 15.1587 20.0943H22.9321L22.4262 20.6822L22.016 21.1608C20.8006 22.5247 19.9431 24.1692 19.5206 25.9466C19.407 26.3398 19.3781 26.7526 19.436 27.1578C19.4938 27.563 19.637 27.9514 19.8561 28.2971C20.0751 28.6428 20.3651 28.9381 20.7068 29.1635C21.0485 29.3888 21.4342 29.539 21.8382 29.6042C22.3494 29.7391 22.8752 29.8103 23.4039 29.8162C24.2399 29.7987 25.0614 29.5951 25.8089 29.2202C26.5563 28.8453 27.2108 28.3085 27.7247 27.6489C28.0045 27.3105 28.3856 27.0709 28.8118 26.9652C29.1356 26.8694 29.4531 26.753 29.7621 26.6166C30.0082 26.5208 30.2543 26.4183 30.5073 26.3363C30.5957 26.3083 30.688 26.2944 30.7808 26.2952C30.942 26.2908 31.1003 26.3388 31.232 26.432L31.8336 26.9311C34.9649 29.5427 38.2055 32.2296 41.3573 34.9643C42.1139 35.6354 42.8264 36.3548 43.4903 37.1179L43.7775 37.4255C44.0865 37.7743 44.3359 38.1716 44.5159 38.6014C44.6188 38.8454 44.662 39.1104 44.6418 39.3744C44.6216 39.6384 44.5385 39.8938 44.3996 40.1192C44.2536 40.3492 44.0515 40.5382 43.8123 40.6686C43.5731 40.7989 43.3047 40.8663 43.0323 40.8644C42.631 40.8322 42.2536 40.6605 41.9657 40.379C40.5984 39.0117 39.1832 37.6443 37.8637 36.2769L37.18 35.5933L36.3596 34.7455C36.0656 34.4447 35.7784 34.1439 35.4845 33.8499C35.3824 33.7354 35.2584 33.6426 35.1198 33.5768C34.9813 33.5111 34.8309 33.4737 34.6777 33.467C34.4411 33.4693 34.2149 33.5652 34.0487 33.7337C33.9503 33.8188 33.8709 33.9236 33.8155 34.0414C33.7602 34.1592 33.7301 34.2872 33.7274 34.4173C33.7371 34.5744 33.7792 34.7277 33.8509 34.8677C33.9227 35.0077 34.0226 35.1314 34.1444 35.2309C36.3527 37.4871 38.3559 39.5176 40.4138 41.5549C40.605 41.7144 40.7254 41.9429 40.7488 42.1908C40.7384 42.3084 40.7046 42.4229 40.6494 42.5274C40.5942 42.6318 40.5188 42.7243 40.4275 42.7992C40.0107 43.225 39.4438 43.4704 38.8482 43.4829C38.337 43.4799 37.8469 43.279 37.4808 42.9223C36.2433 41.7259 35.0127 40.4816 33.8231 39.2783L32.3874 37.8357L32.1891 37.6306C32.0862 37.5106 31.9742 37.3986 31.8541 37.2956C31.6779 37.1419 31.4521 37.0569 31.2183 37.0563C30.9664 37.0501 30.7218 37.1406 30.5346 37.3093C30.3565 37.4707 30.2457 37.6933 30.2242 37.9327C30.2027 38.1721 30.272 38.4108 30.4184 38.6014C30.5022 38.7103 30.5936 38.8131 30.6919 38.9091L35.6964 44.0025L36.1545 44.4879L36.0041 44.6247C35.8878 44.734 35.7784 44.8503 35.6691 44.9665C35.4224 45.2221 35.1497 45.4512 34.8555 45.6502C34.6061 45.8308 34.3086 45.9331 34.0009 45.9442C33.809 45.9351 33.6208 45.8881 33.4471 45.806C33.2735 45.7238 33.1178 45.6081 32.989 45.4656C31.6217 44.1666 30.3432 42.8539 29.0237 41.5413L27.6563 40.1739C27.588 40.1055 27.5196 40.0372 27.4581 39.962C27.3965 39.8868 27.2872 39.7842 27.1983 39.7022C27.003 39.5086 26.7416 39.3962 26.4667 39.3877C26.2302 39.3874 26.0026 39.478 25.8309 39.6406C25.7391 39.7293 25.6661 39.8355 25.6162 39.9529C25.5664 40.0704 25.5407 40.1967 25.5407 40.3243C25.5407 40.4519 25.5664 40.5782 25.6162 40.6957C25.6661 40.8131 25.7391 40.9194 25.8309 41.008C26.7197 41.972 27.6427 42.9223 28.5656 43.8521L28.9827 44.276C29.5365 44.8434 30.1107 45.4314 30.6645 46.1151L30.9653 46.4979L30.4799 46.4501C30.3638 46.4433 30.2474 46.4433 30.1313 46.4501C29.8466 46.4561 29.5627 46.4169 29.2903 46.3338L28.675 46.1766C27.9731 45.9559 27.3074 45.6334 26.6992 45.2195C23.5611 42.8403 19.9171 40.0645 16.444 37.2136C15.3139 36.244 14.2495 35.2002 13.2581 34.0892C12.8957 33.6995 12.5334 33.3098 12.1642 32.9269C12.1049 32.8632 12.0626 32.7856 12.0411 32.7013C11.7745 33.4602 11.4873 34.1849 11.1934 34.8617L11.4258 35.0873C11.877 35.5181 12.3146 35.9556 12.7453 36.3863C13.7093 37.3503 14.6186 38.2596 15.6236 39.121C17.7567 40.8781 19.9786 42.6078 22.1322 44.276L24.3952 46.0467C25.5058 46.9814 26.7843 47.6961 28.1623 48.1524C28.81 48.3499 29.4816 48.458 30.1586 48.4738C30.9602 48.483 31.7469 48.2572 32.4216 47.8243C32.5203 47.771 32.6307 47.7428 32.7429 47.7422C32.8131 47.7312 32.8846 47.7312 32.9548 47.7422C33.2701 47.847 33.6003 47.9001 33.9325 47.8995C34.6455 47.8725 35.3401 47.666 35.952 47.2991C36.5639 46.9322 37.0733 46.4168 37.4329 45.8006C37.4918 45.6718 37.5892 45.5645 37.7117 45.4935C37.8341 45.4225 37.9756 45.3912 38.1166 45.404H38.2465H38.6089C39.3832 45.4389 40.152 45.2587 40.8302 44.8834C41.5084 44.5081 42.0694 43.9524 42.4511 43.2778C42.5286 43.164 42.6298 43.0684 42.7479 42.9975C42.8659 42.9267 42.998 42.8824 43.1348 42.8676C43.6634 42.8258 44.178 42.6777 44.6479 42.4321C45.1179 42.1866 45.5334 41.8487 45.8695 41.4387C46.1748 41.0762 46.4026 40.6551 46.539 40.2012C46.6754 39.7474 46.7174 39.2704 46.6626 38.7997C46.65 38.6946 46.662 38.5881 46.6976 38.4884C46.7332 38.3888 46.7914 38.2987 46.8677 38.2254C47.2642 37.9451 47.6676 37.6716 48.0983 37.3913L48.782 36.9264C48.5496 36.3316 48.2761 35.4907 47.9342 34.5404Z" fill="#235BA8" stroke="#235BA8" stroke-width="0.75"/>
<path d="M57.7685 15.7666H57.3719C56.155 15.8076 54.8902 15.8486 53.6596 15.9512C50.3089 16.1523 47.0059 16.8434 43.8556 18.0022C42.96 18.3509 42.8096 18.5765 42.8369 19.52V19.8071L43.8898 22.3299C45.0384 25.1056 46.8911 29.6384 48.2038 33.1457C48.3747 33.6243 48.5456 34.0823 48.696 34.5131C49.0379 35.4634 49.3114 36.2906 49.4891 36.9128L49.8036 37.9383C50.0634 38.7929 50.2958 38.9707 51.171 38.9707H57.6522C58.5137 38.9707 58.8692 38.6151 58.8692 37.7537V16.9562C58.917 16.129 58.5615 15.7666 57.7685 15.7666ZM56.9344 37.0153H53.516H52.2307C52.0374 37.0273 51.8463 36.9688 51.693 36.8506C51.5396 36.7324 51.4343 36.5626 51.3966 36.3727C49.6464 31.4639 47.8825 26.5596 46.1049 21.6599C45.9545 21.2429 45.7767 20.8463 45.5853 20.4156C45.4964 20.2173 45.4007 20.0054 45.3118 19.7935L45.223 19.5884L45.4349 19.5132C49.0937 18.3767 52.8983 17.778 56.7293 17.7356H56.9344V37.0153Z" fill="#FFB81C" stroke="#FFB81C" stroke-width="0.75"/>
<path d="M14.2907 15.698C13.7344 15.3981 13.1535 15.1465 12.5541 14.946C9.13574 13.9 5.51908 13.6402 2.33997 13.4077H2.2511C2.03527 13.4142 1.82675 13.4874 1.65415 13.6172C1.48155 13.7469 1.35334 13.9269 1.28711 14.1324V35.9554C1.37762 36.1507 1.51968 36.3175 1.69797 36.438C1.87627 36.5584 2.08406 36.628 2.29895 36.6391H9.33401C9.54802 36.6495 9.75934 36.5878 9.93412 36.4638C10.1089 36.3399 10.237 36.1608 10.298 35.9554L10.4689 35.4427L10.6398 34.9231C10.9338 34.2394 11.221 33.5215 11.4876 32.7627C12.8435 28.6307 13.8767 24.3997 14.5778 20.1078C14.7556 19.1028 14.8581 18.4191 14.8855 18.2071C14.8882 18.1844 14.8882 18.1615 14.8855 18.1388L14.9333 17.6602C14.9431 17.5111 14.9614 17.3628 14.988 17.2158C15.084 16.9215 15.0655 16.6018 14.9363 16.3205C14.807 16.0392 14.5765 15.8169 14.2907 15.698ZM9.50492 31.8944L9.44339 32.1063C9.28615 32.6533 9.10839 33.1934 8.93747 33.7472L8.65716 34.6428H3.26294V15.3972H3.48855L4.73969 15.534C5.64214 15.6228 6.57878 15.7185 7.4744 15.8758C8.63665 16.0741 9.80574 16.327 10.9406 16.5595L12.3422 16.8603C12.4525 16.8726 12.5587 16.9096 12.6527 16.9685C12.7468 17.0275 12.8263 17.1069 12.8855 17.2008C12.9446 17.2948 12.9818 17.4009 12.9942 17.5112C13.0067 17.6215 12.9942 17.7332 12.9575 17.838C12.1099 22.594 10.952 27.2895 9.49125 31.8944H9.50492Z" fill="#009E87" stroke="#009E87" stroke-width="0.75"/>
</g>
<defs>
<clipPath id="clip0_100_3613">
<rect width="60" height="60" fill="white" transform="translate(0.0332031 0.871582)"/>
</clipPath>
</defs>
</svg>
