<svg width="24" height="25" viewBox="0 0 24 25" fill="none" xmlns="http://www.w3.org/2000/svg">
<path d="M18.4206 8.72038C17.8096 7.31639 16.7551 6.15146 15.4187 5.40411C14.0823 4.65676 12.5377 4.36822 11.0216 4.58269C9.5055 4.79717 8.10155 5.50284 7.02488 6.59156C5.94821 7.68028 5.25821 9.092 5.06062 10.6104C4.10721 10.8387 3.27084 11.4092 2.71036 12.2136C2.14988 13.0179 1.90431 14.0001 2.02029 14.9736C2.13627 15.9471 2.60572 16.8441 3.33949 17.4942C4.07326 18.1444 5.02025 18.5024 6.00062 18.5004C6.26584 18.5004 6.52019 18.395 6.70773 18.2075C6.89527 18.02 7.00062 17.7656 7.00062 17.5004C7.00062 17.2352 6.89527 16.9808 6.70773 16.7933C6.52019 16.6057 6.26584 16.5004 6.00062 16.5004C5.47019 16.5004 4.96148 16.2897 4.58641 15.9146C4.21134 15.5395 4.00062 15.0308 4.00062 14.5004C4.00062 13.97 4.21134 13.4612 4.58641 13.0862C4.96148 12.7111 5.47019 12.5004 6.00062 12.5004C6.26584 12.5004 6.52019 12.395 6.70773 12.2075C6.89527 12.02 7.00062 11.7656 7.00062 11.5004C7.00318 10.3177 7.42491 9.17414 8.19089 8.27297C8.95688 7.3718 10.0175 6.77133 11.1844 6.57826C12.3512 6.38518 13.5488 6.61199 14.5642 7.21839C15.5796 7.82479 16.3472 8.77152 16.7306 9.89038C16.7878 10.0622 16.8905 10.2153 17.0279 10.3333C17.1653 10.4513 17.3321 10.5298 17.5106 10.5604C18.1767 10.6863 18.7805 11.034 19.2236 11.5469C19.6668 12.0598 19.9232 12.7077 19.951 13.385C19.9789 14.0623 19.7765 14.7291 19.3769 15.2766C18.9774 15.8242 18.4041 16.2203 17.7506 16.4004C17.4934 16.4667 17.273 16.6325 17.138 16.8613C17.0029 17.0901 16.9643 17.3631 17.0306 17.6204C17.0969 17.8776 17.2627 18.098 17.4915 18.2331C17.7203 18.3681 17.9934 18.4067 18.2506 18.3404C19.303 18.0623 20.2359 17.4484 20.9076 16.5918C21.5794 15.7353 21.9532 14.683 21.9725 13.5947C21.9917 12.5063 21.6552 11.4414 21.0142 10.5617C20.3731 9.68198 19.4625 9.03548 18.4206 8.72038ZM12.7106 10.7904C12.6155 10.6993 12.5034 10.628 12.3806 10.5804C12.1372 10.4804 11.8641 10.4804 11.6206 10.5804C11.4979 10.628 11.3857 10.6993 11.2906 10.7904L8.29062 13.7904C8.10232 13.9787 7.99653 14.2341 7.99653 14.5004C7.99653 14.7667 8.10232 15.0221 8.29062 15.2104C8.47893 15.3987 8.73432 15.5045 9.00062 15.5045C9.26692 15.5045 9.52232 15.3987 9.71062 15.2104L11.0006 13.9104V19.5004C11.0006 19.7656 11.106 20.02 11.2935 20.2075C11.4811 20.395 11.7354 20.5004 12.0006 20.5004C12.2658 20.5004 12.5202 20.395 12.7077 20.2075C12.8953 20.02 13.0006 19.7656 13.0006 19.5004V13.9104L14.2906 15.2104C14.3836 15.3041 14.4942 15.3785 14.616 15.4293C14.7379 15.48 14.8686 15.5062 15.0006 15.5062C15.1326 15.5062 15.2633 15.48 15.3852 15.4293C15.5071 15.3785 15.6177 15.3041 15.7106 15.2104C15.8044 15.1174 15.8787 15.0068 15.9295 14.885C15.9803 14.7631 16.0064 14.6324 16.0064 14.5004C16.0064 14.3684 15.9803 14.2377 15.9295 14.1158C15.8787 13.9939 15.8044 13.8833 15.7106 13.7904L12.7106 10.7904Z" fill="#235BA8"/>
</svg>
