<svg xmlns="http://www.w3.org/2000/svg" width="25" height="24" viewBox="0 0 25 24" fill="none">
  <path d="M12.5 22.0098C18.0228 22.0098 22.5 17.5326 22.5 12.0098C22.5 6.48692 18.0228 2.00977 12.5 2.00977C6.97715 2.00977 2.5 6.48692 2.5 12.0098C2.5 17.5326 6.97715 22.0098 12.5 22.0098Z" fill="#507FC8"/>
  <path d="M12.5 6.93994C10.43 6.93994 8.75 8.61994 8.75 10.6899C8.75 12.7199 10.34 14.3699 12.45 14.4299C12.48 14.4299 12.52 14.4299 12.54 14.4299C12.56 14.4299 12.59 14.4299 12.61 14.4299C12.62 14.4299 12.63 14.4299 12.63 14.4299C14.65 14.3599 16.24 12.7199 16.25 10.6899C16.25 8.61994 14.57 6.93994 12.5 6.93994Z" fill="#40EBD5"/>
  <path d="M19.2788 19.3602C17.4988 21.0002 15.1187 22.0102 12.4988 22.0102C9.87875 22.0102 7.49875 21.0002 5.71875 19.3602C5.95875 18.4502 6.60875 17.6202 7.55875 16.9802C10.2888 15.1602 14.7288 15.1602 17.4388 16.9802C18.3988 17.6202 19.0388 18.4502 19.2788 19.3602Z" fill="#40EBD5"/>
</svg>