<svg width="28" height="28" viewBox="0 0 28 28" fill="none" xmlns="http://www.w3.org/2000/svg">
<path d="M0.248901 2.29257C0.248901 1.09519 1.21958 0.124512 2.41696 0.124512H8.02486C8.11239 0.124512 8.15623 0.230312 8.09433 0.29221C8.09051 0.296026 8.08637 0.299538 8.08197 0.302682L7.60294 0.644845L7.15199 1.02642L6.87447 1.26924L6.31945 1.82427L6.00725 2.20584L5.59099 2.76087L5.17472 3.41995L4.75845 4.18311L4.37688 5.01564L4.02999 5.95224L3.75248 6.88884L3.54434 7.79075L3.33621 9.03955L3.23214 10.1496L3.19745 10.9821V11.6412L3.26683 12.89L3.40559 13.9654L3.64841 15.2142L3.96061 16.3589L4.27281 17.2608L4.6197 18.0587L4.96659 18.7524L5.34816 19.3768L5.47831 19.5813C5.553 19.6988 5.60961 19.8267 5.64621 19.9609C5.67862 20.0797 5.69505 20.2024 5.69505 20.3256V20.4457C5.69505 20.5883 5.68096 20.7308 5.65295 20.8708L5.62201 21.0256C5.60135 21.1288 5.57321 21.2305 5.5378 21.3296L5.4712 21.5161C5.43547 21.616 5.39244 21.7133 5.34246 21.807L5.22478 22.0277C5.16837 22.1335 5.1033 22.2343 5.03024 22.3293L4.79314 22.6376L4.68907 22.7677C4.66722 22.795 4.65937 22.831 4.66785 22.8648C4.68032 22.9149 4.72515 22.9498 4.7766 22.9498H5.77009C5.83561 22.9498 5.90104 22.9452 5.96591 22.9359L6.59696 22.8457L7.4295 22.6376L8.09411 22.3844C8.13632 22.3683 8.18112 22.3601 8.2263 22.3601C8.29503 22.3601 8.36239 22.3792 8.42093 22.4151L8.78236 22.6376L9.54552 23.0539L10.4821 23.4701L11.3493 23.7823L12.1472 24.0251L13.3266 24.3026L14.5754 24.5108L15.5814 24.6148L16.067 24.6495H18.183L19.3972 24.5455L20.3684 24.4067L21.4438 24.1986L22.4845 23.9211L23.5251 23.5742L24.427 23.1926L25.3289 22.7416L26.0574 22.2907L26.6471 21.8744L27.0981 21.4929L27.445 21.1807L27.9581 20.6675C27.9627 20.6629 27.969 20.6603 27.9755 20.6603C27.9889 20.6603 28 20.6714 28 20.6848V25.7075C28 26.905 27.0294 27.8756 25.8319 27.8756H2.41696C1.21958 27.8756 0.248901 26.905 0.248901 25.7075V2.29257Z" fill="white"/>
<path d="M6.83985 9.28271H12.1472L12.1819 9.3174V9.69898L12.0432 10.1499L11.8004 10.4968L11.3494 11.0518L10.9678 11.5375L10.5169 12.0925L10.17 12.5435L9.75371 13.0638L9.37213 13.5494L8.95587 14.0698L8.57429 14.5554L8.33147 14.9023H12.1126L12.1819 14.9717V15.6308L12.0779 15.8389L11.9044 15.9777L11.7657 16.0124H6.73578L6.63171 15.943V15.492L6.77047 15.1104L6.9786 14.7982L7.36018 14.3473L7.63769 14.0004L8.08865 13.4454L8.47022 12.9597L8.92118 12.4047L9.19869 12.0578L9.64964 11.5028L10.4128 10.5315L10.4475 10.4621H6.87453L6.80516 10.4274V9.3174L6.83985 9.28271Z" fill="white"/>
<path d="M18.599 9.21289H19.7437L19.7784 9.24758V15.9078L19.709 16.0119H18.9459L18.7031 15.9078L18.599 15.7344V9.21289Z" fill="white"/>
<path fill-rule="evenodd" clip-rule="evenodd" d="M23.5599 10.7393H22.7621L22.4499 10.8086L22.0683 10.9474L21.5827 11.2249L21.2358 11.5371L20.9236 11.9187L20.6461 12.4737L20.5073 13.0287V13.7572L20.5767 14.1041L20.7501 14.555L21.0277 15.006L21.3052 15.3182L21.6867 15.6304L22.2418 15.9079L22.7621 16.0467H23.5253L23.8375 15.9773L24.3231 15.8038L24.7741 15.5263L25.0169 15.2835L25.3291 14.9366L25.5372 14.5897L25.7107 14.1735L25.8147 13.6531V13.1328L25.78 12.89L25.676 12.5084L25.4331 11.9881L25.1209 11.5718L24.6353 11.1555L24.0803 10.878L23.5599 10.7393ZM23.4906 11.8493L23.0396 11.8146L22.6927 11.884L22.2071 12.1268L21.9643 12.3696L21.7561 12.6471L21.6174 13.0287L21.5827 13.5144L21.6521 13.8613L21.8949 14.3469L22.1377 14.5897L22.4499 14.7979L22.8315 14.9366L23.2477 14.9713L23.6293 14.9019L24.0109 14.7285L24.2884 14.4857L24.5312 14.1735L24.7047 13.6878V13.0981L24.6353 12.8553L24.4619 12.5084L24.1843 12.1962L23.8721 11.9881L23.4906 11.8493Z" fill="white"/>
<path fill-rule="evenodd" clip-rule="evenodd" d="M15.512 10.7739H14.6794L14.3672 10.8433L13.9857 10.9821L13.5 11.2596L13.1184 11.6411L12.8756 11.9533L12.5981 12.5084L12.4594 13.0634V13.7225L12.5287 14.0694L12.7022 14.555L12.9103 14.9019L13.1878 15.2141L13.6041 15.5957L14.1591 15.8732L14.7141 16.0119H15.4773L15.9976 15.8732L16.5526 15.5957L16.7608 15.9079L17.0383 16.0119H17.628L17.6974 15.9426V10.9474L17.6627 10.9127H16.6914L16.6567 10.9474L16.5526 11.1902L15.9282 10.878L15.512 10.7739ZM15.3732 11.8493H14.7835L14.6447 11.884L14.3325 12.0227L14.055 12.2309L13.8816 12.4043L13.6735 12.7165L13.5347 13.1675V13.5837L13.6041 13.8959L13.8122 14.3122L14.0897 14.5897L14.4019 14.7978L14.8182 14.9366H15.3385L15.5813 14.8672L15.9976 14.6591L16.2751 14.3816L16.4833 14.0694L16.622 13.6184V13.1675L16.5873 12.994L16.4486 12.6471L16.2404 12.3696L16.067 12.1962L15.7548 11.988L15.3732 11.8493Z" fill="white"/>
</svg>
