<svg width="21" height="20" viewBox="0 0 21 20" fill="none" xmlns="http://www.w3.org/2000/svg">
<path d="M12.6042 6.45817C12.259 6.45817 11.9792 6.17835 11.9792 5.83317C11.9792 5.48799 12.259 5.20817 12.6042 5.20817H15.1042C15.4494 5.20817 15.7292 5.48799 15.7292 5.83317V8.33317C15.7292 8.67835 15.4494 8.95817 15.1042 8.95817C14.759 8.95817 14.4792 8.67835 14.4792 8.33317V7.34205L12.6295 9.19178C12.3854 9.43586 11.9897 9.43586 11.7456 9.19178C11.5015 8.9477 11.5015 8.55197 11.7456 8.3079L13.5953 6.45817H12.6042Z" fill="#31333F"/>
<path d="M10.1295 10.8079C10.3735 11.052 10.3735 11.4477 10.1295 11.6918L8.27974 13.5415H9.27085C9.61603 13.5415 9.89585 13.8213 9.89585 14.1665C9.89585 14.5117 9.61603 14.7915 9.27085 14.7915H6.77085C6.42568 14.7915 6.14585 14.5117 6.14585 14.1665V11.6665C6.14585 11.3213 6.42568 11.0415 6.77085 11.0415C7.11603 11.0415 7.39585 11.3213 7.39585 11.6665V12.6576L9.24558 10.8079C9.48966 10.5638 9.88538 10.5638 10.1295 10.8079Z" fill="#31333F"/>
<path d="M9.27085 6.45817C9.61603 6.45817 9.89585 6.17835 9.89585 5.83317C9.89585 5.48799 9.61603 5.20817 9.27085 5.20817H6.77085C6.42568 5.20817 6.14585 5.48799 6.14585 5.83317V8.33317C6.14585 8.67835 6.42568 8.95817 6.77085 8.95817C7.11603 8.95817 7.39585 8.67835 7.39585 8.33317V7.34205L9.24558 9.19178C9.48966 9.43586 9.88538 9.43586 10.1295 9.19178C10.3735 8.9477 10.3735 8.55197 10.1295 8.3079L8.27974 6.45817H9.27085Z" fill="#31333F"/>
<path d="M11.7456 10.8079C11.5015 11.052 11.5015 11.4477 11.7456 11.6918L13.5953 13.5415H12.6042C12.259 13.5415 11.9792 13.8213 11.9792 14.1665C11.9792 14.5117 12.259 14.7915 12.6042 14.7915H15.1042C15.4494 14.7915 15.7292 14.5117 15.7292 14.1665V11.6665C15.7292 11.3213 15.4494 11.0415 15.1042 11.0415C14.759 11.0415 14.4792 11.3213 14.4792 11.6665V12.6576L12.6295 10.8079C12.3854 10.5638 11.9897 10.5638 11.7456 10.8079Z" fill="#31333F"/>
<path fill-rule="evenodd" clip-rule="evenodd" d="M10.8897 1.0415C8.96604 1.04149 7.45851 1.04148 6.28228 1.19963C5.07833 1.36149 4.12831 1.69928 3.38263 2.44495C2.63696 3.19063 2.29918 4.14065 2.13731 5.34459C1.97917 6.52083 1.97918 8.02836 1.97919 9.95202V10.0477C1.97918 11.9713 1.97917 13.4788 2.13731 14.6551C2.29918 15.859 2.63696 16.8091 3.38263 17.5547C4.12831 18.3004 5.07833 18.6382 6.28228 18.8C7.45852 18.9582 8.96605 18.9582 10.8897 18.9582H10.9853C12.909 18.9582 14.4165 18.9582 15.5928 18.8C16.7967 18.6382 17.7467 18.3004 18.4924 17.5547C19.2381 16.8091 19.5759 15.859 19.7377 14.6551C19.8959 13.4788 19.8959 11.9713 19.8959 10.0476V9.95203C19.8959 8.02836 19.8959 6.52083 19.7377 5.34459C19.5759 4.14065 19.2381 3.19063 18.4924 2.44495C17.7467 1.69928 16.7967 1.36149 15.5928 1.19963C14.4165 1.04148 12.909 1.04149 10.9853 1.0415H10.8897ZM4.26652 3.32883C4.74123 2.85412 5.3835 2.58171 6.44883 2.43848C7.53215 2.29283 8.95567 2.2915 10.9375 2.2915C12.9194 2.2915 14.3429 2.29283 15.4262 2.43848C16.4915 2.58171 17.1338 2.85412 17.6085 3.32883C18.0832 3.80355 18.3556 4.44582 18.4989 5.51115C18.6445 6.59447 18.6459 8.01798 18.6459 9.99984C18.6459 11.9817 18.6445 13.4052 18.4989 14.4885C18.3556 15.5539 18.0832 16.1961 17.6085 16.6708C17.1338 17.1456 16.4915 17.418 15.4262 17.5612C14.3429 17.7068 12.9194 17.7082 10.9375 17.7082C8.95567 17.7082 7.53215 17.7068 6.44883 17.5612C5.3835 17.418 4.74123 17.1456 4.26652 16.6708C3.7918 16.1961 3.51939 15.5539 3.37616 14.4885C3.23051 13.4052 3.22919 11.9817 3.22919 9.99984C3.22919 8.01798 3.23051 6.59447 3.37616 5.51115C3.51939 4.44582 3.7918 3.80355 4.26652 3.32883Z" fill="#31333F"/>
</svg>
