<svg width="208" height="64" viewBox="0 0 208 64" fill="none" xmlns="http://www.w3.org/2000/svg">
<g id="Google Play Footer" clip-path="url(#clip0_7700_35620)">
<g id="Group">
<path id="Vector" d="M199.521 62.371H7.85417C3.56083 62.371 0.1875 58.9309 0.1875 54.5526V7.64256C0.1875 3.26429 3.56083 -0.175781 7.85417 -0.175781H199.521C203.814 -0.175781 207.188 3.26429 207.188 7.64256V54.5526C207.188 58.9309 203.814 62.371 199.521 62.371Z" fill="black"/>
<path id="Vector_2" d="M199.521 1.07515C203.048 1.07515 205.961 4.04612 205.961 7.64256V54.5526C205.961 58.1491 203.048 61.12 199.521 61.12H7.85417C4.3275 61.12 1.41417 58.1491 1.41417 54.5526V7.64256C1.41417 4.04612 4.3275 1.07515 7.85417 1.07515H199.521ZM199.521 -0.175781H7.85417C3.56083 -0.175781 0.1875 3.42066 0.1875 7.64256V54.5526C0.1875 58.9309 3.56083 62.371 7.85417 62.371H199.521C203.814 62.371 207.188 58.9309 207.188 54.5526V7.64256C207.188 3.42066 203.814 -0.175781 199.521 -0.175781Z" fill="#A6A6A6"/>
<path id="Vector_3" d="M72.8719 15.7753C72.8719 17.0263 72.5652 18.1208 71.7985 18.9027C70.8785 19.8409 69.8052 20.31 68.4252 20.31C67.0452 20.31 65.9719 19.8409 65.0519 18.9027C64.1319 17.9645 63.6719 16.8699 63.6719 15.4626C63.6719 14.0553 64.1319 12.9607 65.0519 12.0225C65.9719 11.0843 67.0452 10.6152 68.4252 10.6152C69.0385 10.6152 69.6519 10.7716 70.2652 11.0843C70.8785 11.3971 71.3385 11.7098 71.6452 12.1789L70.8785 12.9607C70.2652 12.1789 69.4985 11.8662 68.4252 11.8662C67.5052 11.8662 66.5852 12.1789 65.9719 12.9607C65.2052 13.5862 64.8985 14.5244 64.8985 15.619C64.8985 16.7135 65.2052 17.6517 65.9719 18.2772C66.7385 18.9027 67.5052 19.3718 68.4252 19.3718C69.4985 19.3718 70.2652 19.059 71.0319 18.2772C71.4919 17.8081 71.7985 17.1826 71.7985 16.4008H68.4252V15.1499H72.8719V15.7753ZM79.9252 11.8662H75.7852V14.8371H79.6185V15.9317H75.7852V18.9027H79.9252V20.1536H74.5585V10.7716H79.9252V11.8662ZM84.9852 20.1536H83.7585V11.8662H81.1519V10.7716H87.5919V11.8662H84.9852V20.1536ZM92.0385 20.1536V10.7716H93.2652V20.1536H92.0385ZM98.4785 20.1536H97.2519V11.8662H94.6452V10.7716H100.932V11.8662H98.3252V20.1536H98.4785ZM113.045 18.9027C112.125 19.8409 111.052 20.31 109.672 20.31C108.292 20.31 107.219 19.8409 106.299 18.9027C105.379 17.9645 104.919 16.8699 104.919 15.4626C104.919 14.0553 105.379 12.9607 106.299 12.0225C107.219 11.0843 108.292 10.6152 109.672 10.6152C111.052 10.6152 112.125 11.0843 113.045 12.0225C113.965 12.9607 114.425 14.0553 114.425 15.4626C114.425 16.8699 113.965 17.9645 113.045 18.9027ZM107.219 18.1208C107.832 18.7463 108.752 19.2154 109.672 19.2154C110.592 19.2154 111.512 18.9027 112.125 18.1208C112.739 17.4954 113.199 16.5572 113.199 15.4626C113.199 14.368 112.892 13.4298 112.125 12.8044C111.512 12.1789 110.592 11.7098 109.672 11.7098C108.752 11.7098 107.832 12.0225 107.219 12.8044C106.605 13.4298 106.145 14.368 106.145 15.4626C106.145 16.5572 106.452 17.4954 107.219 18.1208ZM116.112 20.1536V10.7716H117.492L121.939 18.1208V10.7716H123.165V20.1536H121.939L117.185 12.4916V20.1536H116.112Z" fill="white" stroke="white" stroke-width="1.11241" stroke-miterlimit="10"/>
<path id="Vector_4" d="M104.603 33.9117C100.923 33.9117 98.0098 36.7263 98.0098 40.6355C98.0098 44.3883 100.923 47.3593 104.603 47.3593C108.283 47.3593 111.196 44.5447 111.196 40.6355C111.196 36.57 108.283 33.9117 104.603 33.9117ZM104.603 44.5447C102.61 44.5447 100.923 42.8247 100.923 40.4792C100.923 38.1336 102.61 36.4136 104.603 36.4136C106.596 36.4136 108.283 37.9773 108.283 40.4792C108.283 42.8247 106.596 44.5447 104.603 44.5447ZM90.3431 33.9117C86.6631 33.9117 83.7498 36.7263 83.7498 40.6355C83.7498 44.3883 86.6631 47.3593 90.3431 47.3593C94.0231 47.3593 96.9365 44.5447 96.9365 40.6355C96.9365 36.57 94.0231 33.9117 90.3431 33.9117ZM90.3431 44.5447C88.3498 44.5447 86.6631 42.8247 86.6631 40.4792C86.6631 38.1336 88.3498 36.4136 90.3431 36.4136C92.3365 36.4136 94.0231 37.9773 94.0231 40.4792C94.0231 42.8247 92.3365 44.5447 90.3431 44.5447ZM73.3231 35.9445V38.7591H79.9165C79.7631 40.3228 79.1498 41.5737 78.3831 42.3556C77.4631 43.2938 75.9298 44.3883 73.3231 44.3883C69.1831 44.3883 66.1165 41.1046 66.1165 36.8827C66.1165 32.6608 69.3365 29.3771 73.3231 29.3771C75.4698 29.3771 77.1565 30.3153 78.3831 31.4099L80.3765 29.3771C78.6898 27.8134 76.5431 26.5625 73.4765 26.5625C67.9565 26.5625 63.2031 31.2535 63.2031 36.8827C63.2031 42.5119 67.9565 47.2029 73.4765 47.2029C76.5431 47.2029 78.6898 46.2647 80.5298 44.232C82.3698 42.3556 82.9831 39.6973 82.9831 37.6645C82.9831 37.0391 82.9831 36.4136 82.8298 35.9445H73.3231ZM142.936 38.1336C142.323 36.57 140.79 33.9117 137.416 33.9117C134.043 33.9117 131.283 36.57 131.283 40.6355C131.283 44.3883 134.043 47.3593 137.723 47.3593C140.636 47.3593 142.476 45.4829 143.09 44.3883L140.943 42.8247C140.176 43.9192 139.256 44.7011 137.723 44.7011C136.19 44.7011 135.27 44.0756 134.503 42.6683L143.243 38.9155L142.936 38.1336ZM134.043 40.3228C134.043 37.8209 136.036 36.4136 137.416 36.4136C138.49 36.4136 139.563 37.0391 139.87 37.8209L134.043 40.3228ZM126.836 46.7338H129.75V27.188H126.836V46.7338ZM122.236 35.319C121.47 34.5372 120.243 33.7554 118.71 33.7554C115.49 33.7554 112.423 36.7263 112.423 40.4792C112.423 44.232 115.336 47.0466 118.71 47.0466C120.243 47.0466 121.47 46.2647 122.083 45.4829H122.236V46.4211C122.236 48.923 120.856 50.3303 118.71 50.3303C117.023 50.3303 115.796 49.0793 115.49 47.9848L113.036 49.0793C113.803 50.7994 115.643 52.9885 118.863 52.9885C122.236 52.9885 124.996 50.9557 124.996 46.1084V34.2245H122.236V35.319ZM118.863 44.5447C116.87 44.5447 115.183 42.8247 115.183 40.4792C115.183 38.1336 116.87 36.4136 118.863 36.4136C120.856 36.4136 122.39 38.1336 122.39 40.4792C122.39 42.8247 120.856 44.5447 118.863 44.5447ZM156.276 27.188H149.376V46.7338H152.29V39.3846H156.276C159.496 39.3846 162.563 37.0391 162.563 33.2863C162.563 29.5335 159.496 27.188 156.276 27.188ZM156.43 36.57H152.29V29.8462H156.43C158.576 29.8462 159.803 31.7226 159.803 33.1299C159.65 34.8499 158.423 36.57 156.43 36.57ZM174.063 33.7554C171.916 33.7554 169.77 34.6936 169.003 36.7263L171.61 37.8209C172.223 36.7263 173.143 36.4136 174.216 36.4136C175.75 36.4136 177.13 37.3518 177.283 38.9155V39.0719C176.823 38.7591 175.596 38.29 174.37 38.29C171.61 38.29 168.85 39.8537 168.85 42.6683C168.85 45.3265 171.15 47.0466 173.603 47.0466C175.596 47.0466 176.516 46.1084 177.283 45.1702H177.436V46.7338H180.196V39.2282C179.89 35.7881 177.283 33.7554 174.063 33.7554ZM173.756 44.5447C172.836 44.5447 171.456 44.0756 171.456 42.8247C171.456 41.261 173.143 40.7919 174.523 40.7919C175.75 40.7919 176.363 41.1046 177.13 41.4174C176.823 43.2938 175.29 44.5447 173.756 44.5447ZM189.856 34.2245L186.636 42.6683H186.483L183.11 34.2245H180.043L185.103 46.1084L182.19 52.6758H185.103L192.923 34.2245H189.856ZM164.096 46.7338H167.01V27.188H164.096V46.7338Z" fill="white"/>
<g id="Group_2">
<path id="Vector_5" d="M16.1368 11.5508C15.6768 12.0199 15.5234 12.8017 15.5234 13.7399V48.297C15.5234 49.2352 15.8301 50.017 16.2901 50.4861L16.4434 50.6425L35.4568 31.253V30.9403L16.1368 11.5508Z" fill="url(#paint0_linear_7700_35620)"/>
<path id="Vector_6" d="M41.5914 37.8224L35.3047 31.4114V30.9423L41.5914 24.5312L41.7447 24.6876L49.258 29.0659C51.4047 30.3168 51.4047 32.3496 49.258 33.6005L41.5914 37.8224Z" fill="url(#paint1_linear_7700_35620)"/>
<path id="Vector_7" d="M41.7395 37.6651L35.2995 31.0977L16.1328 50.6435C16.8995 51.4254 17.9728 51.4254 19.3528 50.7999L41.7395 37.6651Z" fill="url(#paint2_linear_7700_35620)"/>
<path id="Vector_8" d="M41.7395 24.5315L19.3528 11.5531C17.9728 10.7712 16.8995 10.9276 16.1328 11.7094L35.2995 31.0989L41.7395 24.5315Z" fill="url(#paint3_linear_7700_35620)"/>
<path id="Vector_9" opacity="0.2" d="M41.5861 37.5078L19.3528 50.3299C18.1261 51.1117 17.0528 50.9554 16.2861 50.3299L16.1328 50.4863L16.2861 50.6426C17.0528 51.2681 18.1261 51.4245 19.3528 50.6426L41.5861 37.5078Z" fill="black"/>
<path id="Vector_10" opacity="0.12" d="M16.1368 50.3308C15.6768 49.8617 15.5234 49.0798 15.5234 48.1416V48.298C15.5234 49.2362 15.8301 50.0181 16.2901 50.4872V50.3308H16.1368ZM49.2568 33.1304L41.5901 37.5087L41.7434 37.6651L49.2568 33.2868C50.3301 32.6613 50.7901 31.8795 50.7901 31.0977C50.7901 31.8795 50.1768 32.505 49.2568 33.1304Z" fill="black"/>
<path id="Vector_11" opacity="0.25" d="M19.3568 11.708L49.2568 29.0648C50.1768 29.6902 50.7901 30.3157 50.7901 31.0975C50.7901 30.3157 50.3301 29.5339 49.2568 28.9084L19.3568 11.5517C17.2101 10.3007 15.5234 11.2389 15.5234 13.7408V13.8972C15.5234 11.5517 17.2101 10.4571 19.3568 11.708Z" fill="white"/>
</g>
</g>
</g>
<defs>
<linearGradient id="paint0_linear_7700_35620" x1="33.6168" y1="13.4428" x2="7.37878" y2="39.1703" gradientUnits="userSpaceOnUse">
<stop stop-color="#00A0FF"/>
<stop offset="0.007" stop-color="#00A1FF"/>
<stop offset="0.26" stop-color="#00BEFF"/>
<stop offset="0.512" stop-color="#00D2FF"/>
<stop offset="0.76" stop-color="#00DFFF"/>
<stop offset="1" stop-color="#00E3FF"/>
</linearGradient>
<linearGradient id="paint1_linear_7700_35620" x1="52.0702" y1="31.1002" x2="14.9681" y2="31.1002" gradientUnits="userSpaceOnUse">
<stop stop-color="#FFE000"/>
<stop offset="0.409" stop-color="#FFBD00"/>
<stop offset="0.775" stop-color="#FFA500"/>
<stop offset="1" stop-color="#FF9C00"/>
</linearGradient>
<linearGradient id="paint2_linear_7700_35620" x1="38.2542" y1="34.6878" x2="2.67506" y2="69.5767" gradientUnits="userSpaceOnUse">
<stop stop-color="#FF3A44"/>
<stop offset="1" stop-color="#C31162"/>
</linearGradient>
<linearGradient id="paint3_linear_7700_35620" x1="11.3749" y1="0.100771" x2="27.2634" y2="15.681" gradientUnits="userSpaceOnUse">
<stop stop-color="#32A071"/>
<stop offset="0.069" stop-color="#2DA771"/>
<stop offset="0.476" stop-color="#15CF74"/>
<stop offset="0.801" stop-color="#06E775"/>
<stop offset="1" stop-color="#00F076"/>
</linearGradient>
<clipPath id="clip0_7700_35620">
<rect width="207" height="62.5468" fill="white" transform="translate(0.1875 0.589844)"/>
</clipPath>
</defs>
</svg>
