<svg width="206" height="63" viewBox="0 0 206 63" fill="none" xmlns="http://www.w3.org/2000/svg">
<g id="Group">
<path id="Vector" d="M204.331 54.8631C204.331 56.4345 203.716 57.9415 202.62 59.052C201.525 60.1626 200.04 60.7857 198.491 60.784H7.38634C4.16094 60.7875 1.54327 58.1368 1.53906 54.8631V7.64547C1.54326 4.37051 4.1597 1.71765 7.38634 1.7168H198.49C200.039 1.7168 201.525 2.34147 202.62 3.45336C203.715 4.56525 204.33 6.07323 204.33 7.64547L204.331 54.8631Z" fill="white"/>
<path id="Vector_2" d="M198.495 62.1604H7.39036C3.41743 62.1596 0.195059 58.8945 0.1875 54.862V7.64595C0.193378 3.61156 3.41551 0.343249 7.39036 0.339844H198.494C202.468 0.344948 205.689 3.61227 205.697 7.64595V54.862C205.7 58.8876 202.463 62.1604 198.495 62.1604Z" fill="#A6A6A6"/>
<path id="Vector_3" d="M204.331 54.8631C204.331 56.4345 203.716 57.9415 202.62 59.052C201.525 60.1626 200.04 60.7857 198.491 60.784H7.38634C4.16094 60.7875 1.54327 58.1368 1.53906 54.8631V7.64547C1.54326 4.37051 4.1597 1.71765 7.38634 1.7168H198.49C200.039 1.7168 201.525 2.34147 202.62 3.45336C203.715 4.56525 204.33 6.07323 204.33 7.64547L204.331 54.8631Z" fill="black"/>
<path id="Vector_4" d="M46.0769 30.923C46.0328 25.9404 50.0965 23.5164 50.2823 23.4035C47.9808 19.9978 44.4137 19.5325 43.1601 19.4954C40.1642 19.1754 37.258 21.315 35.7319 21.315C34.1752 21.315 31.825 19.5263 29.2921 19.5789C26.0326 19.6299 22.9833 21.5453 21.3109 24.5197C17.8595 30.5844 20.4336 39.4968 23.7403 44.3989C25.3944 46.8013 27.3273 49.4804 29.8572 49.3861C32.3322 49.2841 33.2568 47.7861 36.2436 47.7861C39.2031 47.7861 40.0712 49.3861 42.6514 49.3258C45.3078 49.2841 46.9801 46.9142 48.5764 44.4917C50.4879 41.7415 51.2556 39.0299 51.286 38.8907C51.2251 38.8691 46.1287 36.8934 46.0769 30.923ZM41.2029 16.2706C42.5341 14.5809 43.445 12.282 43.1921 9.94922C41.2654 10.0358 38.8558 11.3019 37.4682 12.9545C36.2406 14.4108 35.1439 16.7977 35.4272 19.0424C37.5916 19.2063 39.8138 17.934 41.2029 16.2706Z" fill="white"/>
<path id="Vector_5" d="M198.502 0.339844H96.1406L136.234 62.1604H198.502C202.476 62.157 205.698 58.8906 205.705 54.8574V7.64595C205.698 3.61191 202.477 0.344098 198.502 0.339844Z" fill="url(#paint0_linear_7700_35634)"/>
<g id="Group_2">
<path id="Vector_6" d="M81.917 49.042H78.458L76.5632 42.9989H69.9772L68.1723 49.042H64.8047L71.3313 28.4686H75.3615L81.917 49.042ZM75.9921 40.4636L74.2785 35.0914C74.0973 34.5426 73.7561 33.2502 73.2565 31.2157H73.1956C72.9945 32.0907 72.6732 33.3832 72.233 35.0914L70.5484 40.4636H75.9921ZM98.6684 41.4421C98.6684 43.9651 97.9936 45.9594 96.6426 47.4234C95.4332 48.7266 93.9299 49.3774 92.1372 49.3774C90.2013 49.3774 88.8092 48.6771 87.9638 47.2734V55.0572H84.7165V39.083C84.7165 37.4984 84.6754 35.8737 84.5962 34.2071H87.452L87.6333 36.5585H87.6942C88.7772 34.7869 90.4206 33.901 92.6261 33.901C94.3503 33.901 95.7896 34.5921 96.9411 35.9757C98.0911 37.3624 98.6684 39.1835 98.6684 41.4421ZM95.3601 41.5627C95.3601 40.1188 95.0403 38.9284 94.3975 37.9901C93.6953 37.0146 92.7525 36.526 91.5706 36.526C90.7694 36.526 90.0414 36.7981 89.391 37.3346C88.7391 37.8757 88.3126 38.5821 88.1131 39.4571C88.024 39.7844 87.9734 40.1212 87.9623 40.4605V42.9355C87.9623 44.013 88.2882 44.9236 88.9401 45.6687C89.592 46.4108 90.4389 46.7834 91.4807 46.7834C92.7038 46.7834 93.6557 46.3026 94.3366 45.3487C95.0189 44.3918 95.3601 43.1303 95.3601 41.5627ZM115.479 41.4421C115.479 43.9651 114.804 45.9594 113.453 47.4234C112.242 48.7266 110.741 49.3774 108.946 49.3774C107.011 49.3774 105.618 48.6771 104.773 47.2734V55.0572H101.526V39.083C101.526 37.4984 101.485 35.8737 101.405 34.2071H104.261L104.443 36.5585H104.503C105.585 34.7869 107.228 33.901 109.435 33.901C111.158 33.901 112.597 34.5921 113.752 35.9757C114.9 37.3624 115.479 39.1835 115.479 41.4421ZM112.169 41.5627C112.169 40.1188 111.848 38.9284 111.205 37.9901C110.503 37.0146 109.563 36.526 108.381 36.526C107.58 36.526 106.852 36.7981 106.199 37.3346C105.547 37.8757 105.122 38.5821 104.922 39.4571C104.823 39.8653 104.77 40.1977 104.77 40.4605V42.9355C104.77 44.013 105.097 44.9236 105.746 45.6687C106.398 46.4092 107.245 46.7834 108.29 46.7834C109.515 46.7834 110.466 46.3026 111.146 45.3487C111.828 44.3918 112.169 43.1303 112.169 41.5627ZM134.274 43.271C134.274 45.0225 133.671 46.4463 132.473 47.5455C131.154 48.7451 129.312 49.3465 126.951 49.3465C124.77 49.3465 123.022 48.9198 121.703 48.0649L122.453 45.3178C123.878 46.1743 125.442 46.6009 127.145 46.6009C128.369 46.6009 129.321 46.3196 130.001 45.7615C130.681 45.2019 131.026 44.4536 131.026 43.5199C131.026 42.6835 130.741 41.9832 130.182 41.4128C129.62 40.8439 128.691 40.3136 127.385 39.8266C123.836 38.4832 122.061 36.5183 122.061 33.9335C122.061 32.2453 122.688 30.8633 123.94 29.7827C125.192 28.7036 126.852 28.1641 128.918 28.1641C130.762 28.1641 132.299 28.4903 133.519 29.1411L132.704 31.8279C131.556 31.1972 130.26 30.8818 128.809 30.8818C127.664 30.8818 126.765 31.1678 126.123 31.7367C125.582 32.2453 125.308 32.8653 125.308 33.6011C125.308 34.4127 125.62 35.0868 126.241 35.6155C126.781 36.1025 127.765 36.6327 129.187 37.2016C130.933 37.9158 132.215 38.7476 133.036 39.703C133.863 40.6583 134.274 41.8503 134.274 43.271ZM145.038 36.6806H141.459V43.8832C141.459 45.7151 142.09 46.6288 143.354 46.6288C143.934 46.6288 144.415 46.5793 144.796 46.4757L144.886 48.9786C144.246 49.2213 143.404 49.3434 142.361 49.3434C141.078 49.3434 140.076 48.9461 139.353 48.1515C138.632 47.3569 138.27 46.0258 138.27 44.1522V36.6745H136.137V34.201H138.27V31.4847L141.459 30.5077V34.201H145.038V36.6806ZM161.156 41.5024C161.156 43.7827 160.513 45.6548 159.231 47.1188C157.889 48.6261 156.104 49.3774 153.879 49.3774C151.731 49.3774 150.024 48.6555 148.75 47.2131C147.477 45.7677 146.84 43.9466 146.84 41.7498C146.84 39.451 147.498 37.568 148.81 36.104C150.124 34.6385 151.894 33.9057 154.119 33.9057C156.264 33.9057 157.986 34.6292 159.29 36.0731C160.536 37.4737 161.156 39.2825 161.156 41.5024ZM157.79 41.5782C157.79 40.2193 157.501 39.0537 156.92 38.0782C156.239 36.9002 155.265 36.3112 154.002 36.3112C152.701 36.3112 151.704 36.9002 151.024 38.0782C150.442 39.0537 150.153 40.2394 150.153 41.64C150.153 43.0004 150.442 44.1692 151.024 45.1416C151.726 46.3196 152.706 46.9086 153.975 46.9086C155.216 46.9086 156.189 46.3072 156.893 45.1122C157.49 44.1135 157.79 42.9401 157.79 41.5782ZM171.716 37.1058C171.378 37.0439 171.036 37.0134 170.692 37.0146C169.55 37.0146 168.667 37.4505 168.045 38.3286C167.506 39.1016 167.235 40.0786 167.235 41.2582V49.042H163.988V38.879C163.99 37.3217 163.959 35.7645 163.893 34.2087H166.722L166.84 37.047H166.93C167.275 36.0715 167.814 35.2847 168.554 34.6957C169.231 34.181 170.055 33.9023 170.901 33.901C171.201 33.901 171.472 33.9227 171.713 33.9613L171.716 37.1058ZM186.239 40.9227C186.247 41.4237 186.207 41.9244 186.12 42.4176H176.378C176.415 43.8832 176.887 45.0055 177.792 45.7785C178.613 46.468 179.674 46.8143 180.978 46.8143C182.42 46.8143 183.736 46.5824 184.92 46.114L185.429 48.4004C184.046 49.0126 182.413 49.3171 180.529 49.3171C178.262 49.3171 176.483 48.64 175.189 47.2889C173.897 45.9362 173.25 44.1182 173.25 41.841C173.25 39.6056 173.851 37.7427 175.056 36.2571C176.317 34.6709 178.022 33.8779 180.166 33.8779C182.273 33.8779 183.867 34.6709 184.95 36.2571C185.808 37.5139 186.239 39.0722 186.239 40.9227ZM183.142 40.0678C183.165 39.0892 182.952 38.2467 182.512 37.534C181.95 36.6157 181.085 36.1581 179.926 36.1581C178.864 36.1581 177.999 36.6049 177.341 37.5015C176.8 38.2142 176.479 39.0707 176.38 40.0647L183.142 40.0678Z" fill="white"/>
</g>
<g id="Group_3">
<path id="Vector_7" d="M69.0537 21.1964C68.1505 21.1964 67.3691 21.1516 66.7188 21.0758V11.1293C67.6284 10.9867 68.5476 10.9164 69.468 10.919C73.192 10.919 74.9071 12.7788 74.9071 15.8104C74.9071 19.3073 72.8813 21.1964 69.0537 21.1964ZM69.599 12.1944C69.0963 12.1944 68.6683 12.2253 68.3135 12.2995V19.8607C68.5054 19.8917 68.874 19.9056 69.3918 19.9056C71.8319 19.9056 73.221 18.4957 73.221 15.8552C73.221 13.5007 71.9644 12.1944 69.599 12.1944ZM80.2517 21.2722C78.1529 21.2722 76.7927 19.6814 76.7927 17.5217C76.7927 15.2708 78.1818 13.6662 80.3705 13.6662C82.4389 13.6662 83.8295 15.1812 83.8295 17.4027C83.8295 19.6814 82.3963 21.2722 80.2517 21.2722ZM80.3126 14.8503C79.1596 14.8503 78.4209 15.9449 78.4209 17.4754C78.4209 18.9765 79.1749 20.071 80.2974 20.071C81.42 20.071 82.1739 18.9007 82.1739 17.4444C82.1739 15.9603 81.4352 14.8503 80.3126 14.8503ZM95.7983 13.8161L93.5516 21.1068H92.0879L91.1573 17.9407C90.9259 17.1662 90.7332 16.3804 90.58 15.5862H90.5496C90.4323 16.3808 90.2099 17.177 89.9738 17.9407L88.9838 21.1068H87.5048L85.3907 13.8161H87.0312L87.8445 17.2821C88.0364 18.1076 88.1979 18.8868 88.3319 19.6227H88.3624C88.4796 19.0089 88.6716 18.2421 88.9533 17.2976L89.9738 13.8177H91.2746L92.2509 17.2234C92.487 18.0489 92.6789 18.859 92.8282 19.6242H92.8708C92.9744 18.8744 93.1374 18.0783 93.3582 17.2234L94.231 13.8177L95.7983 13.8161ZM104.069 21.1068H102.473V16.9204C102.473 15.631 101.985 14.9848 101.024 14.9848C100.078 14.9848 99.4279 15.8104 99.4279 16.7704V21.1068H97.8316V15.9C97.8316 15.2554 97.8164 14.5643 97.7722 13.8146H99.1766L99.2512 14.94H99.2954C99.7249 14.1609 100.596 13.6662 101.572 13.6662C103.08 13.6662 104.07 14.8364 104.07 16.741L104.069 21.1068ZM108.471 21.1068H106.873V10.4707H108.471V21.1068ZM114.291 21.2722C112.193 21.2722 110.832 19.6814 110.832 17.5217C110.832 15.2708 112.221 13.6662 114.408 13.6662C116.478 13.6662 117.867 15.1812 117.867 17.4027C117.868 19.6814 116.434 21.2722 114.291 21.2722ZM114.35 14.8503C113.197 14.8503 112.458 15.9449 112.458 17.4754C112.458 18.9765 113.214 20.071 114.333 20.071C115.457 20.071 116.21 18.9007 116.21 17.4444C116.211 15.9603 115.474 14.8503 114.35 14.8503ZM124.16 21.1068L124.045 20.2673H124.002C123.515 20.9429 122.803 21.2722 121.902 21.2722C120.615 21.2722 119.701 20.357 119.701 19.1264C119.701 17.3269 121.238 16.3963 123.898 16.3963V16.2618C123.898 15.3018 123.397 14.821 122.407 14.821C121.699 14.821 121.078 15.0019 120.531 15.3621L120.206 14.2969C120.87 13.8764 121.699 13.6662 122.672 13.6662C124.549 13.6662 125.496 14.671 125.496 16.6823V19.3676C125.496 20.1034 125.528 20.6739 125.6 21.1083L124.16 21.1068ZM123.941 17.4754C122.168 17.4754 121.279 17.9113 121.279 18.9455C121.279 19.7108 121.737 20.0849 122.374 20.0849C123.186 20.0849 123.941 19.4557 123.941 18.6008V17.4754ZM133.247 21.1068L133.173 19.9365H133.129C132.67 20.8208 131.899 21.2722 130.823 21.2722C129.091 21.2722 127.808 19.7262 127.808 17.5511C127.808 15.2708 129.138 13.6646 130.954 13.6646C131.915 13.6646 132.595 13.9939 132.979 14.6556H133.011V10.4707H134.609V19.1419C134.609 19.8468 134.626 20.5069 134.668 21.1068H133.247ZM133.011 16.8168C133.011 15.7965 132.346 14.9261 131.33 14.9261C130.146 14.9261 129.423 15.9913 129.423 17.4908C129.423 18.961 130.174 19.9674 131.298 19.9674C132.301 19.9674 133.011 19.0816 133.011 18.0319V16.8168ZM144.739 21.2722C142.642 21.2722 141.282 19.6814 141.282 17.5217C141.282 15.2708 142.671 13.6662 144.858 13.6662C146.928 13.6662 148.317 15.1812 148.317 17.4027C148.319 19.6814 146.885 21.2722 144.739 21.2722ZM144.799 14.8503C143.647 14.8503 142.909 15.9449 142.909 17.4754C142.909 18.9765 143.662 20.071 144.784 20.071C145.908 20.071 146.66 18.9007 146.66 17.4444C146.663 15.9603 145.924 14.8503 144.799 14.8503ZM156.901 21.1068H155.304V16.9204C155.304 15.631 154.816 14.9848 153.855 14.9848C152.909 14.9848 152.261 15.8104 152.261 16.7704V21.1068H150.663V15.9C150.663 15.2554 150.648 14.5643 150.603 13.8146H152.008L152.082 14.94H152.126C152.554 14.1609 153.427 13.6646 154.402 13.6646C155.91 13.6646 156.901 14.8349 156.901 16.7395V21.1068ZM167.641 15.0312H165.885V18.5714C165.885 19.4727 166.193 19.9226 166.814 19.9226C167.096 19.9226 167.332 19.8917 167.522 19.8468L167.566 21.0774C167.257 21.198 166.843 21.2583 166.328 21.2583C165.07 21.2583 164.318 20.5533 164.318 18.7075V15.0312H163.27V13.8161H164.318V12.4804L165.885 11.9996V13.8146H167.641V15.0312ZM176.091 21.1068H174.497V16.9513C174.497 15.6465 174.011 14.9864 173.048 14.9864C172.221 14.9864 171.45 15.5568 171.45 16.7117V21.1068H169.856V10.4707H171.45V14.8503H171.482C171.985 14.0557 172.713 13.6646 173.642 13.6646C175.162 13.6646 176.091 14.8643 176.091 16.7704V21.1068ZM184.749 17.851H179.959C179.989 19.2315 180.889 20.0107 182.222 20.0107C182.93 20.0107 183.582 19.8901 184.158 19.6659L184.406 20.7914C183.727 21.0913 182.927 21.2413 181.997 21.2413C179.75 21.2413 178.42 19.8004 178.42 17.5666C178.42 15.3311 179.782 13.6507 181.817 13.6507C183.652 13.6507 184.804 15.0312 184.804 17.1167C184.814 17.3628 184.796 17.6093 184.749 17.851ZM183.285 16.6962C183.285 15.5708 182.726 14.7761 181.706 14.7761C180.789 14.7761 180.064 15.5862 179.96 16.6962H183.285Z" fill="white"/>
</g>
</g>
<defs>
<linearGradient id="paint0_linear_7700_35634" x1="150.921" y1="62.3245" x2="150.921" y2="-160.63" gradientUnits="userSpaceOnUse">
<stop stop-color="#1A1A1A" stop-opacity="0.1"/>
<stop offset="0.123" stop-color="#212121" stop-opacity="0.151"/>
<stop offset="0.308" stop-color="#353535" stop-opacity="0.227"/>
<stop offset="0.532" stop-color="#575757" stop-opacity="0.318"/>
<stop offset="0.783" stop-color="#858585" stop-opacity="0.421"/>
<stop offset="1" stop-color="#B3B3B3" stop-opacity="0.51"/>
</linearGradient>
</defs>
</svg>
