<svg width="291" height="314" viewBox="0 0 291 314" fill="none" xmlns="http://www.w3.org/2000/svg">
<path d="M209.523 76.061V134.097L166.073 177.605V128.823C166.067 126.373 165.09 124.026 163.358 122.296C161.625 120.566 159.278 119.594 156.832 119.594H108.115L151.54 76.061H209.523Z" fill="white"/>
<path d="M209.523 33.4733V69.0211H148.683L98.1782 119.594H48.4929C47.4318 119.592 46.3952 119.274 45.5141 118.682C44.6331 118.09 43.9471 117.25 43.5429 116.267C43.1388 115.285 43.0346 114.205 43.2435 113.163C43.4525 112.121 43.9652 111.165 44.7168 110.415L126.698 28.3239C127.615 27.3867 128.708 26.6404 129.915 26.1281C131.122 25.6158 132.417 25.3476 133.728 25.3388H201.499C202.56 25.342 203.61 25.5554 204.589 25.9665C205.567 26.3777 206.455 26.9786 207.201 27.7346C207.947 28.4906 208.536 29.3869 208.934 30.3717C209.333 31.3566 209.533 32.4107 209.523 33.4733Z" fill="white"/>
<path d="M267.481 84.0711V167.431C267.48 170.011 266.462 172.487 264.649 174.321L175.215 263.079C174.468 263.827 173.517 264.336 172.481 264.542C171.445 264.748 170.371 264.642 169.395 264.238C168.42 263.833 167.586 263.148 166.999 262.268C166.412 261.389 166.098 260.355 166.098 259.298V187.605L216.578 137.032V76.0859H259.506C261.621 76.0859 263.65 76.9272 265.145 78.4247C266.641 79.9222 267.481 81.9533 267.481 84.0711Z" fill="white"/>
<path d="M280.026 62.6529H219.982V11.5576C219.982 8.99119 218.964 6.52986 217.151 4.71512C215.339 2.90037 212.881 1.88086 210.318 1.88086H128.884C125.757 1.92143 122.774 3.20046 120.586 5.43813L3.10532 124.843C2.20196 125.746 1.58608 126.897 1.33543 128.15C1.08479 129.403 1.21062 130.703 1.69704 131.885C2.18346 133.067 3.00865 134.077 4.06843 134.79C5.12821 135.502 6.37506 135.884 7.65153 135.888H137.827C139.298 135.871 140.757 136.148 142.121 136.701C143.484 137.254 144.724 138.072 145.769 139.109C146.813 140.146 147.642 141.38 148.206 142.74C148.77 144.101 149.059 145.559 149.056 147.032V303.751C149.056 309.473 156.509 315.468 160.608 311.413L288.001 182.058C290.187 179.869 289.765 175.665 289.765 172.58V72.3546C289.778 71.0726 289.535 69.8009 289.05 68.6145C288.565 67.4281 287.847 66.3511 286.939 65.4468C286.032 64.5426 284.952 63.8295 283.765 63.3497C282.578 62.8699 281.307 62.6329 280.026 62.6529Z" stroke="white" stroke-width="2" stroke-miterlimit="10"/>
</svg>
